SplineFontDB: 3.0
FontName: HexDevanagari01
FullName: HexDevanagari01
FamilyName: HexDevanagari01
Weight: Regular
Copyright: Copyright (c) 2014 - Matt Heximer (www.10fourdesign.com) with Reserved Font Name; "Hex".\nBased on "Bellota" by Kemie Guaida (www.pixilate.com), which is in turn based on "Snippet" by Gesine Todt.\nThis Font Software is licensed under the SIL Open Font License, Version 1.1. This license is available with a FAQ at: http://scripts.sil.org/OFL
Version: 001.700
ItalicAngle: 0
UnderlinePosition: 0
UnderlineWidth: 50
Ascent: 800
Descent: 200
sfntRevision: 0x0001b333
LayerCount: 3
Layer: 0 0 "Back"  1
Layer: 1 0 "Fore"  0
Layer: 2 0 "lines"  1
XUID: [1021 808 -1012548825 4370199]
FSType: 16
OS2Version: 3
OS2_WeightWidthSlopeOnly: 0
OS2_UseTypoMetrics: 1
CreationTime: 1402700805
ModificationTime: 1402705425
PfmFamily: 17
TTFWeight: 400
TTFWidth: 5
LineGap: 0
VLineGap: 0
Panose: 2 1 5 3 4 0 0 2 0 4
OS2TypoAscent: 890
OS2TypoAOffset: 0
OS2TypoDescent: -139
OS2TypoDOffset: 0
OS2TypoLinegap: 0
OS2WinAscent: 1132
OS2WinAOffset: 0
OS2WinDescent: 329
OS2WinDOffset: 0
HheadAscent: 1132
HheadAOffset: 0
HheadDescent: -329
HheadDOffset: 0
OS2SubXSize: 650
OS2SubYSize: 600
OS2SubXOff: 0
OS2SubYOff: 75
OS2SupXSize: 650
OS2SupYSize: 600
OS2SupXOff: 0
OS2SupYOff: 350
OS2StrikeYSize: 50
OS2StrikeYPos: 300
OS2Vendor: 'PIXL'
OS2CodePages: 20000193.00000000
OS2UnicodeRanges: 0000000f.02000001.00000000.00000000
Lookup: 1 0 0 "'aalt' Access All Alternates lookup 0"  {"'aalt' Access All Alternates lookup 0 subtable"  } ['aalt' ('DFLT' <'dflt' > 'armn' <'dflt' > 'grek' <'dflt' > 'latn' <'CAT ' 'MOL ' 'ROM ' 'dflt' > ) ]
Lookup: 3 0 0 "'aalt' Access All Alternates lookup 1"  {"'aalt' Access All Alternates lookup 1 subtable"  } ['aalt' ('DFLT' <'dflt' > 'armn' <'dflt' > 'grek' <'dflt' > 'latn' <'CAT ' 'MOL ' 'ROM ' 'dflt' > ) ]
Lookup: 1 0 0 "'locl' Localized Forms in Latin lookup 2"  {"'locl' Localized Forms in Latin lookup 2 subtable"  } ['locl' ('latn' <'ROM ' > ) ]

StartChar: .notdef
Encoding: 1114112 -1 0
Width: 500
Flags: HMW
HStem: 0 50<80 420 80 500> 650 50<80 420 80 80>
VStem: 0 50<95 605 95 700> 450 50<95 605 605 605>
LayerCount: 3
Fore
SplineSet
50 605 m 1
 50 95 l 1
 220 350 l 1
 50 605 l 1
80 50 m 1
 420 50 l 1
 250 305 l 1
 80 50 l 1
280 350 m 1
 450 95 l 1
 450 605 l 1
 280 350 l 1
250 395 m 1
 420 650 l 1
 80 650 l 1
 250 395 l 1
0 0 m 1
 0 700 l 1
 500 700 l 1
 500 0 l 1
 0 0 l 1
EndSplineSet
EndChar

StartChar: A
Encoding: 65 65 1
Width: 775
GlyphClass: 2
Flags: HMW
HStem: -4 59<100 112.5> 0 21G<651 715 651 651> 227 57<285 532 285 556 261 532> 666 20G<399 418 418 418>
VStem: 15 700<0 71>
AnchorPoint: "Anchor-3" 409 686 basechar 0
AnchorPoint: "Anchor-2" 409 0 basechar 0
AnchorPoint: "Anchor-1" 714 0 basechar 0
LayerCount: 3
Fore
SplineSet
398 552 m 1
 285 284 l 1
 532 284 l 1
 419 552 l 1
 417 557 l 1
 413 568 l 2
 411 573 409 578 408 585 c 2
 398 552 l 1
715 0 m 1
 651 0 l 1
 556 227 l 1
 261 227 l 1
 188 50 l 2
 181 33 170 20 154 10 c 0
 138 0 120 -4 105 -4 c 0
 83 -4 63 4 47 17 c 0
 26 34 18 53 15 71 c 1
 72 82 l 1
 74 74 79 66 84 62 c 0
 89 58 95 55 105 55 c 0
 121 55 130 63 135 75 c 2
 399 686 l 1
 418 686 l 1
 715 0 l 1
EndSplineSet
Substitution2: "Single Substitution lookup 15 subtable" ordfeminine
Substitution2: "'ss02' Style Set 2 lookup 13 subtable" A.ss02
AlternateSubs2: "'aalt' Access All Alternates lookup 1 subtable" ordfeminine A.ss02
Position2: "'cpsp' Capital Spacing lookup 0 subtable" dx=5 dy=0 dh=10 dv=0
EndChar

StartChar: A.ss02
Encoding: 1114113 -1 2
Width: 735
GlyphClass: 2
Flags: HMW
HStem: 0 21G<60 124 60 60 611 675 611 611> 227 57<243 490 243 514 219 490> 683 20G<357 376 376 376>
VStem: 60 615<0 0>
AnchorPoint: "Anchor-3" 368 684 basechar 0
AnchorPoint: "Anchor-2" 0 0 basechar 0
AnchorPoint: "Anchor-1" 621 10 basechar 0
LayerCount: 3
Fore
SplineSet
490 284 m 1
 391 517 l 2
 380 542 371 574 366 595 c 1
 361 573 352 541 342 517 c 2
 243 284 l 1
 490 284 l 1
675 0 m 1
 611 0 l 1
 514 227 l 1
 219 227 l 1
 124 0 l 1
 60 0 l 1
 357 703 l 1
 376 703 l 1
 675 0 l 1
EndSplineSet
Position2: "'cpsp' Capital Spacing lookup 0 subtable" dx=5 dy=0 dh=10 dv=0
EndChar

StartChar: Aacute
Encoding: 193 193 3
Width: 775
GlyphClass: 2
Flags: HMW
HStem: -4 59<100 112.5> 0 21G<651 715 651 651> 227 57<285 532 285 556 261 532> 666 20G<399 418 418 418>
VStem: 15 700<0 71>
LayerCount: 3
Fore
SplineSet
398 552 m 1
 285 284 l 1
 532 284 l 1
 419 552 l 1
 417 557 l 1
 413 568 l 2
 411 573 409 578 408 585 c 2
 398 552 l 1
715 0 m 1
 651 0 l 1
 556 227 l 1
 261 227 l 1
 188 50 l 2
 181 33 170 20 154 10 c 0
 138 0 120 -4 105 -4 c 0
 83 -4 63 4 47 17 c 0
 26 34 18 53 15 71 c 1
 72 82 l 1
 74 74 79 66 84 62 c 0
 89 58 95 55 105 55 c 0
 121 55 130 63 135 75 c 2
 399 686 l 1
 418 686 l 1
 715 0 l 1
575 863 m 1
 403 753 l 1
 381 787 l 1
 539 912 l 1
 575 863 l 1
EndSplineSet
Position2: "'cpsp' Capital Spacing lookup 0 subtable" dx=5 dy=0 dh=10 dv=0
EndChar

StartChar: Abreve
Encoding: 258 258 4
Width: 775
GlyphClass: 2
Flags: HMW
HStem: -4 59<100 112.5> 0 21G<651 715 651 651> 227 57<285 532 285 556 261 532> 666 20G<399 418 418 418> 778 54<394 423 394 432>
VStem: 266 61<915 915> 489 61<915 915>
LayerCount: 3
Fore
SplineSet
398 552 m 1
 285 284 l 1
 532 284 l 1
 419 552 l 1
 417 557 l 1
 413 568 l 2
 411 573 409 578 408 585 c 2
 398 552 l 1
715 0 m 1
 651 0 l 1
 556 227 l 1
 261 227 l 1
 188 50 l 2
 181 33 170 20 154 10 c 0
 138 0 120 -4 105 -4 c 0
 83 -4 63 4 47 17 c 0
 26 34 18 53 15 71 c 1
 72 82 l 1
 74 74 79 66 84 62 c 0
 89 58 95 55 105 55 c 0
 121 55 130 63 135 75 c 2
 399 686 l 1
 418 686 l 1
 715 0 l 1
489 915 m 1
 550 915 l 1
 549 875 537 842 514 817 c 0
 491 791 456 778 408 778 c 0
 361 778 326 791 303 817 c 0
 280 842 267 875 266 915 c 1
 327 915 l 1
 328 890 335 870 348 855 c 0
 360 840 380 832 408 832 c 0
 438 832 459 840 471 855 c 0
 482 870 488 890 489 915 c 1
EndSplineSet
Position2: "'cpsp' Capital Spacing lookup 0 subtable" dx=5 dy=0 dh=10 dv=0
EndChar

StartChar: Abreveacute
Encoding: 7854 7854 5
Width: 775
GlyphClass: 2
Flags: HMW
HStem: -4 59<100 112.5> 0 21G<651 715 651 651> 227 57<285 532 285 556 261 532> 666 20G<399 418 418 418> 778 54<394 423 394 432>
VStem: 266 61<915 915> 489 61<915 915>
LayerCount: 3
Fore
SplineSet
398 552 m 1
 285 284 l 1
 532 284 l 1
 419 552 l 1
 417 557 l 1
 413 568 l 2
 411 573 409 578 408 585 c 2
 398 552 l 1
715 0 m 1
 651 0 l 1
 556 227 l 1
 261 227 l 1
 188 50 l 2
 181 33 170 20 154 10 c 0
 138 0 120 -4 105 -4 c 0
 83 -4 63 4 47 17 c 0
 26 34 18 53 15 71 c 1
 72 82 l 1
 74 74 79 66 84 62 c 0
 89 58 95 55 105 55 c 0
 121 55 130 63 135 75 c 2
 399 686 l 1
 418 686 l 1
 715 0 l 1
489 915 m 1
 550 915 l 1
 549 875 537 842 514 817 c 0
 491 791 456 778 408 778 c 0
 361 778 326 791 303 817 c 0
 280 842 267 875 266 915 c 1
 327 915 l 1
 328 890 335 870 348 855 c 0
 360 840 380 832 408 832 c 0
 438 832 459 840 471 855 c 0
 482 870 488 890 489 915 c 1
575 1063 m 1
 403 953 l 1
 381 987 l 1
 539 1112 l 1
 575 1063 l 1
EndSplineSet
Position2: "'cpsp' Capital Spacing lookup 0 subtable" dx=5 dy=0 dh=10 dv=0
EndChar

StartChar: Abrevedotbelow
Encoding: 7862 7862 6
Width: 775
GlyphClass: 2
Flags: HMW
HStem: -184 71 -4 59<100 112.5> 0 21G<651 715 651 651> 227 57<285 532 285 556 261 532> 666 20G<399 418 418 418> 800 54<393 422 393 431>
VStem: 265 61<937 937> 378 59<4.29497e+09 4.29497e+09 4.29497e+09 4.29497e+09> 488 61<937 937>
LayerCount: 3
Fore
SplineSet
407 -113 m 0
 419 -113 429 -117 437 -125 c 0
 445 -133 449 -143 449 -155 c 0
 449 -166 445 -176 437 -184 c 0
 429 -192 419 -196 407 -196 c 0
 390 -196 386 -192 378 -184 c 0
 370 -176 366 -166 366 -155 c 0
 366 -143 370 -133 378 -125 c 0
 386 -117 396 -113 407 -113 c 0
398 552 m 1
 285 284 l 1
 532 284 l 1
 419 552 l 1
 417 557 l 1
 413 568 l 2
 411 573 409 578 408 585 c 2
 398 552 l 1
715 0 m 1
 651 0 l 1
 556 227 l 1
 261 227 l 1
 188 50 l 2
 181 33 170 20 154 10 c 0
 138 0 120 -4 105 -4 c 0
 83 -4 63 4 47 17 c 0
 26 34 18 53 15 71 c 1
 72 82 l 1
 74 74 79 66 84 62 c 0
 89 58 95 55 105 55 c 0
 121 55 130 63 135 75 c 2
 399 686 l 1
 418 686 l 1
 715 0 l 1
488 937 m 1
 549 937 l 1
 548 897 536 864 513 839 c 0
 490 813 455 800 407 800 c 0
 360 800 325 813 302 839 c 0
 279 864 266 897 265 937 c 1
 326 937 l 1
 327 912 334 892 347 877 c 0
 359 862 379 854 407 854 c 0
 437 854 458 862 470 877 c 0
 481 892 487 912 488 937 c 1
EndSplineSet
Position2: "'cpsp' Capital Spacing lookup 0 subtable" dx=5 dy=0 dh=10 dv=0
EndChar

StartChar: Abrevegrave
Encoding: 7856 7856 7
Width: 775
GlyphClass: 2
Flags: HMW
HStem: -4 59<100 112.5> 0 21G<651 715 651 651> 227 57<285 532 285 556 261 532> 666 20G<399 418 418 418> 778 54<394 423 394 432>
VStem: 266 61<915 915> 489 61<915 915>
LayerCount: 3
Fore
SplineSet
398 552 m 1
 285 284 l 1
 532 284 l 1
 419 552 l 1
 417 557 l 1
 413 568 l 2
 411 573 409 578 408 585 c 2
 398 552 l 1
715 0 m 1
 651 0 l 1
 556 227 l 1
 261 227 l 1
 188 50 l 2
 181 33 170 20 154 10 c 0
 138 0 120 -4 105 -4 c 0
 83 -4 63 4 47 17 c 0
 26 34 18 53 15 71 c 1
 72 82 l 1
 74 74 79 66 84 62 c 0
 89 58 95 55 105 55 c 0
 121 55 130 63 135 75 c 2
 399 686 l 1
 418 686 l 1
 715 0 l 1
489 915 m 1
 550 915 l 1
 549 875 537 842 514 817 c 0
 491 791 456 778 408 778 c 0
 361 778 326 791 303 817 c 0
 280 842 267 875 266 915 c 1
 327 915 l 1
 328 890 335 870 348 855 c 0
 360 840 380 832 408 832 c 0
 438 832 459 840 471 855 c 0
 482 870 488 890 489 915 c 1
442 957 m 1
 420 923 l 1
 248 1033 l 1
 284 1082 l 1
 442 957 l 1
EndSplineSet
Position2: "'cpsp' Capital Spacing lookup 0 subtable" dx=5 dy=0 dh=10 dv=0
EndChar

StartChar: Abrevetilde
Encoding: 7860 7860 8
Width: 775
GlyphClass: 2
Flags: HMW
HStem: -4 59<100 112.5> 0 21G<651 715 651 651> 227 57<285 532 285 556 261 532> 666 20G<399 418 418 418> 778 54<394 423 394 432> 937 53<475 480> 972 53<329 337 329 330.5>
VStem: 266 61<915 915> 489 61<915 915>
LayerCount: 3
Fore
SplineSet
398 552 m 1
 285 284 l 1
 532 284 l 1
 419 552 l 1
 417 557 l 1
 413 568 l 2
 411 573 409 578 408 585 c 2
 398 552 l 1
715 0 m 1
 651 0 l 1
 556 227 l 1
 261 227 l 1
 188 50 l 2
 181 33 170 20 154 10 c 0
 138 0 120 -4 105 -4 c 0
 83 -4 63 4 47 17 c 0
 26 34 18 53 15 71 c 1
 72 82 l 1
 74 74 79 66 84 62 c 0
 89 58 95 55 105 55 c 0
 121 55 130 63 135 75 c 2
 399 686 l 1
 418 686 l 1
 715 0 l 1
489 915 m 1
 550 915 l 1
 549 875 537 842 514 816 c 0
 491 791 456 778 408 778 c 0
 361 778 326 791 303 816 c 0
 280 842 267 875 266 915 c 1
 327 915 l 1
 328 890 335 870 348 855 c 0
 360 840 380 832 408 832 c 0
 438 832 459 840 471 855 c 0
 482 870 488 890 489 915 c 1
265 939 m 1
 232 980 l 1
 249 994 265 1004 280 1011 c 0
 295 1018 310 1023 325 1025 c 0
 330 1025 334 1025 339 1025 c 0
 349 1025 359 1024 370 1022 c 0
 385 1018 401 1013 418 1006 c 0
 432 1000 445 996 456 993 c 0
 464 991 471 990 479 990 c 0
 482 990 485 990 488 991 c 0
 498 992 508 995 519 1000 c 0
 529 1005 540 1013 552 1023 c 1
 586 982 l 1
 554 955 523 941 493 938 c 2
 486 938 l 1
 480 937 l 2
 465 937 451 939 437 943 c 0
 423 947 410 952 398 957 c 0
 384 962 372 966 361 969 c 0
 352 971 345 972 337 972 c 0
 334 972 332 972 329 972 c 0
 319 971 309 967 299 962 c 0
 288 957 277 949 265 939 c 1
EndSplineSet
Position2: "'cpsp' Capital Spacing lookup 0 subtable" dx=5 dy=0 dh=10 dv=0
EndChar

StartChar: Acaron
Encoding: 461 461 9
Width: 775
GlyphClass: 2
Flags: HMW
HStem: -4 59<100 112.5> 0 21G<651 715 651 651> 227 57<285 532 285 556 261 532> 666 20G<399 418 418 418> 781 142<261 433 261 384>
VStem: 15 700<0 71>
LayerCount: 3
Fore
SplineSet
398 552 m 1
 285 284 l 1
 532 284 l 1
 419 552 l 1
 417 557 l 1
 413 568 l 2
 411 573 409 578 408 585 c 2
 398 552 l 1
715 0 m 1
 651 0 l 1
 556 227 l 1
 261 227 l 1
 188 50 l 2
 181 33 170 20 154 10 c 0
 138 0 120 -4 105 -4 c 0
 83 -4 63 4 47 17 c 0
 26 34 18 53 15 71 c 1
 72 82 l 1
 74 74 79 66 84 62 c 0
 89 58 95 55 105 55 c 0
 121 55 130 63 135 75 c 2
 399 686 l 1
 418 686 l 1
 715 0 l 1
433 781 m 1
 384 781 l 1
 261 923 l 1
 328 923 l 1
 409 834 l 1
 489 923 l 1
 557 923 l 1
 433 781 l 1
EndSplineSet
Position2: "'cpsp' Capital Spacing lookup 0 subtable" dx=5 dy=0 dh=10 dv=0
EndChar

StartChar: Acircumflex
Encoding: 194 194 10
Width: 775
GlyphClass: 2
Flags: HMW
HStem: -4 59<100 112.5> 0 21G<651 715 651 651> 227 57<285 532 285 556 261 532> 666 20G<399 418 418 418> 791 142<261 433 261 433 384 557 384 489>
VStem: 15 700<0 71>
LayerCount: 3
Fore
SplineSet
398 552 m 1
 285 284 l 1
 532 284 l 1
 419 552 l 1
 417 557 l 1
 413 568 l 2
 411 573 409 578 408 585 c 2
 398 552 l 1
715 0 m 1
 651 0 l 1
 556 227 l 1
 261 227 l 1
 188 50 l 2
 181 33 170 20 154 10 c 0
 138 0 120 -4 105 -4 c 0
 83 -4 63 4 47 17 c 0
 26 34 18 53 15 71 c 1
 72 82 l 1
 74 74 79 66 84 62 c 0
 89 58 95 55 105 55 c 0
 121 55 130 63 135 75 c 2
 399 686 l 1
 418 686 l 1
 715 0 l 1
557 791 m 1
 489 791 l 1
 409 880 l 1
 328 791 l 1
 261 791 l 1
 384 933 l 1
 433 933 l 1
 557 791 l 1
EndSplineSet
Position2: "'cpsp' Capital Spacing lookup 0 subtable" dx=5 dy=0 dh=10 dv=0
EndChar

StartChar: Acircumflexacute
Encoding: 7844 7844 11
Width: 775
GlyphClass: 2
Flags: HMW
HStem: -4 59<100 112.5> 0 21G<651 715 651 651> 227 57<285 532 285 556 261 532> 666 20G<399 418 418 418> 791 142<261 433 261 433 384 557 384 489>
VStem: 15 700<0 71>
LayerCount: 3
Fore
SplineSet
398 552 m 1
 285 284 l 1
 532 284 l 1
 419 552 l 1
 417 557 l 1
 413 568 l 2
 411 573 409 578 408 585 c 2
 398 552 l 1
715 0 m 1
 651 0 l 1
 556 227 l 1
 261 227 l 1
 188 50 l 2
 181 33 170 20 154 10 c 0
 138 0 120 -4 105 -4 c 0
 83 -4 63 4 47 17 c 0
 26 34 18 53 15 71 c 1
 72 82 l 1
 74 74 79 66 84 62 c 0
 89 58 95 55 105 55 c 0
 121 55 130 63 135 75 c 2
 399 686 l 1
 418 686 l 1
 715 0 l 1
557 791 m 1
 489 791 l 1
 409 880 l 1
 328 791 l 1
 261 791 l 1
 384 933 l 1
 433 933 l 1
 557 791 l 1
575 1083 m 1
 403 973 l 1
 381 1007 l 1
 539 1132 l 1
 575 1083 l 1
EndSplineSet
Position2: "'cpsp' Capital Spacing lookup 0 subtable" dx=5 dy=0 dh=10 dv=0
EndChar

StartChar: Acircumflexdotbelow
Encoding: 7852 7852 12
Width: 775
GlyphClass: 2
Flags: HMW
HStem: -184 71 -4 59<100 112.5> 0 21G<651 715 651 651> 227 57<285 532 285 556 261 532> 666 20G<399 418 418 418> 791 142<261 433 261 433 384 557 384 489>
VStem: 378 59<4.29497e+09 4.29497e+09 4.29497e+09 4.29497e+09>
LayerCount: 3
Fore
SplineSet
407 -113 m 0
 419 -113 429 -117 437 -125 c 0
 445 -133 449 -143 449 -155 c 0
 449 -166 445 -176 437 -184 c 0
 429 -192 419 -196 407 -196 c 0
 390 -196 386 -192 378 -184 c 0
 370 -176 366 -166 366 -155 c 0
 366 -143 370 -133 378 -125 c 0
 386 -117 396 -113 407 -113 c 0
398 552 m 1
 285 284 l 1
 532 284 l 1
 419 552 l 1
 417 557 l 1
 413 568 l 2
 411 573 409 578 408 585 c 2
 398 552 l 1
715 0 m 1
 651 0 l 1
 556 227 l 1
 261 227 l 1
 188 50 l 2
 181 33 170 20 154 10 c 0
 138 0 120 -4 105 -4 c 0
 83 -4 63 4 47 17 c 0
 26 34 18 53 15 71 c 1
 72 82 l 1
 74 74 79 66 84 62 c 0
 89 58 95 55 105 55 c 0
 121 55 130 63 135 75 c 2
 399 686 l 1
 418 686 l 1
 715 0 l 1
557 791 m 1
 489 791 l 1
 409 880 l 1
 328 791 l 1
 261 791 l 1
 384 933 l 1
 433 933 l 1
 557 791 l 1
EndSplineSet
Position2: "'cpsp' Capital Spacing lookup 0 subtable" dx=5 dy=0 dh=10 dv=0
EndChar

StartChar: Acircumflexgrave
Encoding: 7846 7846 13
Width: 775
GlyphClass: 2
Flags: HMW
HStem: -4 59<100 112.5> 0 21G<651 715 651 651> 227 57<285 532 285 556 261 532> 666 20G<399 418 418 418> 791 142<261 433 261 433 384 557 384 489>
VStem: 15 700<0 71>
LayerCount: 3
Fore
SplineSet
398 552 m 1
 285 284 l 1
 532 284 l 1
 419 552 l 1
 417 557 l 1
 413 568 l 2
 411 573 409 578 408 585 c 2
 398 552 l 1
715 0 m 1
 651 0 l 1
 556 227 l 1
 261 227 l 1
 188 50 l 2
 181 33 170 20 154 10 c 0
 138 0 120 -4 105 -4 c 0
 83 -4 63 4 47 17 c 0
 26 34 18 53 15 71 c 1
 72 82 l 1
 74 74 79 66 84 62 c 0
 89 58 95 55 105 55 c 0
 121 55 130 63 135 75 c 2
 399 686 l 1
 418 686 l 1
 715 0 l 1
557 791 m 1
 489 791 l 1
 409 880 l 1
 328 791 l 1
 261 791 l 1
 384 933 l 1
 433 933 l 1
 557 791 l 1
442 987 m 1
 420 953 l 1
 248 1063 l 1
 284 1112 l 1
 442 987 l 1
EndSplineSet
Position2: "'cpsp' Capital Spacing lookup 0 subtable" dx=5 dy=0 dh=10 dv=0
EndChar

StartChar: Acircumflextilde
Encoding: 7850 7850 14
Width: 775
GlyphClass: 2
Flags: HMW
HStem: -4 59<100 112.5> 0 21G<651 715 651 651> 227 57<285 532 285 556 261 532> 666 20G<399 418 418 418> 791 142<261 433 261 433 384 557 384 489> 957 53<475 480> 992 53<329 337 329 330.5>
VStem: 15 700<0 71>
LayerCount: 3
Fore
SplineSet
398 552 m 1
 285 284 l 1
 532 284 l 1
 419 552 l 1
 417 557 l 1
 413 568 l 2
 411 573 409 578 408 585 c 2
 398 552 l 1
715 0 m 1
 651 0 l 1
 556 227 l 1
 261 227 l 1
 188 50 l 2
 181 33 170 20 154 10 c 0
 138 0 120 -4 105 -4 c 0
 83 -4 63 4 47 17 c 0
 26 34 18 53 15 71 c 1
 72 82 l 1
 74 74 79 66 84 62 c 0
 89 58 95 55 105 55 c 0
 121 55 130 63 135 75 c 2
 399 686 l 1
 418 686 l 1
 715 0 l 1
557 791 m 1
 489 791 l 1
 409 880 l 1
 328 791 l 1
 261 791 l 1
 384 933 l 1
 433 933 l 1
 557 791 l 1
265 959 m 1
 232 1000 l 1
 249 1014 265 1024 280 1031 c 0
 295 1038 310 1043 325 1045 c 0
 330 1045 334 1045 339 1045 c 0
 349 1045 359 1044 370 1042 c 0
 385 1038 401 1033 418 1026 c 0
 432 1020 445 1016 456 1013 c 0
 464 1011 471 1010 479 1010 c 0
 482 1010 485 1010 488 1011 c 0
 498 1012 508 1015 519 1020 c 0
 529 1025 540 1033 552 1043 c 1
 586 1002 l 1
 554 975 523 961 493 958 c 2
 486 958 l 1
 480 957 l 2
 465 957 451 959 437 963 c 0
 423 967 410 972 398 977 c 0
 384 982 372 986 361 989 c 0
 352 991 345 992 337 992 c 0
 334 992 332 992 329 992 c 0
 319 991 309 987 299 982 c 0
 288 977 277 969 265 959 c 1
EndSplineSet
Position2: "'cpsp' Capital Spacing lookup 0 subtable" dx=5 dy=0 dh=10 dv=0
EndChar

StartChar: Adieresis
Encoding: 196 196 15
Width: 775
GlyphClass: 2
Flags: HMW
HStem: -4 59<100 112.5> 0 21G<651 715 651 651> 227 57<285 532 285 556 261 532> 666 20G<399 418 418 418> 803 85<285.5 309 507.5 531>
VStem: 255 85<833.5 857> 477 85<833.5 857>
LayerCount: 3
Fore
SplineSet
532 284 m 1
 419 552 l 1
 417 557 l 1
 413 568 l 2
 411 573 409 578 408 585 c 2
 398 552 l 1
 285 284 l 1
 532 284 l 1
715 0 m 1
 651 0 l 1
 556 227 l 1
 261 227 l 1
 188 50 l 2
 181 33 170 20 154 10 c 0
 138 0 120 -4 105 -4 c 0
 83 -4 63 4 47 17 c 0
 26 34 18 53 15 71 c 1
 72 82 l 1
 74 74 79 66 84 62 c 0
 89 58 95 55 105 55 c 0
 121 55 130 63 135 75 c 2
 399 686 l 1
 418 686 l 1
 715 0 l 1
519 803 m 0
 496 803 477 822 477 845 c 0
 477 869 496 888 519 888 c 0
 543 888 562 869 562 845 c 0
 562 822 543 803 519 803 c 0
297 803 m 0
 274 803 255 822 255 845 c 0
 255 869 274 888 297 888 c 0
 321 888 340 869 340 845 c 0
 340 822 321 803 297 803 c 0
EndSplineSet
Position2: "'cpsp' Capital Spacing lookup 0 subtable" dx=5 dy=0 dh=10 dv=0
EndChar

StartChar: Adieresismacron
Encoding: 478 478 16
Width: 775
GlyphClass: 2
Flags: HMW
HStem: -4 59<100 112.5> 0 21G<651 715 651 651> 227 57<285 532 285 556 261 532> 666 20G<399 418 418 418> 803 85<285.5 309 507.5 531> 923 57<246 572 246 572>
VStem: 255 85<833.5 857> 477 85<833.5 857>
LayerCount: 3
Fore
SplineSet
532 284 m 1
 419 552 l 1
 417 557 l 1
 413 568 l 2
 411 573 409 578 408 585 c 2
 398 552 l 1
 285 284 l 1
 532 284 l 1
715 0 m 1
 651 0 l 1
 556 227 l 1
 261 227 l 1
 188 50 l 2
 181 33 170 20 154 10 c 0
 138 0 120 -4 105 -4 c 0
 83 -4 63 4 47 17 c 0
 26 34 18 53 15 71 c 1
 72 82 l 1
 74 74 79 66 84 62 c 0
 89 58 95 55 105 55 c 0
 121 55 130 63 135 75 c 2
 399 686 l 1
 418 686 l 1
 715 0 l 1
477 845 m 0
 477 869 496 888 519 888 c 0
 543 888 562 869 562 845 c 0
 562 822 543 803 519 803 c 0
 496 803 477 822 477 845 c 0
255 845 m 0
 255 869 274 888 297 888 c 0
 321 888 340 869 340 845 c 0
 340 822 321 803 297 803 c 0
 274 803 255 822 255 845 c 0
572 923 m 1
 246 923 l 1
 246 980 l 1
 572 980 l 1
 572 923 l 1
EndSplineSet
Position2: "'cpsp' Capital Spacing lookup 0 subtable" dx=5 dy=0 dh=10 dv=0
EndChar

StartChar: Adotaccent
Encoding: 550 550 17
Width: 775
GlyphClass: 2
Flags: HMW
HStem: -4 59<100 112.5> 0 21G<651 715 651 651> 227 57<285 532 285 556 261 532> 666 20G<399 418 418 418> 809 85<394.5 418>
VStem: 364 85<839.5 863>
LayerCount: 3
Fore
SplineSet
398 552 m 1
 285 284 l 1
 532 284 l 1
 419 552 l 1
 417 557 l 1
 413 568 l 2
 411 573 409 578 408 585 c 2
 398 552 l 1
715 0 m 1
 651 0 l 1
 556 227 l 1
 261 227 l 1
 188 50 l 2
 181 33 170 20 154 10 c 0
 138 0 120 -4 105 -4 c 0
 83 -4 63 4 47 17 c 0
 26 34 18 53 15 71 c 1
 72 82 l 1
 74 74 79 66 84 62 c 0
 89 58 95 55 105 55 c 0
 121 55 130 63 135 75 c 2
 399 686 l 1
 418 686 l 1
 715 0 l 1
406 894 m 0
 430 894 449 875 449 851 c 0
 449 828 430 809 406 809 c 0
 383 809 364 828 364 851 c 0
 364 875 383 894 406 894 c 0
EndSplineSet
Position2: "'cpsp' Capital Spacing lookup 0 subtable" dx=5 dy=0 dh=10 dv=0
EndChar

StartChar: Adotbelow
Encoding: 7840 7840 18
Width: 775
GlyphClass: 2
Flags: HMW
HStem: -184 71 -4 59<100 112.5> 0 21G<651 715 651 651> 227 57<285 532 285 556 261 532> 666 20G<399 418 418 418>
VStem: 378 59<4.29497e+09 4.29497e+09 4.29497e+09 4.29497e+09>
LayerCount: 3
Fore
SplineSet
407 -113 m 0
 419 -113 429 -117 437 -125 c 0
 445 -133 449 -143 449 -155 c 0
 449 -166 445 -176 437 -184 c 0
 429 -192 419 -196 407 -196 c 0
 390 -196 386 -192 378 -184 c 0
 370 -176 366 -166 366 -155 c 0
 366 -143 370 -133 378 -125 c 0
 386 -117 396 -113 407 -113 c 0
398 552 m 1
 285 284 l 1
 532 284 l 1
 419 552 l 1
 417 557 l 1
 413 568 l 2
 411 573 409 578 408 585 c 2
 398 552 l 1
715 0 m 1
 651 0 l 1
 556 227 l 1
 261 227 l 1
 188 50 l 2
 181 33 170 20 154 10 c 0
 138 0 120 -4 105 -4 c 0
 83 -4 63 4 47 17 c 0
 26 34 18 53 15 71 c 1
 72 82 l 1
 74 74 79 66 84 62 c 0
 89 58 95 55 105 55 c 0
 121 55 130 63 135 75 c 2
 399 686 l 1
 418 686 l 1
 715 0 l 1
EndSplineSet
Position2: "'cpsp' Capital Spacing lookup 0 subtable" dx=5 dy=0 dh=10 dv=0
EndChar

StartChar: Adotmacron
Encoding: 480 480 19
Width: 775
GlyphClass: 2
Flags: HMW
HStem: -4 59<100 112.5> 0 21G<651 715 651 651> 227 57<285 532 285 556 261 532> 666 20G<399 418 418 418> 813 57<246 572 246 572> 919 85<394.5 418>
VStem: 364 85<949.5 973>
LayerCount: 3
Fore
SplineSet
398 552 m 1
 285 284 l 1
 532 284 l 1
 419 552 l 1
 417 557 l 1
 413 568 l 2
 411 573 409 578 408 585 c 2
 398 552 l 1
715 0 m 1
 651 0 l 1
 556 227 l 1
 261 227 l 1
 188 50 l 2
 181 33 170 20 154 10 c 0
 138 0 120 -4 105 -4 c 0
 83 -4 63 4 47 17 c 0
 26 34 18 53 15 71 c 1
 72 82 l 1
 74 74 79 66 84 62 c 0
 89 58 95 55 105 55 c 0
 121 55 130 63 135 75 c 2
 399 686 l 1
 418 686 l 1
 715 0 l 1
572 813 m 1
 246 813 l 1
 246 870 l 1
 572 870 l 1
 572 813 l 1
406 1004 m 0
 430 1004 449 985 449 961 c 0
 449 938 430 919 406 919 c 0
 383 919 364 938 364 961 c 0
 364 985 383 1004 406 1004 c 0
EndSplineSet
Position2: "'cpsp' Capital Spacing lookup 0 subtable" dx=5 dy=0 dh=10 dv=0
EndChar

StartChar: Agrave
Encoding: 192 192 20
Width: 775
GlyphClass: 2
Flags: HMW
HStem: -4 59<100 112.5> 0 21G<651 715 651 651> 227 57<285 532 285 556 261 532> 666 20G<399 418 418 418>
VStem: 15 700<0 71>
LayerCount: 3
Fore
SplineSet
398 552 m 1
 285 284 l 1
 532 284 l 1
 419 552 l 1
 417 557 l 1
 413 568 l 2
 411 573 409 578 408 585 c 2
 398 552 l 1
715 0 m 1
 651 0 l 1
 556 227 l 1
 261 227 l 1
 188 50 l 2
 181 33 170 20 154 10 c 0
 138 0 120 -4 105 -4 c 0
 83 -4 63 4 47 17 c 0
 26 34 18 53 15 71 c 1
 72 82 l 1
 74 74 79 66 84 62 c 0
 89 58 95 55 105 55 c 0
 121 55 130 63 135 75 c 2
 399 686 l 1
 418 686 l 1
 715 0 l 1
442 787 m 1
 420 753 l 1
 248 863 l 1
 284 912 l 1
 442 787 l 1
EndSplineSet
Position2: "'cpsp' Capital Spacing lookup 0 subtable" dx=5 dy=0 dh=10 dv=0
EndChar

StartChar: Amacron
Encoding: 256 256 21
Width: 775
GlyphClass: 2
Flags: HMW
HStem: -4 59<100 112.5> 0 21G<651 715 651 651> 227 57<285 532 285 556 261 532> 666 20G<399 418 418 418> 813 57<246 572 246 572>
VStem: 15 700<0 71>
LayerCount: 3
Fore
SplineSet
398 552 m 1
 285 284 l 1
 532 284 l 1
 419 552 l 1
 417 557 l 1
 413 568 l 2
 411 573 409 578 408 585 c 2
 398 552 l 1
715 0 m 1
 651 0 l 1
 556 227 l 1
 261 227 l 1
 188 50 l 2
 181 33 170 20 154 10 c 0
 138 0 120 -4 105 -4 c 0
 83 -4 63 4 47 17 c 0
 26 34 18 53 15 71 c 1
 72 82 l 1
 74 74 79 66 84 62 c 0
 89 58 95 55 105 55 c 0
 121 55 130 63 135 75 c 2
 399 686 l 1
 418 686 l 1
 715 0 l 1
572 813 m 1
 246 813 l 1
 246 870 l 1
 572 870 l 1
 572 813 l 1
EndSplineSet
Position2: "'cpsp' Capital Spacing lookup 0 subtable" dx=5 dy=0 dh=10 dv=0
EndChar

StartChar: Aogonek
Encoding: 260 260 22
Width: 775
GlyphClass: 2
Flags: HMW
HStem: -205 53<653.5 678> -4 59<100 112.5> 0 21G<651 651 714 714 714 715> 227 57<285 532 285 556 261 532> 666 20G<399 418 418 418>
VStem: 578 65
LayerCount: 3
Fore
SplineSet
532 284 m 1
 419 552 l 1
 417 557 l 1
 413 568 l 2
 411 573 409 578 408 585 c 2
 398 552 l 1
 285 284 l 1
 532 284 l 1
729 -131 m 1
 754 -176 l 1
 742 -185 727 -192 711 -197 c 0
 695 -202 678 -205 664 -205 c 0
 643 -205 621 -199 602 -180 c 0
 586 -164 578 -143 578 -117 c 0
 578 -104 580 -90 586 -78 c 0
 588 -74 597 -57 605 -47 c 0
 612 -38 629 -21 631 -19 c 2
 651 0 l 1
 556 227 l 1
 261 227 l 1
 188 50 l 2
 181 33 170 20 154 10 c 0
 138 0 120 -4 105 -4 c 0
 83 -4 63 4 47 17 c 0
 26 34 18 53 15 71 c 1
 72 82 l 1
 74 74 79 66 84 62 c 0
 89 58 95 55 105 55 c 0
 121 55 130 63 135 75 c 2
 399 686 l 1
 418 686 l 1
 715 0 l 1
 714 0 l 1
 688 -27 l 2
 681 -35 668 -48 662 -56 c 0
 655 -65 646 -79 643 -84 c 0
 638 -92 635 -101 635 -112 c 0
 635 -119 636 -128 643 -137 c 0
 647 -142 652 -147 662 -150 c 0
 666 -151 671 -152 676 -152 c 0
 680 -152 683 -151 687 -151 c 0
 696 -149 704 -146 712 -141 c 2
 729 -131 l 1
EndSplineSet
Position2: "'cpsp' Capital Spacing lookup 0 subtable" dx=5 dy=0 dh=10 dv=0
EndChar

StartChar: Aring
Encoding: 197 197 23
Width: 775
GlyphClass: 2
Flags: HMW
HStem: -4 59<100 112.5> 0 21G<651 715 651 651> 227 57<285 532 285 556 261 532> 666 20G<399 418 418 418> 733 43<401 415 401 423> 895 44<402 420>
VStem: 308 49<827.5 844.5 827.5 850.5> 462 48<829 846.5>
LayerCount: 3
Fore
SplineSet
398 552 m 1
 285 284 l 1
 532 284 l 1
 419 552 l 1
 417 557 l 1
 413 568 l 2
 411 573 409 578 408 585 c 2
 398 552 l 1
715 0 m 1
 651 0 l 1
 556 227 l 1
 261 227 l 1
 188 50 l 2
 181 33 170 20 154 10 c 0
 138 0 120 -4 105 -4 c 0
 83 -4 63 4 47 17 c 0
 26 34 18 53 15 71 c 1
 72 82 l 1
 74 74 79 66 84 62 c 0
 89 58 95 55 105 55 c 0
 121 55 130 63 135 75 c 2
 399 686 l 1
 418 686 l 1
 715 0 l 1
411 895 m 0
 393 895 380 889 371 879 c 0
 362 868 357 853 357 836 c 0
 357 819 362 802 370 792 c 0
 379 781 393 776 409 776 c 0
 421 776 436 779 447 793 c 0
 455 803 462 820 462 838 c 0
 462 855 456 868 448 878 c 0
 439 889 429 895 411 895 c 0
411 939 m 0
 440 939 463 932 482 912 c 0
 498 895 510 868 510 836 c 0
 510 809 502 784 483 763 c 0
 464 742 438 733 408 733 c 0
 378 733 353 742 335 761 c 0
 315 782 308 809 308 834 c 0
 308 867 320 895 335 911 c 0
 350 927 373 939 411 939 c 0
EndSplineSet
Position2: "'cpsp' Capital Spacing lookup 0 subtable" dx=5 dy=0 dh=10 dv=0
EndChar

StartChar: Aringacute
Encoding: 506 506 24
Width: 775
GlyphClass: 2
Flags: HMW
HStem: -4 59<100 112.5> 0 21G<651 715 651 651> 227 57<285 532 285 556 261 532> 666 20G<399 418 418 418> 733 43<401 415 401 423> 895 44<402 420>
VStem: 308 49<827.5 844.5 827.5 850.5> 462 48<829 846.5>
LayerCount: 3
Fore
SplineSet
398 552 m 1
 285 284 l 1
 532 284 l 1
 419 552 l 1
 417 557 l 1
 413 568 l 2
 411 573 409 578 408 585 c 2
 398 552 l 1
715 0 m 1
 651 0 l 1
 556 227 l 1
 261 227 l 1
 188 50 l 2
 181 33 170 20 154 10 c 0
 138 0 120 -4 105 -4 c 0
 83 -4 63 4 47 17 c 0
 26 34 18 53 15 71 c 1
 72 82 l 1
 74 74 79 66 84 62 c 0
 89 58 95 55 105 55 c 0
 121 55 130 63 135 75 c 2
 399 686 l 1
 418 686 l 1
 715 0 l 1
411 895 m 0
 393 895 380 889 371 879 c 0
 362 868 357 853 357 836 c 0
 357 819 362 802 370 792 c 0
 379 781 393 776 409 776 c 0
 421 776 436 779 447 793 c 0
 455 803 462 820 462 838 c 0
 462 855 456 868 448 878 c 0
 439 889 429 895 411 895 c 0
411 939 m 0
 440 939 463 932 482 912 c 0
 498 895 510 868 510 836 c 0
 510 809 502 784 483 763 c 0
 464 742 438 733 408 733 c 0
 378 733 353 742 335 761 c 0
 315 782 308 809 308 834 c 0
 308 867 320 895 335 911 c 0
 350 927 373 939 411 939 c 0
575 1093 m 1
 403 983 l 1
 381 1017 l 1
 539 1142 l 1
 575 1093 l 1
EndSplineSet
Position2: "'cpsp' Capital Spacing lookup 0 subtable" dx=5 dy=0 dh=10 dv=0
EndChar

StartChar: Atilde
Encoding: 195 195 25
Width: 775
GlyphClass: 2
Flags: HMW
HStem: -4 59<100 112.5> 0 21G<651 715 651 651> 227 57<285 532 285 556 261 532> 666 20G<399 418 418 418> 797 53<475 480> 832 53<329 337 329 330.5>
VStem: 15 700<0 71>
LayerCount: 3
Fore
SplineSet
398 552 m 1
 285 284 l 1
 532 284 l 1
 419 552 l 1
 417 557 l 1
 413 568 l 2
 411 573 409 578 408 585 c 2
 398 552 l 1
715 0 m 1
 651 0 l 1
 556 227 l 1
 261 227 l 1
 188 50 l 2
 181 33 170 20 154 10 c 0
 138 0 120 -4 105 -4 c 0
 83 -4 63 4 47 17 c 0
 26 34 18 53 15 71 c 1
 72 82 l 1
 74 74 79 66 84 62 c 0
 89 58 95 55 105 55 c 0
 121 55 130 63 135 75 c 2
 399 686 l 1
 418 686 l 1
 715 0 l 1
265 799 m 1
 232 840 l 1
 249 854 265 864 280 871 c 0
 295 878 310 883 325 885 c 0
 330 885 334 885 339 885 c 0
 349 885 359 884 370 882 c 0
 385 878 401 873 418 866 c 0
 432 860 445 856 456 853 c 0
 464 851 471 850 479 850 c 0
 482 850 485 850 488 851 c 0
 498 852 508 855 519 860 c 0
 529 865 540 873 552 883 c 1
 586 842 l 1
 554 815 523 801 493 798 c 2
 486 798 l 1
 480 797 l 2
 465 797 451 799 437 803 c 0
 423 807 410 812 398 817 c 0
 384 822 372 826 361 829 c 0
 352 831 345 832 337 832 c 0
 334 832 332 832 329 832 c 0
 319 831 309 827 299 822 c 0
 288 817 277 809 265 799 c 1
EndSplineSet
Position2: "'cpsp' Capital Spacing lookup 0 subtable" dx=5 dy=0 dh=10 dv=0
EndChar

StartChar: AE
Encoding: 198 198 26
Width: 935
GlyphClass: 2
Flags: HMW
HStem: 0 57<458 865 458 865> 227 57<234 397 234 397 205 397> 333 57<458 775 458 775> 627 57<458 845 458 458>
VStem: 397 61<57 227 227 227 284 333 390 623 623 623>
AnchorPoint: "Anchor-3" 458 682 basechar 0
AnchorPoint: "Anchor-2" 0 0 basechar 0
AnchorPoint: "Anchor-1" 0 0 basechar 0
LayerCount: 3
Fore
SplineSet
397 623 m 1
 386 587 l 2
 381 571 373 552 362 531 c 2
 234 284 l 1
 397 284 l 1
 397 623 l 1
845 627 m 1
 458 627 l 1
 458 390 l 1
 775 390 l 1
 775 333 l 1
 458 333 l 1
 458 57 l 1
 865 57 l 1
 865 0 l 1
 397 0 l 1
 397 227 l 1
 205 227 l 1
 88 0 l 1
 15 0 l 1
 374 684 l 1
 845 684 l 1
 845 627 l 1
EndSplineSet
Position2: "'cpsp' Capital Spacing lookup 0 subtable" dx=5 dy=0 dh=10 dv=0
EndChar

StartChar: AEacute
Encoding: 508 508 27
Width: 935
GlyphClass: 2
Flags: HMW
HStem: 0 57<458 865 458 865> 227 57<234 397 234 397 205 397> 333 57<458 775 458 775> 627 57<458 845 458 458>
VStem: 397 61<57 227 227 227 284 333 390 623 623 623>
LayerCount: 3
Fore
SplineSet
397 623 m 1
 386 587 l 2
 381 571 373 552 362 531 c 2
 234 284 l 1
 397 284 l 1
 397 623 l 1
845 627 m 1
 458 627 l 1
 458 390 l 1
 775 390 l 1
 775 333 l 1
 458 333 l 1
 458 57 l 1
 865 57 l 1
 865 0 l 1
 397 0 l 1
 397 227 l 1
 205 227 l 1
 88 0 l 1
 15 0 l 1
 374 684 l 1
 845 684 l 1
 845 627 l 1
624 859 m 1
 452 749 l 1
 430 783 l 1
 588 908 l 1
 624 859 l 1
EndSplineSet
Position2: "'cpsp' Capital Spacing lookup 0 subtable" dx=5 dy=0 dh=10 dv=0
EndChar

StartChar: AEmacron
Encoding: 482 482 28
Width: 935
GlyphClass: 2
Flags: HMW
HStem: 0 57<458 865 458 865> 227 57<234 397 234 397 205 397> 333 57<458 775 458 775> 627 57<458 845 458 458> 809 57<295 621 295 621>
VStem: 397 61<57 227 227 227 284 333 390 623 623 623>
LayerCount: 3
Fore
SplineSet
397 623 m 1
 386 587 l 2
 381 571 373 552 362 531 c 2
 234 284 l 1
 397 284 l 1
 397 623 l 1
845 627 m 1
 458 627 l 1
 458 390 l 1
 775 390 l 1
 775 333 l 1
 458 333 l 1
 458 57 l 1
 865 57 l 1
 865 0 l 1
 397 0 l 1
 397 227 l 1
 205 227 l 1
 88 0 l 1
 15 0 l 1
 374 684 l 1
 845 684 l 1
 845 627 l 1
621 809 m 1
 295 809 l 1
 295 866 l 1
 621 866 l 1
 621 809 l 1
EndSplineSet
Position2: "'cpsp' Capital Spacing lookup 0 subtable" dx=5 dy=0 dh=10 dv=0
EndChar

StartChar: B
Encoding: 66 66 29
Width: 645
GlyphClass: 2
Flags: HMW
HStem: -10 55<322 346.5> -9 57.5 -5 21G<192 192> 1 21G<139 139> 335 55<251 339 339 346 251 339> 639 56<118 120 120 139 200 340 340 354 200 200>
VStem: 15 56<590 597.5 590 599> 139 61<50 639 50 639 50 639> 482 60<495.5 528 495 532.5> 514 59<172 198.5>
LayerCount: 3
Fore
SplineSet
200 639 m 1
 200 50 l 1
 265 47 l 2
 287 46 295 45 317 45 c 0
 397 45 438 58 468 83 c 0
 500 110 514 147 514 189 c 0
 514 208 511 227 502 247 c 0
 494 264 483 279 466 294 c 0
 455 304 438 316 414 324 c 0
 391 332 369 335 346 335 c 2
 251 335 l 1
 251 390 l 1
 339 390 l 2
 381 390 418 402 443 423 c 0
 469 445 482 476 482 515 c 0
 482 550 471 583 448 604 c 0
 426 624 391 637 354 639 c 2
 200 639 l 1
118 695 m 2
 340 695 l 2
 369 695 396 691 422 682 c 0
 448 673 465 663 486 644 c 0
 507 625 517 610 527 588 c 0
 537 566 542 542 542 514 c 0
 542 476 533 453 522 434 c 0
 508 410 490 393 466 379 c 0
 461 376 458 375 451 373 c 2
 436 368 l 1
 444 365 449 365 452 364 c 2
 468 358 l 1
 504 339 528 314 545 287 c 0
 565 255 573 221 573 186 c 0
 573 158 568 131 557 106 c 0
 547 83 530 60 511 44 c 0
 490 26 465 13 438 4 c 0
 405 -7 370 -10 323 -10 c 0
 321 -10 283 -10 255 -9 c 0
 223 -8 212 -7 192 -5 c 2
 139 1 l 1
 139 639 l 1
 120 639 l 2
 107 639 95 634 86 625 c 0
 77 616 71 605 71 590 c 1
 15 590 l 1
 15 608 19 620 23 630 c 0
 28 642 34 652 45 663 c 0
 56 674 63 680 79 687 c 0
 89 691 101 695 118 695 c 2
EndSplineSet
Substitution2: "'ss02' Style Set 2 lookup 13 subtable" B.ss02
Substitution2: "'ss01' Style Set 1 lookup 12 subtable" B.ss01
Substitution2: "'salt' Stylistic Alternatives lookup 11 subtable" B.ss01
AlternateSubs2: "'aalt' Access All Alternates lookup 1 subtable" B.ss01 B.ss02
Position2: "'cpsp' Capital Spacing lookup 0 subtable" dx=5 dy=0 dh=10 dv=0
EndChar

StartChar: B.ss01
Encoding: 1114114 -1 30
Width: 645
GlyphClass: 2
Flags: HMW
HStem: -10 55<325 358> -5 21G<192 192> 1 21G<139 139> 335 55<251 339 339 346 251 339> 639 56<118 120 120 340 340 354>
VStem: 15 56<581 596.5 581 597> 139 61<50 592 50 592 50 592> 482 60<499 528.5 499 534> 514 59<172 201>
LayerCount: 3
Fore
SplineSet
118 695 m 2
 340 695 l 2
 370 695 397 691 422 682 c 0
 447 673 468 661 486 645 c 0
 503 629 517 610 527 588 c 0
 537 566 542 542 542 515 c 0
 542 483 535 456 522 433 c 0
 509 411 490 393 466 379 c 0
 461 376 458 375 451 373 c 2
 436 368 l 2
 439 367 445 365 452 363 c 0
 459 362 465 360 468 358 c 0
 501 341 526 317 545 287 c 0
 564 257 573 224 573 187 c 0
 573 157 568 130 557 106 c 0
 546 82 531 61 511 44 c 0
 491 27 467 13 438 4 c 0
 409 -5 376 -10 340 -10 c 0
 308 -10 280 -10 255 -9 c 0
 231 -8 210 -7 192 -5 c 2
 139 1 l 1
 139 592 l 1
 200 592 l 1
 200 50 l 1
 265 47 l 2
 289 46 313 45 337 45 c 0
 394 45 437 58 468 83 c 0
 499 108 514 144 514 191 c 0
 514 211 510 230 502 248 c 0
 493 265 482 281 467 294 c 0
 452 307 435 317 414 324 c 0
 393 331 371 335 346 335 c 2
 251 335 l 1
 251 390 l 1
 339 390 l 2
 381 390 415 401 442 423 c 0
 469 444 482 475 482 515 c 0
 482 553 471 583 448 604 c 0
 425 625 394 636 354 639 c 2
 120 639 l 2
 107 639 95 634 86 625 c 0
 76 615 71 603 71 590 c 0
 71 572 79 558 94 548 c 1
 65 500 l 1
 50 509 38 522 29 538 c 0
 20 554 15 571 15 590 c 0
 15 604 18 617 23 630 c 0
 28 643 36 654 45 664 c 0
 54 673 65 681 78 687 c 0
 91 692 104 695 118 695 c 2
EndSplineSet
Position2: "'cpsp' Capital Spacing lookup 0 subtable" dx=5 dy=0 dh=10 dv=0
EndChar

StartChar: B.ss02
Encoding: 1114115 -1 31
Width: 560
GlyphClass: 2
Flags: HMW
HStem: -10 55<240 273> -5 21G<107 107> 1 21G<54 54> 335 55<115 254 254 261 115 254> 639 56<54 255 115 255 255 269 115 115>
VStem: 54 61<50 50 50 335 390 639> 397 60<499 528.5 499 534> 429 59<172 201>
LayerCount: 3
Fore
SplineSet
115 50 m 1
 180 47 l 2
 204 46 228 45 252 45 c 0
 309 45 352 58 383 83 c 0
 414 108 429 144 429 191 c 0
 429 211 425 230 417 248 c 0
 408 265 397 281 382 294 c 0
 367 307 350 317 329 324 c 0
 308 331 286 335 261 335 c 2
 115 335 l 1
 115 50 l 1
115 639 m 1
 115 390 l 1
 254 390 l 2
 296 390 330 401 357 423 c 0
 384 444 397 475 397 515 c 0
 397 553 386 583 363 604 c 0
 340 625 309 636 269 639 c 2
 115 639 l 1
366 373 m 2
 351 368 l 2
 354 367 360 365 367 364 c 0
 374 362 380 360 383 358 c 0
 416 341 441 317 460 287 c 0
 479 257 488 224 488 187 c 0
 488 157 483 130 472 106 c 0
 461 82 446 61 426 44 c 0
 406 27 382 13 353 4 c 0
 324 -5 291 -10 255 -10 c 0
 223 -10 195 -10 170 -9 c 0
 146 -8 125 -7 107 -5 c 2
 54 1 l 1
 54 639 l 1
 54 652 l 1
 54 695 l 1
 255 695 l 2
 285 695 312 691 337 682 c 0
 362 673 383 661 401 645 c 0
 418 629 432 610 442 588 c 0
 452 566 457 542 457 515 c 0
 457 483 450 456 437 434 c 0
 424 411 405 393 381 379 c 0
 376 376 373 375 366 373 c 2
EndSplineSet
Position2: "'cpsp' Capital Spacing lookup 0 subtable" dx=5 dy=0 dh=10 dv=0
EndChar

StartChar: C
Encoding: 67 67 32
Width: 740
GlyphClass: 2
Flags: HMW
HStem: -22 55<364 415 364 420> 467 54<532.5 541 532.5 550.5> 655 55<375.5 407.5>
VStem: 40 54<314 356.5 314 360.5> 571 54<555.5 568.5>
AnchorPoint: "Anchor-3" 371 713 basechar 0
AnchorPoint: "Anchor-2" 371 -21 basechar 0
AnchorPoint: "Anchor-1" 0 0 basechar 0
LayerCount: 3
Fore
SplineSet
625 155 m 1
 670 124 l 1
 627 61 602 45 551 18 c 0
 505 -7 450 -22 390 -22 c 0
 338 -22 290 -11 251 6 c 0
 210 24 171 52 140 84 c 0
 108 117 81 159 66 197 c 0
 50 237 40 286 40 336 c 0
 40 385 50 436 68 480 c 0
 85 522 111 563 145 599 c 0
 179 635 218 661 260 680 c 0
 302 699 347 710 396 710 c 0
 421 710 452 707 477 701 c 0
 498 696 529 685 551 672 c 0
 575 658 596 638 605 625 c 0
 615 611 625 588 625 560 c 0
 625 536 618 513 600 494 c 0
 585 478 564 467 537 467 c 0
 518 467 499 473 482 486 c 1
 516 529 l 1
 522 525 528 521 537 521 c 0
 545 521 554 524 561 532 c 0
 569 541 571 551 571 560 c 0
 571 577 563 593 554 602 c 0
 546 610 530 622 511 631 c 0
 496 638 475 645 455 649 c 0
 435 653 418 655 397 655 c 0
 354 655 317 646 280 629 c 0
 238 610 208 586 183 559 c 0
 153 527 133 496 118 459 c 0
 101 417 94 376 94 337 c 0
 94 291 104 249 116 219 c 0
 130 184 151 153 179 123 c 0
 202 99 231 75 273 57 c 0
 305 43 340 33 388 33 c 0
 442 33 489 46 527 67 c 0
 563 87 601 119 625 155 c 1
EndSplineSet
Substitution2: "'ss02' Style Set 2 lookup 13 subtable" C.ss02
Substitution2: "'aalt' Access All Alternates lookup 0 subtable" C.ss02
Position2: "'cpsp' Capital Spacing lookup 0 subtable" dx=5 dy=0 dh=10 dv=0
EndChar

StartChar: C.ss02
Encoding: 1114116 -1 33
Width: 740
GlyphClass: 2
Flags: HMW
HStem: -22 55<364 415 364 420> 655 55<375.5 407.5>
VStem: 40 54<314 356.5 314 360.5> 571 54<560 568.5>
AnchorPoint: "Anchor-3" 371 713 basechar 0
AnchorPoint: "Anchor-2" 371 -21 basechar 0
AnchorPoint: "Anchor-1" 0 0 basechar 0
LayerCount: 3
Fore
SplineSet
625 155 m 1
 670 124 l 1
 627 61 602 45 551 18 c 0
 505 -7 450 -22 390 -22 c 0
 338 -22 290 -11 251 6 c 0
 210 24 171 52 140 84 c 0
 108 117 81 159 66 197 c 0
 50 237 40 286 40 336 c 0
 40 385 50 436 68 480 c 0
 85 522 111 563 145 599 c 0
 179 635 218 661 260 680 c 0
 302 699 347 710 396 710 c 0
 421 710 452 707 477 701 c 0
 498 696 529 685 551 672 c 0
 575 658 596 638 605 625 c 0
 615 611 625 588 625 560 c 1
 571 560 l 1
 571 577 563 593 554 602 c 0
 546 610 530 622 511 631 c 0
 496 638 475 645 455 649 c 0
 435 653 418 655 397 655 c 0
 354 655 317 646 280 629 c 0
 238 610 208 586 183 559 c 0
 153 527 133 496 118 459 c 0
 101 417 94 376 94 337 c 0
 94 291 104 249 116 219 c 0
 130 184 151 153 179 123 c 0
 202 99 231 75 273 57 c 0
 305 43 340 33 388 33 c 0
 442 33 489 46 527 67 c 0
 563 87 601 119 625 155 c 1
EndSplineSet
Position2: "'cpsp' Capital Spacing lookup 0 subtable" dx=5 dy=0 dh=10 dv=0
EndChar

StartChar: Cacute
Encoding: 262 262 34
Width: 740
GlyphClass: 2
Flags: HMW
HStem: -22 55<364 415 364 420> 467 54<532.5 541 532.5 550.5> 655 55<375.5 407.5> 794 20G<343 343>
VStem: 40 54<314 356.5 314 360.5> 571 54<555.5 568.5>
LayerCount: 3
Fore
SplineSet
625 155 m 1
 670 124 l 1
 627 61 602 45 551 18 c 0
 505 -7 450 -22 390 -22 c 0
 338 -22 290 -11 251 6 c 0
 210 24 171 52 140 84 c 0
 108 117 81 159 66 197 c 0
 50 237 40 286 40 336 c 0
 40 385 50 436 68 480 c 0
 85 522 111 563 145 599 c 0
 179 635 218 661 260 680 c 0
 302 699 347 710 396 710 c 0
 421 710 452 707 477 701 c 0
 498 696 529 685 551 672 c 0
 575 658 596 638 605 625 c 0
 615 611 625 588 625 560 c 0
 625 536 618 513 600 494 c 0
 585 478 564 467 537 467 c 0
 518 467 499 473 482 486 c 1
 516 529 l 1
 522 525 528 521 537 521 c 0
 545 521 554 524 561 532 c 0
 569 541 571 551 571 560 c 0
 571 577 563 593 554 602 c 0
 546 610 530 622 511 631 c 0
 496 638 475 645 455 649 c 0
 435 653 418 655 397 655 c 0
 354 655 317 646 280 629 c 0
 238 610 208 586 183 559 c 0
 153 527 133 496 118 459 c 0
 101 417 94 376 94 337 c 0
 94 291 104 249 116 219 c 0
 130 184 151 153 179 123 c 0
 202 99 231 75 273 57 c 0
 305 43 340 33 388 33 c 0
 442 33 489 46 527 67 c 0
 563 87 601 119 625 155 c 1
537 890 m 1
 365 780 l 1
 343 814 l 1
 501 939 l 1
 537 890 l 1
EndSplineSet
Position2: "'cpsp' Capital Spacing lookup 0 subtable" dx=5 dy=0 dh=10 dv=0
EndChar

StartChar: Ccaron
Encoding: 268 268 35
Width: 740
GlyphClass: 2
Flags: HMW
HStem: -22 55<364 415 364 420> 467 54<532.5 541 532.5 550.5> 655 55<375.5 407.5> 808 142<223 395 223 346>
VStem: 40 54<314 356.5 314 360.5> 571 54<555.5 568.5>
LayerCount: 3
Fore
SplineSet
625 155 m 1
 670 124 l 1
 627 61 602 45 551 18 c 0
 505 -7 450 -22 390 -22 c 0
 338 -22 290 -11 251 6 c 0
 210 24 171 52 140 84 c 0
 108 117 81 159 66 197 c 0
 50 237 40 286 40 336 c 0
 40 385 50 436 68 480 c 0
 85 522 111 563 145 599 c 0
 179 635 218 661 260 680 c 0
 302 699 347 710 396 710 c 0
 421 710 452 707 477 701 c 0
 498 696 529 685 551 672 c 0
 575 658 596 638 605 625 c 0
 615 611 625 588 625 560 c 0
 625 536 618 513 600 494 c 0
 585 478 564 467 537 467 c 0
 518 467 499 473 482 486 c 1
 516 529 l 1
 522 525 528 521 537 521 c 0
 545 521 554 524 561 532 c 0
 569 541 571 551 571 560 c 0
 571 577 563 593 554 602 c 0
 546 610 530 622 511 631 c 0
 496 638 475 645 455 649 c 0
 435 653 418 655 397 655 c 0
 354 655 317 646 280 629 c 0
 238 610 208 586 183 559 c 0
 153 527 133 496 118 459 c 0
 101 417 94 376 94 337 c 0
 94 291 104 249 116 219 c 0
 130 184 151 153 179 123 c 0
 202 99 231 75 273 57 c 0
 305 43 340 33 388 33 c 0
 442 33 489 46 527 67 c 0
 563 87 601 119 625 155 c 1
395 808 m 1
 346 808 l 1
 223 950 l 1
 290 950 l 1
 371 861 l 1
 451 950 l 1
 519 950 l 1
 395 808 l 1
EndSplineSet
Position2: "'cpsp' Capital Spacing lookup 0 subtable" dx=5 dy=0 dh=10 dv=0
EndChar

StartChar: Ccedilla
Encoding: 199 199 36
Width: 740
GlyphClass: 2
Flags: HMW
HStem: -263 53<361 367.5> -116 96<340 352 340 361 330 352> -22 55<401 401> 467 54<532.5 541 532.5 550.5> 655 55<375.5 407.5>
VStem: 40 54<314 356.5 314 360.5> 409 53<-158 -147.5 -165.5 -143> 571 54<555.5 568.5>
LayerCount: 3
Fore
SplineSet
625 155 m 1
 670 124 l 1
 627 61 602 45 551 18 c 0
 508 -6 456 -20 401 -22 c 1
 391 -70 l 1
 414 -73 432 -81 445 -101 c 0
 455 -116 462 -137 462 -158 c 0
 462 -173 459 -186 455 -197 c 0
 449 -213 442 -222 433 -232 c 0
 424 -242 413 -250 401 -255 c 0
 387 -261 374 -263 361 -263 c 1
 361 -210 l 1
 375 -210 389 -205 398 -192 c 0
 407 -179 409 -162 409 -154 c 0
 409 -132 393 -116 361 -116 c 2
 330 -116 l 1
 340 -20 l 1
 352 -20 l 1
 314 -16 280 -7 251 6 c 0
 210 24 171 52 140 84 c 0
 108 117 81 159 66 197 c 0
 50 237 40 286 40 336 c 0
 40 385 50 436 68 480 c 0
 85 522 111 563 145 599 c 0
 179 635 218 661 260 680 c 0
 302 699 347 710 396 710 c 0
 421 710 452 707 477 701 c 0
 498 696 529 685 551 672 c 0
 575 658 596 638 605 625 c 0
 615 611 625 588 625 560 c 0
 625 536 618 513 600 494 c 0
 585 478 564 467 537 467 c 0
 518 467 499 473 482 486 c 1
 516 529 l 1
 522 525 528 521 537 521 c 0
 545 521 554 524 561 532 c 0
 569 541 571 551 571 560 c 0
 571 577 563 593 554 602 c 0
 546 610 530 622 511 631 c 0
 496 638 475 645 455 649 c 0
 435 653 418 655 397 655 c 0
 354 655 317 646 280 629 c 0
 238 610 208 586 183 559 c 0
 153 527 133 496 118 459 c 0
 101 417 94 376 94 337 c 0
 94 291 104 249 116 219 c 0
 130 184 151 153 179 123 c 0
 202 99 231 75 273 57 c 0
 305 43 340 33 388 33 c 0
 442 33 489 46 527 67 c 0
 563 87 601 119 625 155 c 1
EndSplineSet
Position2: "'cpsp' Capital Spacing lookup 0 subtable" dx=5 dy=0 dh=10 dv=0
EndChar

StartChar: Ccircumflex
Encoding: 264 264 37
Width: 740
GlyphClass: 2
Flags: HMW
HStem: -22 55<364 415 364 420> 467 54<532.5 541 532.5 550.5> 655 55<375.5 407.5> 818 142<223 395 223 395 346 519 346 451>
VStem: 40 54<314 356.5 314 360.5> 571 54<555.5 568.5>
LayerCount: 3
Fore
SplineSet
625 155 m 1
 670 124 l 1
 627 61 602 45 551 18 c 0
 505 -7 450 -22 390 -22 c 0
 338 -22 290 -11 251 6 c 0
 210 24 171 52 140 84 c 0
 108 117 81 159 66 197 c 0
 50 237 40 286 40 336 c 0
 40 385 50 436 68 480 c 0
 85 522 111 563 145 599 c 0
 179 635 218 661 260 680 c 0
 302 699 347 710 396 710 c 0
 421 710 452 707 477 701 c 0
 498 696 529 685 551 672 c 0
 575 658 596 638 605 625 c 0
 615 611 625 588 625 560 c 0
 625 536 618 513 600 494 c 0
 585 478 564 467 537 467 c 0
 518 467 499 473 482 486 c 1
 516 529 l 1
 522 525 528 521 537 521 c 0
 545 521 554 524 561 532 c 0
 569 541 571 551 571 560 c 0
 571 577 563 593 554 602 c 0
 546 610 530 622 511 631 c 0
 496 638 475 645 455 649 c 0
 435 653 418 655 397 655 c 0
 354 655 317 646 280 629 c 0
 238 610 208 586 183 559 c 0
 153 527 133 496 118 459 c 0
 101 417 94 376 94 337 c 0
 94 291 104 249 116 219 c 0
 130 184 151 153 179 123 c 0
 202 99 231 75 273 57 c 0
 305 43 340 33 388 33 c 0
 442 33 489 46 527 67 c 0
 563 87 601 119 625 155 c 1
519 818 m 1
 451 818 l 1
 371 907 l 1
 290 818 l 1
 223 818 l 1
 346 960 l 1
 395 960 l 1
 519 818 l 1
EndSplineSet
Position2: "'cpsp' Capital Spacing lookup 0 subtable" dx=5 dy=0 dh=10 dv=0
EndChar

StartChar: Cdotaccent
Encoding: 266 266 38
Width: 740
GlyphClass: 2
Flags: HMW
HStem: -22 55<364 415 364 420> 467 54<532.5 541 532.5 550.5> 655 55<375.5 407.5> 836 85<356.5 380>
VStem: 40 54<314 356.5 314 360.5> 326 85<866.5 890> 571 54<555.5 568.5>
LayerCount: 3
Fore
SplineSet
625 155 m 1
 670 124 l 1
 627 61 602 45 551 18 c 0
 505 -7 450 -22 390 -22 c 0
 338 -22 290 -11 251 6 c 0
 210 24 171 52 140 84 c 0
 108 117 81 159 66 197 c 0
 50 237 40 286 40 336 c 0
 40 385 50 436 68 480 c 0
 85 522 111 563 145 599 c 0
 179 635 218 661 260 680 c 0
 302 699 347 710 396 710 c 0
 421 710 452 707 477 701 c 0
 498 696 529 685 551 672 c 0
 575 658 596 638 605 625 c 0
 615 611 625 588 625 560 c 0
 625 536 618 513 600 494 c 0
 585 478 564 467 537 467 c 0
 518 467 499 473 482 486 c 1
 516 529 l 1
 522 525 528 521 537 521 c 0
 545 521 554 524 561 532 c 0
 569 541 571 551 571 560 c 0
 571 577 563 593 554 602 c 0
 546 610 530 622 511 631 c 0
 496 638 475 645 455 649 c 0
 435 653 418 655 397 655 c 0
 354 655 317 646 280 629 c 0
 238 610 208 586 183 559 c 0
 153 527 133 496 118 459 c 0
 101 417 94 376 94 337 c 0
 94 291 104 249 116 219 c 0
 130 184 151 153 179 123 c 0
 202 99 231 75 273 57 c 0
 305 43 340 33 388 33 c 0
 442 33 489 46 527 67 c 0
 563 87 601 119 625 155 c 1
368 921 m 0
 392 921 411 902 411 878 c 0
 411 855 392 836 368 836 c 0
 345 836 326 855 326 878 c 0
 326 902 345 921 368 921 c 0
EndSplineSet
Position2: "'cpsp' Capital Spacing lookup 0 subtable" dx=5 dy=0 dh=10 dv=0
EndChar

StartChar: D
Encoding: 68 68 39
Width: 805
GlyphClass: 2
Flags: HMW
AnchorPoint: "Anchor-3" 403 684 basechar 0
AnchorPoint: "Anchor-2" 0 0 basechar 0
AnchorPoint: "Anchor-1" 0 0 basechar 0
LayerCount: 3
Fore
SplineSet
200 634 m 1
 200 50 l 1
 234 48 251.25 47.5 260.75 47.5 c 0
 270.25 47.5 272 48 275 48 c 0
 283 48 301 45 355 45 c 0
 432 45 471 51 507 66 c 0
 543 81 571 102 597 129 c 0
 618 151 639 179 654 221 c 0
 667 257 674 297 674 343 c 0
 674 386 668 422 655 458 c 0
 641 497 623 526 602 549 c 0
 579 574 547 596 518 609 c 0
 491 621 451 632 407 634 c 2
 200 634 l 1
118 690 m 2
 417 690 l 1
 470 685 508 675 549 655 c 0
 588 636 619 614 649 580 c 0
 675 551 696 519 712 474 c 0
 726 435 734 391 734 342 c 0
 734 297 727 249 710 203 c 0
 694 160 671 124 640 92 c 0
 611 62 575 35 531 16 c 0
 486 -3 447 -10 334 -10 c 0
 291 -10 302 -9 261 -8 c 0
 193 -6 203 -6 186 -5 c 2
 159 -3 l 1
 139 0 l 1
 139 634 l 1
 114 634 l 2
 101 632 92 627 83 618 c 0
 73 607 70 597 70 585 c 1
 14 585 l 1
 14 599 16 611 22 626 c 0
 26 636 32 647 45 659 c 0
 53 667 64 676 79 682 c 0
 89 686 101 690 118 690 c 2
EndSplineSet
Substitution2: "'ss02' Style Set 2 lookup 13 subtable" D.ss02
Substitution2: "'ss01' Style Set 1 lookup 12 subtable" D.ss01
Substitution2: "'salt' Stylistic Alternatives lookup 11 subtable" D.ss01
AlternateSubs2: "'aalt' Access All Alternates lookup 1 subtable" D.ss01 D.ss02
Position2: "'cpsp' Capital Spacing lookup 0 subtable" dx=5 dy=0 dh=10 dv=0
EndChar

StartChar: D.ss01
Encoding: 1114117 -1 40
Width: 805
GlyphClass: 2
Flags: HMW
HStem: -10 55<365 409 365 413.5> -5 51 0 21G<139 139> 634 56<118 407 114 417>
VStem: 14 56<576 591.5 576 592.5> 139 61<50 575 50 575 50 575> 674 60<320 363>
AnchorPoint: "Anchor-3" 403 0 basechar 0
AnchorPoint: "Anchor-2" 0 0 basechar 0
AnchorPoint: "Anchor-1" 0 0 basechar 0
LayerCount: 3
Fore
SplineSet
118 690 m 2
 417 690 l 1
 466 686 509 674 548 655 c 0
 587 636 621 612 648 581 c 0
 676 550 697 515 712 474 c 0
 727 433 734 389 734 342 c 0
 734 292 726 245 709 202 c 0
 693 159 670 122 640 91 c 0
 610 60 573 35 530 17 c 0
 487 -1 440 -10 387 -10 c 0
 335 -10 293 -10 261 -9 c 0
 229 -8 204 -6 186 -5 c 2
 158 -3 l 1
 139 0 l 1
 139 575 l 1
 200 575 l 1
 200 50 l 1
 221 49 246 47 276 46 c 0
 306 45 343 45 387 45 c 0
 431 45 471 52 506 66 c 0
 541 81 571 101 596 127 c 0
 621 154 641 185 654 221 c 0
 667 258 674 298 674 342 c 0
 674 384 668 422 655 457 c 0
 643 492 625 523 602 548 c 0
 579 574 550 594 517 609 c 0
 484 624 448 632 407 634 c 2
 114 634 l 2
 101 632 91 626 82 617 c 0
 74 608 70 598 70 585 c 0
 70 567 78 553 94 544 c 1
 65 496 l 1
 49 505 36 518 27 534 c 0
 18 550 14 567 14 585 c 0
 14 600 17 613 22 626 c 0
 27 639 35 650 44 659 c 0
 54 668 65 676 78 682 c 0
 91 687 104 690 118 690 c 2
EndSplineSet
Position2: "'cpsp' Capital Spacing lookup 0 subtable" dx=5 dy=0 dh=10 dv=0
EndChar

StartChar: D.ss02
Encoding: 1114118 -1 41
Width: 721
GlyphClass: 2
Flags: HMW
HStem: -10 55<281 325 281 329.5> -9 57.5 -5 53.5 0 21G<55 55> 634 55<54 55 54 333 116 116 116 323>
VStem: 55 61<50 50 50 634> 590 60<320 363>
AnchorPoint: "Anchor-3" 319 0 basechar 0
AnchorPoint: "Anchor-2" 0 0 basechar 0
AnchorPoint: "Anchor-1" 0 0 basechar 0
LayerCount: 3
Fore
SplineSet
116 50 m 1
 192 47 l 2
 222 46 259 45 303 45 c 0
 347 45 387 52 422 67 c 0
 457 81 488 101 513 128 c 0
 538 154 557 185 570 222 c 0
 583 258 590 298 590 342 c 0
 590 384 584 423 572 458 c 0
 559 493 541 523 518 549 c 0
 495 574 467 594 434 609 c 0
 401 624 364 632 323 634 c 2
 116 634 l 1
 116 50 l 1
54 689 m 1
 333 689 l 2
 382 686 426 675 465 656 c 0
 504 637 537 612 565 581 c 0
 592 550 613 515 628 474 c 0
 643 433 650 389 650 342 c 0
 650 292 642 246 626 203 c 0
 609 160 586 122 556 91 c 0
 526 60 490 35 447 17 c 0
 404 -1 356 -10 303 -10 c 0
 251 -10 209 -10 177 -9 c 0
 145 -8 120 -6 102 -5 c 2
 75 -3 l 1
 55 0 l 1
 55 634 l 1
 54 634 l 1
 54 689 l 1
EndSplineSet
Position2: "'cpsp' Capital Spacing lookup 0 subtable" dx=5 dy=0 dh=10 dv=0
EndChar

StartChar: DZ
Encoding: 497 497 42
Width: 1384
GlyphClass: 2
Flags: HMW
HStem: -14 53<1150 1170.5 1150 1176> -10 55<328 390.5> -8 21G -3 21G<159 159> 0 21G<139 139> 628 53<877 1190 877 1283> 634 56<118 139 114 417 200 407 200 200>
VStem: 14 56<585 591 585 592> 139 61<50 634 50 634 50 634> 674 60<320 364.5>
LayerCount: 3
Fore
SplineSet
200 634 m 1
 200 50 l 1
 234 48 251.25 47.5 260.75 47.5 c 0
 270.25 47.5 272 48 275 48 c 0
 283 48 301 45 355 45 c 0
 432 45 471 51 507 66 c 0
 543 81 571 102 597 129 c 0
 618 151 639 179 654 221 c 0
 667 257 674 297 674 343 c 0
 674 386 668 422 655 458 c 0
 641 497 623 526 602 549 c 0
 579 574 547 596 518 609 c 0
 491 621 451 632 407 634 c 2
 200 634 l 1
930 90 m 1
 964 84 l 2
 974 82 989 79 1001 75 c 0
 1038 64 1059 58 1089 50 c 0
 1116 43 1138 39 1162 39 c 0
 1179 39 1194 41 1210 47 c 0
 1223 52 1236 59 1246 65 c 0
 1255 70 1262 75 1270 83 c 2
 1279 91 l 1
 1317 54 l 1
 1305 42 l 2
 1297 35 1287 27 1273 19 c 0
 1260 11 1243 2 1225 -4 c 0
 1205 -11 1189 -14 1163 -14 c 0
 1132 -14 1107 -10 1075 -2 c 0
 1046 5 1014 15 986 24 c 0
 945 37 931 41 903 46 c 1
 867 -15 l 1
 822 12 l 1
 1190 628 l 1
 877 628 l 1
 877 681 l 1
 1283 681 l 1
 930 90 l 1
118 690 m 2
 417 690 l 1
 470 685 508 675 549 655 c 0
 588 636 619 614 649 580 c 0
 675 551 696 519 712 474 c 0
 726 435 734 391 734 342 c 0
 734 297 727 249 710 203 c 0
 694 160 671 124 640 92 c 0
 611 62 575 35 531 16 c 0
 486 -3 447 -10 334 -10 c 0
 291 -10 302 -9 261 -8 c 0
 193 -6 203 -6 186 -5 c 2
 159 -3 l 1
 139 0 l 1
 139 634 l 1
 114 634 l 2
 101 632 92 627 83 618 c 0
 73 607 70 597 70 585 c 1
 14 585 l 1
 14 599 16 611 22 626 c 0
 26 636 32 647 45 659 c 0
 53 667 64 676 79 682 c 0
 89 686 101 690 118 690 c 2
EndSplineSet
Position2: "'cpsp' Capital Spacing lookup 0 subtable" dx=5 dy=0 dh=10 dv=0
EndChar

StartChar: DZcaron
Encoding: 452 452 43
Width: 1384
GlyphClass: 2
Flags: HMW
HStem: -14 53<1150 1170.5 1150 1176> -10 55<328 390.5> -8 21G -3 21G<159 159> 0 21G<139 139> 628 53<877 1190 877 1283> 634 56<118 139 114 417 200 407 200 200> 778 142<942 1114 942 1065>
VStem: 14 56<585 591 585 592> 139 61<50 634 50 634 50 634> 674 60<320 364.5>
LayerCount: 3
Fore
SplineSet
200 634 m 1
 200 50 l 1
 234 48 251.25 47.5 260.75 47.5 c 0
 270.25 47.5 272 48 275 48 c 0
 283 48 301 45 355 45 c 0
 432 45 471 51 507 66 c 0
 543 81 571 102 597 129 c 0
 618 151 639 179 654 221 c 0
 667 257 674 297 674 343 c 0
 674 386 668 422 655 458 c 0
 641 497 623 526 602 549 c 0
 579 574 547 596 518 609 c 0
 491 621 451 632 407 634 c 2
 200 634 l 1
930 90 m 1
 964 84 l 2
 974 82 989 79 1001 75 c 0
 1038 64 1059 58 1089 50 c 0
 1116 43 1138 39 1162 39 c 0
 1179 39 1194 41 1210 47 c 0
 1223 52 1236 59 1246 65 c 0
 1255 70 1262 75 1270 83 c 2
 1279 91 l 1
 1317 54 l 1
 1305 42 l 2
 1297 35 1287 27 1273 19 c 0
 1260 11 1243 2 1225 -4 c 0
 1205 -11 1189 -14 1163 -14 c 0
 1132 -14 1107 -10 1075 -2 c 0
 1046 5 1014 15 986 24 c 0
 945 37 931 41 903 46 c 1
 867 -15 l 1
 822 12 l 1
 1190 628 l 1
 877 628 l 1
 877 681 l 1
 1283 681 l 1
 930 90 l 1
118 690 m 2
 417 690 l 1
 470 685 508 675 549 655 c 0
 588 636 619 614 649 580 c 0
 675 551 696 519 712 474 c 0
 726 435 734 391 734 342 c 0
 734 297 727 249 710 203 c 0
 694 160 671 124 640 92 c 0
 611 62 575 35 531 16 c 0
 486 -3 447 -10 334 -10 c 0
 291 -10 302 -9 261 -8 c 0
 193 -6 203 -6 186 -5 c 2
 159 -3 l 1
 139 0 l 1
 139 634 l 1
 114 634 l 2
 101 632 92 627 83 618 c 0
 73 607 70 597 70 585 c 1
 14 585 l 1
 14 599 16 611 22 626 c 0
 26 636 32 647 45 659 c 0
 53 667 64 676 79 682 c 0
 89 686 101 690 118 690 c 2
1114 778 m 1
 1065 778 l 1
 942 920 l 1
 1009 920 l 1
 1090 831 l 1
 1170 920 l 1
 1238 920 l 1
 1114 778 l 1
EndSplineSet
Position2: "'cpsp' Capital Spacing lookup 0 subtable" dx=5 dy=0 dh=10 dv=0
EndChar

StartChar: Eth
Encoding: 208 208 44
Width: 805
GlyphClass: 2
Flags: HMW
HStem: -10 55<328 390.5> -3 21G<159 159> 0 21G<139 139> 307 57<54 139 54 139 200 351> 634 55<118 139 114 417 200 200 200 407>
VStem: 14 56<585 591 585 592> 139 61<50 307 50 307 50 307 364 634> 674 60<320 364.5>
LayerCount: 3
Fore
SplineSet
200 307 m 1
 200 50 l 1
 234 48 251.25 47.5 260.75 47.5 c 0
 270.25 47.5 272 48 275 48 c 0
 283 48 301 45 355 45 c 0
 432 45 471 51 507 66 c 0
 543 81 571 102 597 129 c 0
 618 151 639 179 654 221 c 0
 667 257 674 297 674 343 c 0
 674 386 668 422 655 458 c 0
 641 497 623 526 602 549 c 0
 579 574 547 596 518 609 c 0
 491 621 451 632 407 634 c 2
 200 634 l 1
 200 364 l 1
 351 364 l 1
 351 307 l 1
 200 307 l 1
118 689 m 2
 417 689 l 1
 470 685 508 675 549 655 c 0
 588 636 619 614 649 580 c 0
 675 551 696 519 712 474 c 0
 726 435 734 391 734 342 c 0
 734 297 727 249 710 203 c 0
 694 160 671 124 640 92 c 0
 611 62 575 35 531 16 c 0
 486 -3 447 -10 334 -10 c 0
 291 -10 302 -9 261 -8 c 0
 193 -6 203 -6 186 -5 c 2
 159 -3 l 1
 139 0 l 1
 139 307 l 1
 54 307 l 1
 54 364 l 1
 139 364 l 1
 139 634 l 1
 114 634 l 2
 101 632 92 627 83 618 c 0
 73 607 70 597 70 585 c 1
 14 585 l 1
 14 599 16 611 22 626 c 0
 26 636 32 647 45 659 c 0
 53 667 64 676 79 682 c 0
 87.94427191 685.577708764 98.48854382 689.155417528 112.779440988 689.155417528 c 0
 114.466252584 689.155417528 116.205262247 689.105572809 118 689 c 2
EndSplineSet
Position2: "'cpsp' Capital Spacing lookup 0 subtable" dx=5 dy=0 dh=10 dv=0
EndChar

StartChar: Dcaron
Encoding: 270 270 45
Width: 805
GlyphClass: 2
Flags: HMW
HStem: -10 55<328 390.5> -3 21G<159 159> 0 21G<139 139> 634 56<118 139 114 417 200 407 200 200> 779 142<255 427 255 378>
VStem: 14 56<585 591 585 592> 139 61<50 634 50 634 50 634> 674 60<320 364.5>
LayerCount: 3
Fore
SplineSet
200 634 m 1
 200 50 l 1
 234 48 251.25 47.5 260.75 47.5 c 0
 270.25 47.5 272 48 275 48 c 0
 283 48 301 45 355 45 c 0
 432 45 471 51 507 66 c 0
 543 81 571 102 597 129 c 0
 618 151 639 179 654 221 c 0
 667 257 674 297 674 343 c 0
 674 386 668 422 655 458 c 0
 641 497 623 526 602 549 c 0
 579 574 547 596 518 609 c 0
 491 621 451 632 407 634 c 2
 200 634 l 1
118 690 m 2
 417 690 l 1
 470 685 508 675 549 655 c 0
 588 636 619 614 649 580 c 0
 675 551 696 519 712 474 c 0
 726 435 734 391 734 342 c 0
 734 297 727 249 710 203 c 0
 694 160 671 124 640 92 c 0
 611 62 575 35 531 16 c 0
 486 -3 447 -10 334 -10 c 0
 291 -10 302 -9 261 -8 c 0
 193 -6 203 -6 186 -5 c 2
 159 -3 l 1
 139 0 l 1
 139 634 l 1
 114 634 l 2
 101 632 92 627 83 618 c 0
 73 607 70 597 70 585 c 1
 14 585 l 1
 14 599 16 611 22 626 c 0
 26 636 32 647 45 659 c 0
 53 667 64 676 79 682 c 0
 89 686 101 690 118 690 c 2
427 779 m 1
 378 779 l 1
 255 921 l 1
 322 921 l 1
 403 832 l 1
 483 921 l 1
 551 921 l 1
 427 779 l 1
EndSplineSet
Position2: "'cpsp' Capital Spacing lookup 0 subtable" dx=5 dy=0 dh=10 dv=0
EndChar

StartChar: Dcroat
Encoding: 272 272 46
Width: 805
GlyphClass: 2
Flags: HMW
HStem: -10 55<328 390.5> -3 21G<159 159> 0 21G<139 139> 634 56<118 139 114 417 200 407 200 200> 811 57<240 566 240 566>
VStem: 14 56<585 591 585 592> 139 61<50 634 50 634 50 634> 674 60<320 364.5>
LayerCount: 3
Fore
SplineSet
200 634 m 1
 200 50 l 1
 234 48 251.25 47.5 260.75 47.5 c 0
 270.25 47.5 272 48 275 48 c 0
 283 48 301 45 355 45 c 0
 432 45 471 51 507 66 c 0
 543 81 571 102 597 129 c 0
 618 151 639 179 654 221 c 0
 667 257 674 297 674 343 c 0
 674 386 668 422 655 458 c 0
 641 497 623 526 602 549 c 0
 579 574 547 596 518 609 c 0
 491 621 451 632 407 634 c 2
 200 634 l 1
118 690 m 2
 417 690 l 1
 470 685 508 675 549 655 c 0
 588 636 619 614 649 580 c 0
 675 551 696 519 712 474 c 0
 726 435 734 391 734 342 c 0
 734 297 727 249 710 203 c 0
 694 160 671 124 640 92 c 0
 611 62 575 35 531 16 c 0
 486 -3 447 -10 334 -10 c 0
 291 -10 302 -9 261 -8 c 0
 193 -6 203 -6 186 -5 c 2
 159 -3 l 1
 139 0 l 1
 139 634 l 1
 114 634 l 2
 101 632 92 627 83 618 c 0
 73 607 70 597 70 585 c 1
 14 585 l 1
 14 599 16 611 22 626 c 0
 26 636 32 647 45 659 c 0
 53 667 64 676 79 682 c 0
 89 686 101 690 118 690 c 2
566 811 m 1
 240 811 l 1
 240 868 l 1
 566 868 l 1
 566 811 l 1
EndSplineSet
Position2: "'cpsp' Capital Spacing lookup 0 subtable" dx=5 dy=0 dh=10 dv=0
EndChar

StartChar: Dz
Encoding: 498 498 47
Width: 1336
GlyphClass: 2
Flags: HMW
HStem: -13 52<1141.5 1166.5 1141.5 1172> -10 55<328 390.5> -5 21G<186 186> -3 21G<159 159> 0 21G<139 139> 446 52<877 1134 877 1228> 634 56<118 139 114 417 200 407 200 200>
VStem: 14 56<585 591 585 592> 139 61<50 634 50 634 50 634> 674 60<320 364.5>
LayerCount: 3
Fore
SplineSet
1228 485 m 1
 955 87 l 1
 1035 59 l 2
 1055 52 1074 47 1092 44 c 0
 1110 41 1130 39 1153 39 c 0
 1180 39 1210 51 1243 74 c 1
 1268 30 l 1
 1210 -13 1191 -13 1153 -13 c 0
 1128 -13 1105 -11 1084 -7 c 0
 1063 -3 1042 2 1023 9 c 2
 924 41 l 1
 882 -20 l 1
 839 13 l 1
 1134 446 l 1
 877 446 l 1
 877 498 l 1
 1228 498 l 1
 1228 485 l 1
200 634 m 1
 200 50 l 1
 234 48 251.25 47.5 260.75 47.5 c 0
 270.25 47.5 272 48 275 48 c 0
 283 48 301 45 355 45 c 0
 432 45 471 51 507 66 c 0
 543 81 571 102 597 129 c 0
 618 151 639 179 654 221 c 0
 667 257 674 297 674 343 c 0
 674 386 668 422 655 458 c 0
 641 497 623 526 602 549 c 0
 579 574 547 596 518 609 c 0
 491 621 451 632 407 634 c 2
 200 634 l 1
118 690 m 2
 417 690 l 1
 470 685 508 675 549 655 c 0
 588 636 619 614 649 580 c 0
 675 551 696 519 712 474 c 0
 726 435 734 391 734 342 c 0
 734 297 727 249 710 203 c 0
 694 160 671 124 640 92 c 0
 611 62 575 35 531 16 c 0
 486 -3 447 -10 334 -10 c 0
 291 -10 302 -9 261 -8 c 0
 193 -6 203 -6 186 -5 c 2
 159 -3 l 1
 139 0 l 1
 139 634 l 1
 114 634 l 2
 101 632 92 627 83 618 c 0
 73 607 70 597 70 585 c 1
 14 585 l 1
 14 599 16 611 22 626 c 0
 26 636 32 647 45 659 c 0
 53 667 64 676 79 682 c 0
 89 686 101 690 118 690 c 2
EndSplineSet
Position2: "'cpsp' Capital Spacing lookup 0 subtable" dx=5 dy=0 dh=10 dv=0
EndChar

StartChar: Dzcaron
Encoding: 453 453 48
Width: 1336
GlyphClass: 2
Flags: HMW
HStem: -13 52<1141.5 1166.5 1141.5 1172> -10 55<328 390.5> -5 21G<186 186> -3 21G<159 159> 0 21G<139 139> 446 52<877 1134 877 1228> 592 142<923 1095 923 1046> 634 56<118 139 114 417 200 407 200 200>
VStem: 14 56<585 591 585 592> 139 61<50 634 50 634 50 634> 674 60<320 364.5>
LayerCount: 3
Fore
SplineSet
1228 485 m 1
 955 87 l 1
 1035 59 l 2
 1055 52 1074 47 1092 44 c 0
 1110 41 1130 39 1153 39 c 0
 1180 39 1210 51 1243 74 c 1
 1268 30 l 1
 1210 -13 1191 -13 1153 -13 c 0
 1128 -13 1105 -11 1084 -7 c 0
 1063 -3 1042 2 1023 9 c 2
 924 41 l 1
 882 -20 l 1
 839 13 l 1
 1134 446 l 1
 877 446 l 1
 877 498 l 1
 1228 498 l 1
 1228 485 l 1
200 634 m 1
 200 50 l 1
 234 48 251.25 47.5 260.75 47.5 c 0
 270.25 47.5 272 48 275 48 c 0
 283 48 301 45 355 45 c 0
 432 45 471 51 507 66 c 0
 543 81 571 102 597 129 c 0
 618 151 639 179 654 221 c 0
 667 257 674 297 674 343 c 0
 674 386 668 422 655 458 c 0
 641 497 623 526 602 549 c 0
 579 574 547 596 518 609 c 0
 491 621 451 632 407 634 c 2
 200 634 l 1
118 690 m 2
 417 690 l 1
 470 685 508 675 549 655 c 0
 588 636 619 614 649 580 c 0
 675 551 696 519 712 474 c 0
 726 435 734 391 734 342 c 0
 734 297 727 249 710 203 c 0
 694 160 671 124 640 92 c 0
 611 62 575 35 531 16 c 0
 486 -3 447 -10 334 -10 c 0
 291 -10 302 -9 261 -8 c 0
 193 -6 203 -6 186 -5 c 2
 159 -3 l 1
 139 0 l 1
 139 634 l 1
 114 634 l 2
 101 632 92 627 83 618 c 0
 73 607 70 597 70 585 c 1
 14 585 l 1
 14 599 16 611 22 626 c 0
 26 636 32 647 45 659 c 0
 53 667 64 676 79 682 c 0
 89 686 101 690 118 690 c 2
1095 592 m 1
 1046 592 l 1
 923 734 l 1
 990 734 l 1
 1071 645 l 1
 1151 734 l 1
 1219 734 l 1
 1095 592 l 1
EndSplineSet
Position2: "'cpsp' Capital Spacing lookup 0 subtable" dx=5 dy=0 dh=10 dv=0
EndChar

StartChar: E
Encoding: 69 69 49
Width: 648
GlyphClass: 2
Flags: HMW
HStem: 0 57<191 578 191 578> 333 57<191 458 191 458> 628 56<117 118 118 130 191 578 191 191>
VStem: 14 56<579 585.5 579 588> 130 61<57 333 390 628>
AnchorPoint: "Anchor-3" 349 684 basechar 0
AnchorPoint: "Anchor-2" 360 0 basechar 0
AnchorPoint: "Anchor-1" 583 10 basechar 0
LayerCount: 3
Fore
SplineSet
578 628 m 1
 191 628 l 1
 191 390 l 1
 458 390 l 1
 458 333 l 1
 191 333 l 1
 191 57 l 1
 578 57 l 1
 578 0 l 1
 130 0 l 1
 130 628 l 1
 118 628 l 2
 106 628 93 623 84 614 c 0
 76 606 70 592 70 579 c 1
 14 579 l 1
 14 597 18 609 22 619 c 0
 27 631 33 641 44 652 c 0
 54 662 62 669 78 676 c 0
 88 680 100 684 117 684 c 2
 578 684 l 1
 578 628 l 1
EndSplineSet
Substitution2: "'ss02' Style Set 2 lookup 13 subtable" E.ss02
Substitution2: "'ss01' Style Set 1 lookup 12 subtable" E.ss01
Substitution2: "'salt' Stylistic Alternatives lookup 11 subtable" E.ss01
AlternateSubs2: "'aalt' Access All Alternates lookup 1 subtable" E.ss01 E.ss02
Position2: "'cpsp' Capital Spacing lookup 0 subtable" dx=5 dy=0 dh=10 dv=0
EndChar

StartChar: E.ss01
Encoding: 1114119 -1 50
Width: 648
GlyphClass: 2
Flags: HMW
HStem: 0 57<191 578 191 578> 333 57<191 458 191 458> 628 56<117 118 118 578>
VStem: 14 56<569.5 585.5 569.5 586> 130 61<57 333 390 572>
AnchorPoint: "Anchor-3" 324 0 basechar 0
AnchorPoint: "Anchor-2" 324 0 basechar 0
AnchorPoint: "Anchor-1" 583 10 basechar 0
LayerCount: 3
Fore
SplineSet
191 390 m 1
 458 390 l 1
 458 333 l 1
 191 333 l 1
 191 57 l 1
 578 57 l 1
 578 0 l 1
 130 0 l 1
 130 572 l 1
 191 572 l 1
 191 390 l 1
578 628 m 1
 118 628 l 2
 105 628 93 623 84 614 c 0
 75 604 70 592 70 579 c 0
 70 560 78 546 93 537 c 1
 64 489 l 1
 48 498 36 511 27 527 c 0
 18 543 14 560 14 579 c 0
 14 593 17 606 22 619 c 0
 27 632 35 643 44 653 c 0
 53 662 64 670 77 676 c 0
 90 681 103 684 117 684 c 2
 578 684 l 1
 578 628 l 1
EndSplineSet
Position2: "'cpsp' Capital Spacing lookup 0 subtable" dx=5 dy=0 dh=10 dv=0
EndChar

StartChar: E.ss02
Encoding: 1114120 -1 51
Width: 592
GlyphClass: 2
Flags: HMW
HStem: 0 57<115 522 115 522> 333 57<115 432 115 432> 627 57<115 502 115 115>
VStem: 54 61<57 333 390 627>
AnchorPoint: "Anchor-3" 261 0 basechar 0
AnchorPoint: "Anchor-2" 261 0 basechar 0
AnchorPoint: "Anchor-1" 502 10 basechar 0
LayerCount: 3
Fore
SplineSet
502 627 m 1
 115 627 l 1
 115 390 l 1
 432 390 l 1
 432 333 l 1
 115 333 l 1
 115 57 l 1
 522 57 l 1
 522 0 l 1
 54 0 l 1
 54 684 l 1
 502 684 l 1
 502 627 l 1
EndSplineSet
Position2: "'cpsp' Capital Spacing lookup 0 subtable" dx=5 dy=0 dh=10 dv=0
EndChar

StartChar: Eacute
Encoding: 201 201 52
Width: 648
GlyphClass: 2
Flags: HMW
HStem: 0 57<191 578 191 578> 333 57<191 458 191 458> 628 56<117 118 118 130 191 578 191 191>
VStem: 14 56<579 585.5 579 588> 130 61<57 333 390 628>
LayerCount: 3
Fore
SplineSet
578 628 m 1
 191 628 l 1
 191 390 l 1
 458 390 l 1
 458 333 l 1
 191 333 l 1
 191 57 l 1
 578 57 l 1
 578 0 l 1
 130 0 l 1
 130 628 l 1
 118 628 l 2
 106 628 93 623 84 614 c 0
 76 606 70 592 70 579 c 1
 14 579 l 1
 14 597 18 609 22 619 c 0
 27 631 33 641 44 652 c 0
 54 662 62 669 78 676 c 0
 88 680 100 684 117 684 c 2
 578 684 l 1
 578 628 l 1
515 861 m 1
 343 751 l 1
 321 785 l 1
 479 910 l 1
 515 861 l 1
EndSplineSet
Position2: "'cpsp' Capital Spacing lookup 0 subtable" dx=5 dy=0 dh=10 dv=0
EndChar

StartChar: Ebreve
Encoding: 276 276 53
Width: 648
GlyphClass: 2
Flags: HMW
HStem: 0 57<191 578 191 578> 333 57<191 458 191 458> 628 56<117 118 118 130 191 578 191 191> 776 54<334 363 334 372>
VStem: 14 56<579 585.5 579 588> 130 61<57 333 390 628> 206 61<913 913> 429 61<913 913>
LayerCount: 3
Fore
SplineSet
578 628 m 1
 191 628 l 1
 191 390 l 1
 458 390 l 1
 458 333 l 1
 191 333 l 1
 191 57 l 1
 578 57 l 1
 578 0 l 1
 130 0 l 1
 130 628 l 1
 118 628 l 2
 106 628 93 623 84 614 c 0
 76 606 70 592 70 579 c 1
 14 579 l 1
 14 597 18 609 22 619 c 0
 27 631 33 641 44 652 c 0
 54 662 62 669 78 676 c 0
 88 680 100 684 117 684 c 2
 578 684 l 1
 578 628 l 1
429 913 m 1
 490 913 l 1
 489 873 477 840 454 815 c 0
 431 789 396 776 348 776 c 0
 301 776 266 789 243 815 c 0
 220 840 207 873 206 913 c 1
 267 913 l 1
 268 888 275 868 288 853 c 0
 300 838 320 830 348 830 c 0
 378 830 399 838 411 853 c 0
 422 868 428 888 429 913 c 1
EndSplineSet
Position2: "'cpsp' Capital Spacing lookup 0 subtable" dx=5 dy=0 dh=10 dv=0
EndChar

StartChar: Ecaron
Encoding: 282 282 54
Width: 648
GlyphClass: 2
Flags: HMW
HStem: 0 57<191 578 191 578> 333 57<191 458 191 458> 628 56<117 118 118 130 191 578 191 191> 779 142<201 373 201 324>
VStem: 14 56<579 585.5 579 588> 130 61<57 333 390 628>
LayerCount: 3
Fore
SplineSet
578 628 m 1
 191 628 l 1
 191 390 l 1
 458 390 l 1
 458 333 l 1
 191 333 l 1
 191 57 l 1
 578 57 l 1
 578 0 l 1
 130 0 l 1
 130 628 l 1
 118 628 l 2
 106 628 93 623 84 614 c 0
 76 606 70 592 70 579 c 1
 14 579 l 1
 14 597 18 609 22 619 c 0
 27 631 33 641 44 652 c 0
 54 662 62 669 78 676 c 0
 88 680 100 684 117 684 c 2
 578 684 l 1
 578 628 l 1
373 779 m 1
 324 779 l 1
 201 921 l 1
 268 921 l 1
 349 832 l 1
 429 921 l 1
 497 921 l 1
 373 779 l 1
EndSplineSet
Position2: "'cpsp' Capital Spacing lookup 0 subtable" dx=5 dy=0 dh=10 dv=0
EndChar

StartChar: uni0228
Encoding: 552 552 55
Width: 648
GlyphClass: 2
Flags: HMW
HStem: -242 53<350 356.5> -95 46<319 380> 0 57<191 329 390 578 390 390> 333 57<191 458 191 458> 628 56<117 118 118 130 191 578 191 191>
VStem: 14 56<579 585.5 579 588> 130 61<57 333 390 628> 398 53<-137 -126.5 -144.5 -122>
LayerCount: 3
Fore
SplineSet
191 628 m 1
 191 390 l 1
 458 390 l 1
 458 333 l 1
 191 333 l 1
 191 57 l 1
 578 57 l 1
 578 0 l 1
 390 0 l 1
 380 -49 l 1
 403 -52 421 -60 434 -80 c 0
 444 -95 451 -116 451 -137 c 0
 451 -152 448 -165 444 -176 c 0
 438 -192 431 -201 422 -211 c 0
 413 -221 402 -229 390 -234 c 0
 376 -240 363 -242 350 -242 c 1
 350 -189 l 1
 364 -189 378 -184 387 -171 c 0
 396 -158 398 -141 398 -133 c 0
 398 -111 382 -95 350 -95 c 2
 319 -95 l 1
 329 0 l 1
 130 0 l 1
 130 628 l 1
 118 628 l 2
 106 628 93 623 84 614 c 0
 76 606 70 592 70 579 c 1
 14 579 l 1
 14 597 18 609 22 619 c 0
 27 631 33 641 44 652 c 0
 54 662 62 669 78 676 c 0
 88 680 100 684 117 684 c 2
 578 684 l 1
 578 628 l 1
 191 628 l 1
EndSplineSet
Position2: "'cpsp' Capital Spacing lookup 0 subtable" dx=5 dy=0 dh=10 dv=0
EndChar

StartChar: Ecircumflex
Encoding: 202 202 56
Width: 648
GlyphClass: 2
Flags: HMW
HStem: 0 57<191 578 191 578> 333 57<191 458 191 458> 628 56<117 118 118 130 191 578 191 191> 789 142<201 373 201 373 324 497 324 429>
VStem: 14 56<579 585.5 579 588> 130 61<57 333 390 628>
LayerCount: 3
Fore
SplineSet
578 628 m 1
 191 628 l 1
 191 390 l 1
 458 390 l 1
 458 333 l 1
 191 333 l 1
 191 57 l 1
 578 57 l 1
 578 0 l 1
 130 0 l 1
 130 628 l 1
 118 628 l 2
 106 628 93 623 84 614 c 0
 76 606 70 592 70 579 c 1
 14 579 l 1
 14 597 18 609 22 619 c 0
 27 631 33 641 44 652 c 0
 54 662 62 669 78 676 c 0
 88 680 100 684 117 684 c 2
 578 684 l 1
 578 628 l 1
497 789 m 1
 429 789 l 1
 349 878 l 1
 268 789 l 1
 201 789 l 1
 324 931 l 1
 373 931 l 1
 497 789 l 1
EndSplineSet
Position2: "'cpsp' Capital Spacing lookup 0 subtable" dx=5 dy=0 dh=10 dv=0
EndChar

StartChar: Ecircumflexacute
Encoding: 7870 7870 57
Width: 648
GlyphClass: 2
Flags: HMW
HStem: 0 57<191 578 191 578> 333 57<191 458 191 458> 628 56<117 118 118 130 191 578 191 191> 789 142<176 348 176 348 299 472 299 404>
VStem: 14 56<579 585.5 579 588> 130 61<57 333 390 628>
LayerCount: 3
Fore
SplineSet
578 628 m 1
 191 628 l 1
 191 390 l 1
 458 390 l 1
 458 333 l 1
 191 333 l 1
 191 57 l 1
 578 57 l 1
 578 0 l 1
 130 0 l 1
 130 628 l 1
 118 628 l 2
 106 628 93 623 84 614 c 0
 76 606 70 592 70 579 c 1
 14 579 l 1
 14 597 18 609 22 619 c 0
 27 631 33 641 44 652 c 0
 54 662 62 669 78 676 c 0
 88 680 100 684 117 684 c 2
 578 684 l 1
 578 628 l 1
472 789 m 1
 404 789 l 1
 324 878 l 1
 243 789 l 1
 176 789 l 1
 299 931 l 1
 348 931 l 1
 472 789 l 1
490 1081 m 1
 318 971 l 1
 296 1005 l 1
 454 1130 l 1
 490 1081 l 1
EndSplineSet
Position2: "'cpsp' Capital Spacing lookup 0 subtable" dx=5 dy=0 dh=10 dv=0
EndChar

StartChar: Ecircumflexdotbelow
Encoding: 7878 7878 58
Width: 648
GlyphClass: 2
Flags: HMW
HStem: -184 71 0 57<191 578 191 578> 333 57<191 458 191 458> 628 56<117 118 118 130 191 578 191 191> 789 142<201 373 201 373 324 497 324 429>
VStem: 14 56<579 585.5 579 588> 130 61<57 333 390 628> 329 59<4.29497e+09 4.29497e+09 4.29497e+09 4.29497e+09>
LayerCount: 3
Fore
SplineSet
358 -113 m 0
 370 -113 380 -117 388 -125 c 0
 396 -133 400 -143 400 -155 c 0
 400 -166 396 -176 388 -184 c 0
 380 -192 370 -196 358 -196 c 0
 341 -196 337 -192 329 -184 c 0
 321 -176 317 -166 317 -155 c 0
 317 -143 321 -133 329 -125 c 0
 337 -117 347 -113 358 -113 c 0
578 628 m 1
 191 628 l 1
 191 390 l 1
 458 390 l 1
 458 333 l 1
 191 333 l 1
 191 57 l 1
 578 57 l 1
 578 0 l 1
 130 0 l 1
 130 628 l 1
 118 628 l 2
 106 628 93 623 84 614 c 0
 76 606 70 592 70 579 c 1
 14 579 l 1
 14 597 18 609 22 619 c 0
 27 631 33 641 44 652 c 0
 54 662 62 669 78 676 c 0
 88 680 100 684 117 684 c 2
 578 684 l 1
 578 628 l 1
497 789 m 1
 429 789 l 1
 349 878 l 1
 268 789 l 1
 201 789 l 1
 324 931 l 1
 373 931 l 1
 497 789 l 1
EndSplineSet
Position2: "'cpsp' Capital Spacing lookup 0 subtable" dx=5 dy=0 dh=10 dv=0
EndChar

StartChar: Ecircumflexgrave
Encoding: 7872 7872 59
Width: 648
GlyphClass: 2
Flags: HMW
HStem: 0 57<191 578 191 578> 333 57<191 458 191 458> 628 56<117 118 118 130 191 578 191 191> 789 142<176 348 176 348 299 472 299 404>
VStem: 14 56<579 585.5 579 588> 130 61<57 333 390 628>
LayerCount: 3
Fore
SplineSet
578 628 m 1
 191 628 l 1
 191 390 l 1
 458 390 l 1
 458 333 l 1
 191 333 l 1
 191 57 l 1
 578 57 l 1
 578 0 l 1
 130 0 l 1
 130 628 l 1
 118 628 l 2
 106 628 93 623 84 614 c 0
 76 606 70 592 70 579 c 1
 14 579 l 1
 14 597 18 609 22 619 c 0
 27 631 33 641 44 652 c 0
 54 662 62 669 78 676 c 0
 88 680 100 684 117 684 c 2
 578 684 l 1
 578 628 l 1
472 789 m 1
 404 789 l 1
 324 878 l 1
 243 789 l 1
 176 789 l 1
 299 931 l 1
 348 931 l 1
 472 789 l 1
357 1002 m 1
 335 968 l 1
 163 1078 l 1
 199 1127 l 1
 357 1002 l 1
EndSplineSet
Position2: "'cpsp' Capital Spacing lookup 0 subtable" dx=5 dy=0 dh=10 dv=0
EndChar

StartChar: Ecircumflextilde
Encoding: 7876 7876 60
Width: 648
GlyphClass: 2
Flags: HMW
HStem: 0 57<191 578 191 578> 333 57<191 458 191 458> 628 56<117 118 118 130 191 578 191 191> 789 142<176 348 176 348 299 472 299 404> 955 53<390 395> 990 53<244 252 244 245.5>
VStem: 14 56<579 585.5 579 588> 130 61<57 333 390 628>
LayerCount: 3
Fore
SplineSet
578 628 m 1
 191 628 l 1
 191 390 l 1
 458 390 l 1
 458 333 l 1
 191 333 l 1
 191 57 l 1
 578 57 l 1
 578 0 l 1
 130 0 l 1
 130 628 l 1
 118 628 l 2
 106 628 93 623 84 614 c 0
 76 606 70 592 70 579 c 1
 14 579 l 1
 14 597 18 609 22 619 c 0
 27 631 33 641 44 652 c 0
 54 662 62 669 78 676 c 0
 88 680 100 684 117 684 c 2
 578 684 l 1
 578 628 l 1
472 789 m 1
 404 789 l 1
 324 878 l 1
 243 789 l 1
 176 789 l 1
 299 931 l 1
 348 931 l 1
 472 789 l 1
180 957 m 1
 147 998 l 1
 164 1012 180 1022 195 1029 c 0
 210 1036 225 1041 240 1043 c 0
 245 1043 249 1043 254 1043 c 0
 264 1043 274 1042 285 1040 c 0
 300 1036 316 1031 333 1024 c 0
 347 1018 360 1014 371 1011 c 0
 379 1009 386 1008 394 1008 c 0
 397 1008 400 1008 403 1009 c 0
 413 1010 423 1013 434 1018 c 0
 444 1023 455 1031 467 1041 c 1
 501 1000 l 1
 469 973 438 959 408 956 c 2
 401 956 l 1
 395 955 l 2
 380 955 366 957 352 961 c 0
 338 965 325 970 313 975 c 0
 299 980 287 984 276 987 c 0
 267 989 260 990 252 990 c 0
 249 990 247 990 244 990 c 0
 234 989 224 985 214 980 c 0
 203 975 192 967 180 957 c 1
EndSplineSet
Position2: "'cpsp' Capital Spacing lookup 0 subtable" dx=5 dy=0 dh=10 dv=0
EndChar

StartChar: Edieresis
Encoding: 203 203 61
Width: 648
GlyphClass: 2
Flags: HMW
HStem: 0 57<191 578 191 578> 333 57<191 458 191 458> 628 56<117 118 118 130 191 578 191 191> 801 85<225.5 249 447.5 471>
VStem: 14 56<579 585.5 579 588> 130 61<57 333 390 628> 195 85<831.5 855> 417 85<831.5 855>
LayerCount: 3
Fore
SplineSet
191 628 m 1
 191 390 l 1
 458 390 l 1
 458 333 l 1
 191 333 l 1
 191 57 l 1
 578 57 l 1
 578 0 l 1
 130 0 l 1
 130 628 l 1
 118 628 l 2
 106 628 93 623 84 614 c 0
 76 606 70 592 70 579 c 1
 14 579 l 1
 14 597 18 609 22 619 c 0
 27 631 33 641 44 652 c 0
 54 662 62 669 78 676 c 0
 88 680 100 684 117 684 c 2
 578 684 l 1
 578 628 l 1
 191 628 l 1
459 801 m 0
 436 801 417 820 417 843 c 0
 417 867 436 886 459 886 c 0
 483 886 502 867 502 843 c 0
 502 820 483 801 459 801 c 0
237 801 m 0
 214 801 195 820 195 843 c 0
 195 867 214 886 237 886 c 0
 261 886 280 867 280 843 c 0
 280 820 261 801 237 801 c 0
EndSplineSet
Position2: "'cpsp' Capital Spacing lookup 0 subtable" dx=5 dy=0 dh=10 dv=0
EndChar

StartChar: Edotaccent
Encoding: 278 278 62
Width: 648
GlyphClass: 2
Flags: HMW
HStem: 0 57<191 578 191 578> 333 57<191 458 191 458> 628 56<117 118 118 130 191 578 191 191> 807 85<334.5 358>
VStem: 14 56<579 585.5 579 588> 130 61<57 333 390 628> 304 85<837.5 861>
LayerCount: 3
Fore
SplineSet
578 628 m 1
 191 628 l 1
 191 390 l 1
 458 390 l 1
 458 333 l 1
 191 333 l 1
 191 57 l 1
 578 57 l 1
 578 0 l 1
 130 0 l 1
 130 628 l 1
 118 628 l 2
 106 628 93 623 84 614 c 0
 76 606 70 592 70 579 c 1
 14 579 l 1
 14 597 18 609 22 619 c 0
 27 631 33 641 44 652 c 0
 54 662 62 669 78 676 c 0
 88 680 100 684 117 684 c 2
 578 684 l 1
 578 628 l 1
346 892 m 0
 370 892 389 873 389 849 c 0
 389 826 370 807 346 807 c 0
 323 807 304 826 304 849 c 0
 304 873 323 892 346 892 c 0
EndSplineSet
Position2: "'cpsp' Capital Spacing lookup 0 subtable" dx=5 dy=0 dh=10 dv=0
EndChar

StartChar: Edotbelow
Encoding: 7864 7864 63
Width: 648
GlyphClass: 2
Flags: HMW
HStem: -184 71 0 57<191 578 191 578> 333 57<191 458 191 458> 628 56<117 118 118 130 191 578 191 191>
VStem: 14 56<579 585.5 579 588> 130 61<57 333 390 628> 329 59<4.29497e+09 4.29497e+09 4.29497e+09 4.29497e+09>
LayerCount: 3
Fore
SplineSet
358 -113 m 0
 370 -113 380 -117 388 -125 c 0
 396 -133 400 -143 400 -155 c 0
 400 -166 396 -176 388 -184 c 0
 380 -192 370 -196 358 -196 c 0
 341 -196 337 -192 329 -184 c 0
 321 -176 317 -166 317 -155 c 0
 317 -143 321 -133 329 -125 c 0
 337 -117 347 -113 358 -113 c 0
578 628 m 1
 191 628 l 1
 191 390 l 1
 458 390 l 1
 458 333 l 1
 191 333 l 1
 191 57 l 1
 578 57 l 1
 578 0 l 1
 130 0 l 1
 130 628 l 1
 118 628 l 2
 106 628 93 623 84 614 c 0
 76 606 70 592 70 579 c 1
 14 579 l 1
 14 597 18 609 22 619 c 0
 27 631 33 641 44 652 c 0
 54 662 62 669 78 676 c 0
 88 680 100 684 117 684 c 2
 578 684 l 1
 578 628 l 1
EndSplineSet
Position2: "'cpsp' Capital Spacing lookup 0 subtable" dx=5 dy=0 dh=10 dv=0
EndChar

StartChar: Egrave
Encoding: 200 200 64
Width: 648
GlyphClass: 2
Flags: HMW
HStem: 0 57<191 578 191 578> 333 57<191 458 191 458> 628 56<117 118 118 130 191 578 191 191>
VStem: 14 56<579 585.5 579 588> 130 61<57 333 390 628>
LayerCount: 3
Fore
SplineSet
578 628 m 1
 191 628 l 1
 191 390 l 1
 458 390 l 1
 458 333 l 1
 191 333 l 1
 191 57 l 1
 578 57 l 1
 578 0 l 1
 130 0 l 1
 130 628 l 1
 118 628 l 2
 106 628 93 623 84 614 c 0
 76 606 70 592 70 579 c 1
 14 579 l 1
 14 597 18 609 22 619 c 0
 27 631 33 641 44 652 c 0
 54 662 62 669 78 676 c 0
 88 680 100 684 117 684 c 2
 578 684 l 1
 578 628 l 1
382 785 m 1
 360 751 l 1
 188 861 l 1
 224 910 l 1
 382 785 l 1
EndSplineSet
Position2: "'cpsp' Capital Spacing lookup 0 subtable" dx=5 dy=0 dh=10 dv=0
EndChar

StartChar: Emacron
Encoding: 274 274 65
Width: 648
GlyphClass: 2
Flags: HMW
HStem: 0 57<191 578 191 578> 333 57<191 458 191 458> 628 56<117 118 118 130 191 578 191 191> 811 57<186 512 186 512>
VStem: 14 56<579 585.5 579 588> 130 61<57 333 390 628>
LayerCount: 3
Fore
SplineSet
578 628 m 1
 191 628 l 1
 191 390 l 1
 458 390 l 1
 458 333 l 1
 191 333 l 1
 191 57 l 1
 578 57 l 1
 578 0 l 1
 130 0 l 1
 130 628 l 1
 118 628 l 2
 106 628 93 623 84 614 c 0
 76 606 70 592 70 579 c 1
 14 579 l 1
 14 597 18 609 22 619 c 0
 27 631 33 641 44 652 c 0
 54 662 62 669 78 676 c 0
 88 680 100 684 117 684 c 2
 578 684 l 1
 578 628 l 1
512 811 m 1
 186 811 l 1
 186 868 l 1
 512 868 l 1
 512 811 l 1
EndSplineSet
Position2: "'cpsp' Capital Spacing lookup 0 subtable" dx=5 dy=0 dh=10 dv=0
EndChar

StartChar: Eogonek
Encoding: 280 280 66
Width: 648
GlyphClass: 2
Flags: HMW
HStem: -195 53<522.5 547> 0 57<191 510 573 573 573 578> 333 57<191 458 191 458> 628 56<117 118 118 130 191 191 191 578>
VStem: 14 56<579 585.5 579 588> 130 61<57 333 390 628> 447 65
LayerCount: 3
Fore
SplineSet
598 -121 m 1
 623 -166 l 1
 611 -175 596 -182 580 -187 c 0
 564 -192 547 -195 533 -195 c 0
 512 -195 490 -189 471 -170 c 0
 455 -154 447 -133 447 -107 c 0
 447 -94 449 -80 455 -68 c 0
 457 -64 466 -47 474 -37 c 0
 481 -28 498 -11 500 -9 c 2
 510 0 l 1
 130 0 l 1
 130 628 l 1
 118 628 l 2
 106 628 93 623 84 614 c 0
 76 606 70 592 70 579 c 1
 14 579 l 1
 14 597 18 609 22 619 c 0
 27 631 33 641 44 652 c 0
 54 662 62 669 78 676 c 0
 88 680 100 684 117 684 c 2
 578 684 l 1
 578 628 l 1
 191 628 l 1
 191 390 l 1
 458 390 l 1
 458 333 l 1
 191 333 l 1
 191 57 l 1
 578 57 l 1
 578 11 l 1
 583 10 l 1
 578 5 l 1
 578 0 l 1
 573 0 l 1
 557 -17 l 2
 550 -25 537 -38 531 -46 c 0
 524 -55 515 -69 512 -74 c 0
 507 -82 504 -91 504 -102 c 0
 504 -109 505 -118 512 -127 c 0
 516 -132 521 -137 531 -140 c 0
 535 -141 540 -142 545 -142 c 0
 549 -142 552 -141 556 -141 c 0
 565 -139 573 -136 581 -131 c 2
 598 -121 l 1
EndSplineSet
Position2: "'cpsp' Capital Spacing lookup 0 subtable" dx=5 dy=0 dh=10 dv=0
EndChar

StartChar: Etilde
Encoding: 7868 7868 67
Width: 648
GlyphClass: 2
Flags: HMW
HStem: 0 57<191 578 191 578> 333 57<191 458 191 458> 628 56<117 118 118 130 191 578 191 191> 795 53<415 420> 830 53<269 277 269 270.5>
VStem: 14 56<579 585.5 579 588> 130 61<57 333 390 628>
LayerCount: 3
Fore
SplineSet
578 628 m 1
 191 628 l 1
 191 390 l 1
 458 390 l 1
 458 333 l 1
 191 333 l 1
 191 57 l 1
 578 57 l 1
 578 0 l 1
 130 0 l 1
 130 628 l 1
 118 628 l 2
 106 628 93 623 84 614 c 0
 76 606 70 592 70 579 c 1
 14 579 l 1
 14 597 18 609 22 619 c 0
 27 631 33 641 44 652 c 0
 54 662 62 669 78 676 c 0
 88 680 100 684 117 684 c 2
 578 684 l 1
 578 628 l 1
205 797 m 1
 172 838 l 1
 189 852 205 862 220 869 c 0
 235 876 250 881 265 883 c 0
 270 883 274 883 279 883 c 0
 289 883 299 882 310 880 c 0
 325 876 341 871 358 864 c 0
 372 858 385 854 396 851 c 0
 404 849 411 848 419 848 c 0
 422 848 425 848 428 849 c 0
 438 850 448 853 459 858 c 0
 469 863 480 871 492 881 c 1
 526 840 l 1
 494 813 463 799 433 796 c 2
 426 796 l 1
 420 795 l 2
 405 795 391 797 377 801 c 0
 363 805 350 810 338 815 c 0
 324 820 312 824 301 827 c 0
 292 829 285 830 277 830 c 0
 274 830 272 830 269 830 c 0
 259 829 249 825 239 820 c 0
 228 815 217 807 205 797 c 1
EndSplineSet
Position2: "'cpsp' Capital Spacing lookup 0 subtable" dx=5 dy=0 dh=10 dv=0
EndChar

StartChar: F
Encoding: 70 70 68
Width: 608
GlyphClass: 2
Flags: HMW
HStem: -1 21G<130 191 130 130> 332 57<191 458 191 458> 627 56<117 118 118 130 191 578 191 191>
VStem: 14 56<578 584.5 578 587> 130 61<-1 332 389 627>
LayerCount: 3
Fore
SplineSet
578 627 m 1
 191 627 l 1
 191 389 l 1
 458 389 l 1
 458 332 l 1
 191 332 l 1
 191 -1 l 1
 130 -1 l 1
 130 627 l 1
 118 627 l 2
 106 627 93 622 84 613 c 0
 76 605 70 591 70 578 c 1
 14 578 l 1
 14 596 18 608 22 618 c 0
 27 630 33 640 44 651 c 0
 55 662 62 668 78 675 c 0
 88 679 100 683 117 683 c 2
 578 683 l 1
 578 627 l 1
EndSplineSet
Substitution2: "'ss02' Style Set 2 lookup 13 subtable" F.ss02
Substitution2: "'ss01' Style Set 1 lookup 12 subtable" F.ss01
Substitution2: "'salt' Stylistic Alternatives lookup 11 subtable" F.ss01
AlternateSubs2: "'aalt' Access All Alternates lookup 1 subtable" F.ss01 F.ss02
Position2: "'cpsp' Capital Spacing lookup 0 subtable" dx=5 dy=0 dh=10 dv=0
EndChar

StartChar: F.ss01
Encoding: 1114121 -1 69
Width: 637
GlyphClass: 2
Flags: HMW
HStem: -1 21G<129 190 129 129> 332 57<190 457 190 457> 627 56<116 117 117 577>
VStem: 13 56<568.5 584.5 568.5 585> 129 61<-1 332 389 571>
LayerCount: 3
Fore
SplineSet
190 389 m 1
 457 389 l 1
 457 332 l 1
 190 332 l 1
 190 -1 l 1
 129 -1 l 1
 129 571 l 1
 190 571 l 1
 190 389 l 1
577 627 m 1
 117 627 l 2
 104 627 92 622 83 613 c 0
 74 603 69 591 69 578 c 0
 69 559 77 545 92 536 c 1
 63 488 l 1
 47 497 35 510 26 526 c 0
 17 542 13 559 13 578 c 0
 13 592 16 605 21 618 c 0
 26 631 34 642 43 652 c 0
 52 661 63 669 76 675 c 0
 89 680 102 683 116 683 c 2
 577 683 l 1
 577 627 l 1
EndSplineSet
Position2: "'cpsp' Capital Spacing lookup 0 subtable" dx=5 dy=0 dh=10 dv=0
EndChar

StartChar: F.ss02
Encoding: 1114122 -1 70
Width: 532
GlyphClass: 2
Flags: HMW
HStem: 0 21G<54 115 54 54> 325 57<115 432 115 432> 627 57<115 502 115 115>
VStem: 54 61<0 325 382 627>
LayerCount: 3
Fore
SplineSet
502 627 m 1
 115 627 l 1
 115 382 l 1
 432 382 l 1
 432 325 l 1
 115 325 l 1
 115 0 l 1
 54 0 l 1
 54 684 l 1
 502 684 l 1
 502 627 l 1
EndSplineSet
Position2: "'cpsp' Capital Spacing lookup 0 subtable" dx=5 dy=0 dh=10 dv=0
EndChar

StartChar: G
Encoding: 71 71 71
Width: 751
GlyphClass: 2
Flags: HMW
HStem: -271 59<569.5 581.5 569.5 581.5> -31 54<360.5 396 360.5 401> 463 54<529 537 529 545.5> 647 55<376.5 407>
VStem: 40 54<306.5 351 306.5 353> 566 54<549.5 562.5> 612 57<-178 82 82 82 224 303>
AnchorPoint: "Anchor-3" 385 699 basechar 0
AnchorPoint: "Anchor-2" 381 -28 basechar 0
AnchorPoint: "Anchor-1" 0 0 basechar 0
LayerCount: 3
Fore
SplineSet
612 -178 m 2
 612 82 l 1
 580 39 547 15 509 -3 c 0
 466 -23 422 -31 380 -31 c 0
 330 -31 290 -20 252 -3 c 0
 210 16 174 41 143 73 c 0
 110 107 84 148 68 186 c 0
 48 233 40 282 40 327 c 0
 40 379 50 427 68 472 c 0
 88 522 115 559 145 591 c 0
 178 626 214 652 258 672 c 0
 300 691 345 702 395 702 c 0
 421 702 449 699 475 693 c 0
 505 686 528 676 547 665 c 0
 564 655 583 642 599 620 c 0
 612 602 620 583 620 556 c 0
 620 529 612 507 594 489 c 0
 579 474 559 463 532 463 c 0
 512 463 494 469 478 481 c 1
 512 524 l 1
 519 519 526 517 532 517 c 0
 542 517 553 523 557 528 c 0
 562 534 566 544 566 555 c 0
 566 570 559 585 551 594 c 0
 543 603 526 615 511 623 c 0
 500 629 476 637 456 641 c 0
 436 645 417 647 397 647 c 0
 356 647 318 639 280 622 c 0
 244 606 212 583 183 552 c 0
 153 520 133 488 118 451 c 0
 103 414 94 374 94 328 c 0
 94 285 102 244 117 208 c 0
 130 177 152 141 181 111 c 0
 206 85 240 61 273 46 c 0
 302 33 339 23 382 23 c 0
 410 23 438 27 469 39 c 0
 492 48 516 61 539 82 c 0
 559 100 574 119 588 146 c 0
 603 175 608 195 612 224 c 1
 612 303 l 1
 669 303 l 1
 669 -178 l 2
 669 -189 667 -201 662 -213 c 0
 657 -225 649 -236 642 -243 c 0
 631 -254 620 -260 611 -264 c 0
 599 -269 587 -271 576 -271 c 0
 558 -271 544 -266 533 -260 c 0
 520 -253 508 -242 500 -230 c 1
 548 -197 l 1
 554 -206 563 -212 576 -212 c 0
 587 -212 595 -208 601 -202 c 0
 607 -196 611 -189 612 -178 c 2
EndSplineSet
Substitution2: "'ss02' Style Set 2 lookup 13 subtable" G.ss02
Substitution2: "'aalt' Access All Alternates lookup 0 subtable" G.ss02
Position2: "'cpsp' Capital Spacing lookup 0 subtable" dx=5 dy=0 dh=10 dv=0
EndChar

StartChar: G.ss02
Encoding: 1114123 -1 72
Width: 740
GlyphClass: 2
Flags: HMW
HStem: -31 54<360.5 396 360.5 457> 266 57<370 612 370 670 669 670 669 669> 647 55<376.5 407>
VStem: 40 54<306.5 351 306.5 353> 566 54<555 562.5> 612 57<224 236 236 266 159.5 266>
AnchorPoint: "Anchor-3" 385 699 basechar 0
AnchorPoint: "Anchor-2" 381 -28 basechar 0
AnchorPoint: "Anchor-1" 0 0 basechar 0
LayerCount: 3
Fore
SplineSet
670 266 m 1
 669 266 l 1
 669 236 l 2
 669 83 534 -31 380 -31 c 0
 330 -31 290 -20 252 -3 c 0
 210 16 174 41 143 73 c 0
 110 107 84 148 68 186 c 0
 48 233 40 282 40 327 c 0
 40 379 50 427 68 472 c 0
 88 522 115 559 145 591 c 0
 178 626 214 652 258 672 c 0
 300 691 345 702 395 702 c 0
 421 702 449 699 475 693 c 0
 505 686 528 676 547 665 c 0
 564 655 583 642 599 620 c 0
 612 602 620 583 620 555 c 1
 566 555 l 1
 566 570 559 585 551 594 c 0
 543 603 526 615 511 623 c 0
 500 629 476 637 456 641 c 0
 436 645 417 647 397 647 c 0
 356 647 318 639 280 622 c 0
 244 606 212 583 183 552 c 0
 153 520 133 488 118 451 c 0
 103 414 94 374 94 328 c 0
 94 285 102 244 117 208 c 0
 130 177 152 141 181 111 c 0
 206 85 240 61 273 46 c 0
 302 33 339 23 382 23 c 0
 410 23 438 27 469 39 c 0
 492 48 516 61 539 82 c 0
 559 100 574 119 588 146 c 0
 603 175 608 195 612 224 c 1
 612 266 l 1
 370 266 l 1
 370 323 l 1
 670 323 l 1
 670 266 l 1
EndSplineSet
Position2: "'cpsp' Capital Spacing lookup 0 subtable" dx=5 dy=0 dh=10 dv=0
EndChar

StartChar: Gacute
Encoding: 500 500 73
Width: 751
GlyphClass: 2
Flags: HMW
HStem: -271 59<569.5 581.5 569.5 581.5> -31 54<360.5 396 360.5 401> 463 54<529 537 529 545.5> 647 55<376.5 407> 780 20G<357 357>
VStem: 40 54<306.5 351 306.5 353> 566 54<549.5 562.5> 612 57<-178 82 82 82 224 303>
LayerCount: 3
Fore
SplineSet
612 -178 m 2
 612 82 l 1
 580 39 547 15 509 -3 c 0
 466 -23 422 -31 380 -31 c 0
 330 -31 290 -20 252 -3 c 0
 210 16 174 41 143 73 c 0
 110 107 84 148 68 186 c 0
 48 233 40 282 40 327 c 0
 40 379 50 427 68 472 c 0
 88 522 115 559 145 591 c 0
 178 626 214 652 258 672 c 0
 300 691 345 702 395 702 c 0
 421 702 449 699 475 693 c 0
 505 686 528 676 547 665 c 0
 564 655 583 642 599 620 c 0
 612 602 620 583 620 556 c 0
 620 529 612 507 594 489 c 0
 579 474 559 463 532 463 c 0
 512 463 494 469 478 481 c 1
 512 524 l 1
 519 519 526 517 532 517 c 0
 542 517 553 523 557 528 c 0
 562 534 566 544 566 555 c 0
 566 570 559 585 551 594 c 0
 543 603 526 615 511 623 c 0
 500 629 476 637 456 641 c 0
 436 645 417 647 397 647 c 0
 356 647 318 639 280 622 c 0
 244 606 212 583 183 552 c 0
 153 520 133 488 118 451 c 0
 103 414 94 374 94 328 c 0
 94 285 102 244 117 208 c 0
 130 177 152 141 181 111 c 0
 206 85 240 61 273 46 c 0
 302 33 339 23 382 23 c 0
 410 23 438 27 469 39 c 0
 492 48 516 61 539 82 c 0
 559 100 574 119 588 146 c 0
 603 175 608 195 612 224 c 1
 612 303 l 1
 669 303 l 1
 669 -178 l 2
 669 -189 667 -201 662 -213 c 0
 657 -225 649 -236 642 -243 c 0
 631 -254 620 -260 611 -264 c 0
 599 -269 587 -271 576 -271 c 0
 558 -271 544 -266 533 -260 c 0
 520 -253 508 -242 500 -230 c 1
 548 -197 l 1
 554 -206 563 -212 576 -212 c 0
 587 -212 595 -208 601 -202 c 0
 607 -196 611 -189 612 -178 c 2
551 876 m 1
 379 766 l 1
 357 800 l 1
 515 925 l 1
 551 876 l 1
EndSplineSet
Position2: "'cpsp' Capital Spacing lookup 0 subtable" dx=5 dy=0 dh=10 dv=0
EndChar

StartChar: Gbreve
Encoding: 286 286 74
Width: 751
GlyphClass: 2
Flags: HMW
HStem: -271 59<569.5 581.5 569.5 581.5> -31 54<360.5 396 360.5 401> 463 54<529 537 529 545.5> 647 55<376.5 407> 791 54<370 399 370 408>
VStem: 40 54<306.5 351 306.5 353> 242 61<928 928> 465 61<928 928> 566 54<549.5 562.5> 612 57<-178 82 82 82 224 303>
LayerCount: 3
Fore
SplineSet
612 -178 m 2
 612 82 l 1
 580 39 547 15 509 -3 c 0
 466 -23 422 -31 380 -31 c 0
 330 -31 290 -20 252 -3 c 0
 210 16 174 41 143 73 c 0
 110 107 84 148 68 186 c 0
 48 233 40 282 40 327 c 0
 40 379 50 427 68 472 c 0
 88 522 115 559 145 591 c 0
 178 626 214 652 258 672 c 0
 300 691 345 702 395 702 c 0
 421 702 449 699 475 693 c 0
 505 686 528 676 547 665 c 0
 564 655 583 642 599 620 c 0
 612 602 620 583 620 556 c 0
 620 529 612 507 594 489 c 0
 579 474 559 463 532 463 c 0
 512 463 494 469 478 481 c 1
 512 524 l 1
 519 519 526 517 532 517 c 0
 542 517 553 523 557 528 c 0
 562 534 566 544 566 555 c 0
 566 570 559 585 551 594 c 0
 543 603 526 615 511 623 c 0
 500 629 476 637 456 641 c 0
 436 645 417 647 397 647 c 0
 356 647 318 639 280 622 c 0
 244 606 212 583 183 552 c 0
 153 520 133 488 118 451 c 0
 103 414 94 374 94 328 c 0
 94 285 102 244 117 208 c 0
 130 177 152 141 181 111 c 0
 206 85 240 61 273 46 c 0
 302 33 339 23 382 23 c 0
 410 23 438 27 469 39 c 0
 492 48 516 61 539 82 c 0
 559 100 574 119 588 146 c 0
 603 175 608 195 612 224 c 1
 612 303 l 1
 669 303 l 1
 669 -178 l 2
 669 -189 667 -201 662 -213 c 0
 657 -225 649 -236 642 -243 c 0
 631 -254 620 -260 611 -264 c 0
 599 -269 587 -271 576 -271 c 0
 558 -271 544 -266 533 -260 c 0
 520 -253 508 -242 500 -230 c 1
 548 -197 l 1
 554 -206 563 -212 576 -212 c 0
 587 -212 595 -208 601 -202 c 0
 607 -196 611 -189 612 -178 c 2
465 928 m 1
 526 928 l 1
 525 888 513 855 490 830 c 0
 467 804 432 791 384 791 c 0
 337 791 302 804 279 830 c 0
 256 855 243 888 242 928 c 1
 303 928 l 1
 304 903 311 883 324 868 c 0
 336 853 356 845 384 845 c 0
 414 845 435 853 447 868 c 0
 458 883 464 903 465 928 c 1
EndSplineSet
Position2: "'cpsp' Capital Spacing lookup 0 subtable" dx=5 dy=0 dh=10 dv=0
EndChar

StartChar: Gcaron
Encoding: 486 486 75
Width: 751
GlyphClass: 2
Flags: HMW
HStem: -271 59<569.5 581.5 569.5 581.5> -31 54<360.5 396 360.5 401> 463 54<529 537 529 545.5> 647 55<376.5 407> 794 142<237 409 237 360>
VStem: 40 54<306.5 351 306.5 353> 566 54<549.5 562.5> 612 57<-178 82 82 82 224 303>
LayerCount: 3
Fore
SplineSet
612 -178 m 2
 612 82 l 1
 580 39 547 15 509 -3 c 0
 466 -23 422 -31 380 -31 c 0
 330 -31 290 -20 252 -3 c 0
 210 16 174 41 143 73 c 0
 110 107 84 148 68 186 c 0
 48 233 40 282 40 327 c 0
 40 379 50 427 68 472 c 0
 88 522 115 559 145 591 c 0
 178 626 214 652 258 672 c 0
 300 691 345 702 395 702 c 0
 421 702 449 699 475 693 c 0
 505 686 528 676 547 665 c 0
 564 655 583 642 599 620 c 0
 612 602 620 583 620 556 c 0
 620 529 612 507 594 489 c 0
 579 474 559 463 532 463 c 0
 512 463 494 469 478 481 c 1
 512 524 l 1
 519 519 526 517 532 517 c 0
 542 517 553 523 557 528 c 0
 562 534 566 544 566 555 c 0
 566 570 559 585 551 594 c 0
 543 603 526 615 511 623 c 0
 500 629 476 637 456 641 c 0
 436 645 417 647 397 647 c 0
 356 647 318 639 280 622 c 0
 244 606 212 583 183 552 c 0
 153 520 133 488 118 451 c 0
 103 414 94 374 94 328 c 0
 94 285 102 244 117 208 c 0
 130 177 152 141 181 111 c 0
 206 85 240 61 273 46 c 0
 302 33 339 23 382 23 c 0
 410 23 438 27 469 39 c 0
 492 48 516 61 539 82 c 0
 559 100 574 119 588 146 c 0
 603 175 608 195 612 224 c 1
 612 303 l 1
 669 303 l 1
 669 -178 l 2
 669 -189 667 -201 662 -213 c 0
 657 -225 649 -236 642 -243 c 0
 631 -254 620 -260 611 -264 c 0
 599 -269 587 -271 576 -271 c 0
 558 -271 544 -266 533 -260 c 0
 520 -253 508 -242 500 -230 c 1
 548 -197 l 1
 554 -206 563 -212 576 -212 c 0
 587 -212 595 -208 601 -202 c 0
 607 -196 611 -189 612 -178 c 2
409 794 m 1
 360 794 l 1
 237 936 l 1
 304 936 l 1
 385 847 l 1
 465 936 l 1
 533 936 l 1
 409 794 l 1
EndSplineSet
Position2: "'cpsp' Capital Spacing lookup 0 subtable" dx=5 dy=0 dh=10 dv=0
EndChar

StartChar: Gcircumflex
Encoding: 284 284 76
Width: 751
GlyphClass: 2
Flags: HMW
HStem: -271 59<569.5 581.5 569.5 581.5> -31 54<360.5 396 360.5 401> 463 54<529 537 529 545.5> 647 55<376.5 407> 804 142<237 409 237 409 360 533 360 465>
VStem: 40 54<306.5 351 306.5 353> 566 54<549.5 562.5> 612 57<-178 82 82 82 224 303>
LayerCount: 3
Fore
SplineSet
612 -178 m 2
 612 82 l 1
 580 39 547 15 509 -3 c 0
 466 -23 422 -31 380 -31 c 0
 330 -31 290 -20 252 -3 c 0
 210 16 174 41 143 73 c 0
 110 107 84 148 68 186 c 0
 48 233 40 282 40 327 c 0
 40 379 50 427 68 472 c 0
 88 522 115 559 145 591 c 0
 178 626 214 652 258 672 c 0
 300 691 345 702 395 702 c 0
 421 702 449 699 475 693 c 0
 505 686 528 676 547 665 c 0
 564 655 583 642 599 620 c 0
 612 602 620 583 620 556 c 0
 620 529 612 507 594 489 c 0
 579 474 559 463 532 463 c 0
 512 463 494 469 478 481 c 1
 512 524 l 1
 519 519 526 517 532 517 c 0
 542 517 553 523 557 528 c 0
 562 534 566 544 566 555 c 0
 566 570 559 585 551 594 c 0
 543 603 526 615 511 623 c 0
 500 629 476 637 456 641 c 0
 436 645 417 647 397 647 c 0
 356 647 318 639 280 622 c 0
 244 606 212 583 183 552 c 0
 153 520 133 488 118 451 c 0
 103 414 94 374 94 328 c 0
 94 285 102 244 117 208 c 0
 130 177 152 141 181 111 c 0
 206 85 240 61 273 46 c 0
 302 33 339 23 382 23 c 0
 410 23 438 27 469 39 c 0
 492 48 516 61 539 82 c 0
 559 100 574 119 588 146 c 0
 603 175 608 195 612 224 c 1
 612 303 l 1
 669 303 l 1
 669 -178 l 2
 669 -189 667 -201 662 -213 c 0
 657 -225 649 -236 642 -243 c 0
 631 -254 620 -260 611 -264 c 0
 599 -269 587 -271 576 -271 c 0
 558 -271 544 -266 533 -260 c 0
 520 -253 508 -242 500 -230 c 1
 548 -197 l 1
 554 -206 563 -212 576 -212 c 0
 587 -212 595 -208 601 -202 c 0
 607 -196 611 -189 612 -178 c 2
533 804 m 1
 465 804 l 1
 385 893 l 1
 304 804 l 1
 237 804 l 1
 360 946 l 1
 409 946 l 1
 533 804 l 1
EndSplineSet
Position2: "'cpsp' Capital Spacing lookup 0 subtable" dx=5 dy=0 dh=10 dv=0
EndChar

StartChar: Gcommaaccent
Encoding: 290 290 77
Width: 751
GlyphClass: 2
Flags: HMW
HStem: -313 207<346 360 306 410> -271 59<569.5 581.5 569.5 581.5> -31 54<360.5 396 360.5 401> 463 54<529 537 529 545.5> 647 55<376.5 407>
VStem: 40 54<306.5 351 306.5 353> 566 54<549.5 562.5> 612 57<-178 82 82 82 224 303>
LayerCount: 3
Fore
SplineSet
360 -313 m 1
 306 -313 l 1
 346 -106 l 1
 410 -106 l 1
 360 -313 l 1
612 -178 m 2
 612 82 l 1
 580 39 547 15 509 -3 c 0
 466 -23 422 -31 380 -31 c 0
 330 -31 290 -20 252 -3 c 0
 210 16 174 41 143 73 c 0
 110 107 84 148 68 186 c 0
 48 233 40 282 40 327 c 0
 40 379 50 427 68 472 c 0
 88 522 115 559 145 591 c 0
 178 626 214 652 258 672 c 0
 300 691 345 702 395 702 c 0
 421 702 449 699 475 693 c 0
 505 686 528 676 547 665 c 0
 564 655 583 642 599 620 c 0
 612 602 620 583 620 556 c 0
 620 529 612 507 594 489 c 0
 579 474 559 463 532 463 c 0
 512 463 494 469 478 481 c 1
 512 524 l 1
 519 519 526 517 532 517 c 0
 542 517 553 523 557 528 c 0
 562 534 566 544 566 555 c 0
 566 570 559 585 551 594 c 0
 543 603 526 615 511 623 c 0
 500 629 476 637 456 641 c 0
 436 645 417 647 397 647 c 0
 356 647 318 639 280 622 c 0
 244 606 212 583 183 552 c 0
 153 520 133 488 118 451 c 0
 103 414 94 374 94 328 c 0
 94 285 102 244 117 208 c 0
 130 177 152 141 181 111 c 0
 206 85 240 61 273 46 c 0
 302 33 339 23 382 23 c 0
 410 23 438 27 469 39 c 0
 492 48 516 61 539 82 c 0
 559 100 574 119 588 146 c 0
 603 175 608 195 612 224 c 1
 612 303 l 1
 669 303 l 1
 669 -178 l 2
 669 -189 667 -201 662 -213 c 0
 657 -225 649 -236 642 -243 c 0
 631 -254 620 -260 611 -264 c 0
 599 -269 587 -271 576 -271 c 0
 558 -271 544 -266 533 -260 c 0
 520 -253 508 -242 500 -230 c 1
 548 -197 l 1
 554 -206 563 -212 576 -212 c 0
 587 -212 595 -208 601 -202 c 0
 607 -196 611 -189 612 -178 c 2
EndSplineSet
Position2: "'cpsp' Capital Spacing lookup 0 subtable" dx=5 dy=0 dh=10 dv=0
EndChar

StartChar: Gdotaccent
Encoding: 288 288 78
Width: 751
GlyphClass: 2
Flags: HMW
HStem: -271 59<569.5 581.5 569.5 581.5> -31 54<360.5 396 360.5 401> 463 54<529 537 529 545.5> 647 55<376.5 407> 822 85<370.5 394>
VStem: 40 54<306.5 351 306.5 353> 340 85<852.5 876> 566 54<549.5 562.5> 612 57<-178 82 82 82 224 303>
LayerCount: 3
Fore
SplineSet
612 -178 m 2
 612 82 l 1
 580 39 547 15 509 -3 c 0
 466 -23 422 -31 380 -31 c 0
 330 -31 290 -20 252 -3 c 0
 210 16 174 41 143 73 c 0
 110 107 84 148 68 186 c 0
 48 233 40 282 40 327 c 0
 40 379 50 427 68 472 c 0
 88 522 115 559 145 591 c 0
 178 626 214 652 258 672 c 0
 300 691 345 702 395 702 c 0
 421 702 449 699 475 693 c 0
 505 686 528 676 547 665 c 0
 564 655 583 642 599 620 c 0
 612 602 620 583 620 556 c 0
 620 529 612 507 594 489 c 0
 579 474 559 463 532 463 c 0
 512 463 494 469 478 481 c 1
 512 524 l 1
 519 519 526 517 532 517 c 0
 542 517 553 523 557 528 c 0
 562 534 566 544 566 555 c 0
 566 570 559 585 551 594 c 0
 543 603 526 615 511 623 c 0
 500 629 476 637 456 641 c 0
 436 645 417 647 397 647 c 0
 356 647 318 639 280 622 c 0
 244 606 212 583 183 552 c 0
 153 520 133 488 118 451 c 0
 103 414 94 374 94 328 c 0
 94 285 102 244 117 208 c 0
 130 177 152 141 181 111 c 0
 206 85 240 61 273 46 c 0
 302 33 339 23 382 23 c 0
 410 23 438 27 469 39 c 0
 492 48 516 61 539 82 c 0
 559 100 574 119 588 146 c 0
 603 175 608 195 612 224 c 1
 612 303 l 1
 669 303 l 1
 669 -178 l 2
 669 -189 667 -201 662 -213 c 0
 657 -225 649 -236 642 -243 c 0
 631 -254 620 -260 611 -264 c 0
 599 -269 587 -271 576 -271 c 0
 558 -271 544 -266 533 -260 c 0
 520 -253 508 -242 500 -230 c 1
 548 -197 l 1
 554 -206 563 -212 576 -212 c 0
 587 -212 595 -208 601 -202 c 0
 607 -196 611 -189 612 -178 c 2
382 907 m 0
 406 907 425 888 425 864 c 0
 425 841 406 822 382 822 c 0
 359 822 340 841 340 864 c 0
 340 888 359 907 382 907 c 0
EndSplineSet
Position2: "'cpsp' Capital Spacing lookup 0 subtable" dx=5 dy=0 dh=10 dv=0
EndChar

StartChar: H
Encoding: 72 72 79
Width: 700
GlyphClass: 2
Flags: HMW
HStem: 0 21G<123 185 123 123 554 615 554 554> 327 57<185 554 185 554> 627 62<87.5 96.5> 664 20G<554 615 615 615>
VStem: 123 62<0 327 384 596> 554 61<0 327 327 327 384 684 0 684>
AnchorPoint: "Anchor-3" 378 684 basechar 0
AnchorPoint: "Anchor-2" 0 0 basechar 0
AnchorPoint: "Anchor-1" 0 0 basechar 0
LayerCount: 3
Fore
SplineSet
66 613 m 1
 14 648 l 1
 32 674 59 689 91 689 c 0
 105 689 118 686 127 682 c 0
 139 677 150 669 157 662 c 0
 168 651 174 640 178 631 c 0
 183 619 185 607 185 596 c 2
 185 384 l 1
 554 384 l 1
 554 684 l 1
 615 684 l 1
 615 0 l 1
 554 0 l 1
 554 327 l 1
 185 327 l 1
 185 0 l 1
 123 0 l 1
 123 596 l 2
 123 605 120 612 114 618 c 0
 108 624 101 627 92 627 c 0
 83 627 73 624 66 613 c 1
EndSplineSet
Substitution2: "'ss02' Style Set 2 lookup 13 subtable" H.ss02
Substitution2: "'aalt' Access All Alternates lookup 0 subtable" H.ss02
Position2: "'cpsp' Capital Spacing lookup 0 subtable" dx=5 dy=0 dh=10 dv=0
EndChar

StartChar: H.ss02
Encoding: 1114124 -1 80
Width: 630
GlyphClass: 2
Flags: HMW
HStem: 0 21G<54 115 54 54 484 545 484 484> 327 57<115 484 115 484> 664 20G<54 115 115 115 484 545 545 545>
VStem: 54 61<0 327 0 384 384 684> 484 61<0 327 327 327 384 684>
AnchorPoint: "Anchor-3" 305 0 basechar 0
AnchorPoint: "Anchor-2" 0 0 basechar 0
AnchorPoint: "Anchor-1" 0 0 basechar 0
LayerCount: 3
Fore
SplineSet
545 0 m 1
 484 0 l 1
 484 327 l 1
 115 327 l 1
 115 0 l 1
 54 0 l 1
 54 684 l 1
 115 684 l 1
 115 384 l 1
 484 384 l 1
 484 684 l 1
 545 684 l 1
 545 0 l 1
EndSplineSet
Position2: "'cpsp' Capital Spacing lookup 0 subtable" dx=5 dy=0 dh=10 dv=0
EndChar

StartChar: Hbar
Encoding: 294 294 81
Width: 700
GlyphClass: 2
Flags: HMW
HStem: 0 21G<123 185 123 123 554 615 554 554> 327 57<185 554 185 554> 501 52<102 123 102 123 185 554 615 630> 501 183<185 615 554 630 554 615> 627 62<87.5 96.5>
VStem: 123 62<0 327 0 384 384 501 553 596> 554 61<0 327 327 327 384 501 0 501 553 684>
LayerCount: 3
Fore
SplineSet
554 501 m 1
 185 501 l 1
 185 384 l 1
 554 384 l 1
 554 501 l 1
630 501 m 1
 615 501 l 1
 615 0 l 1
 554 0 l 1
 554 327 l 1
 185 327 l 1
 185 0 l 1
 123 0 l 1
 123 501 l 1
 102 501 l 1
 102 553 l 1
 123 553 l 1
 123 596 l 2
 123 605 120 612 114 618 c 0
 108 624 101 627 92 627 c 0
 83 627 73 624 66 613 c 1
 14 648 l 1
 32 674 59 689 91 689 c 0
 105 689 118 686 127 682 c 0
 139 677 150 669 157 662 c 0
 168 651 174 640 178 631 c 0
 183 619 185 607 185 596 c 2
 185 553 l 1
 554 553 l 1
 554 684 l 1
 615 684 l 1
 615 553 l 1
 630 553 l 1
 630 501 l 1
EndSplineSet
Position2: "'cpsp' Capital Spacing lookup 0 subtable" dx=5 dy=0 dh=10 dv=0
EndChar

StartChar: uni021E
Encoding: 542 542 82
Width: 700
GlyphClass: 2
Flags: HMW
HStem: 0 21G<123 185 123 123 554 615 554 554> 327 57<185 554 185 554> 627 62<87.5 96.5> 664 20G<554 615 615 615> 779 142<230 402 230 353>
VStem: 123 62<0 327 384 596> 554 61<0 327 327 327 384 684 0 684>
LayerCount: 3
Fore
SplineSet
66 613 m 1
 14 648 l 1
 32 674 59 689 91 689 c 0
 105 689 118 686 127 682 c 0
 139 677 150 669 157 662 c 0
 168 651 174 640 178 631 c 0
 183 619 185 607 185 596 c 2
 185 384 l 1
 554 384 l 1
 554 684 l 1
 615 684 l 1
 615 0 l 1
 554 0 l 1
 554 327 l 1
 185 327 l 1
 185 0 l 1
 123 0 l 1
 123 596 l 2
 123 605 120 612 114 618 c 0
 108 624 101 627 92 627 c 0
 83 627 73 624 66 613 c 1
402 779 m 1
 353 779 l 1
 230 921 l 1
 297 921 l 1
 378 832 l 1
 458 921 l 1
 526 921 l 1
 402 779 l 1
EndSplineSet
Position2: "'cpsp' Capital Spacing lookup 0 subtable" dx=5 dy=0 dh=10 dv=0
EndChar

StartChar: Hcircumflex
Encoding: 292 292 83
Width: 700
GlyphClass: 2
Flags: HMW
HStem: 0 21G<123 185 123 123 554 615 554 554> 327 57<185 554 185 554> 627 62<87.5 96.5> 664 20G<554 615 615 615> 789 142<230 402 230 402 353 526 353 458>
VStem: 123 62<0 327 384 596> 554 61<0 327 327 327 384 684 0 684>
LayerCount: 3
Fore
SplineSet
66 613 m 1
 14 648 l 1
 32 674 59 689 91 689 c 0
 105 689 118 686 127 682 c 0
 139 677 150 669 157 662 c 0
 168 651 174 640 178 631 c 0
 183 619 185 607 185 596 c 2
 185 384 l 1
 554 384 l 1
 554 684 l 1
 615 684 l 1
 615 0 l 1
 554 0 l 1
 554 327 l 1
 185 327 l 1
 185 0 l 1
 123 0 l 1
 123 596 l 2
 123 605 120 612 114 618 c 0
 108 624 101 627 92 627 c 0
 83 627 73 624 66 613 c 1
526 789 m 1
 458 789 l 1
 378 878 l 1
 297 789 l 1
 230 789 l 1
 353 931 l 1
 402 931 l 1
 526 789 l 1
EndSplineSet
Position2: "'cpsp' Capital Spacing lookup 0 subtable" dx=5 dy=0 dh=10 dv=0
EndChar

StartChar: I
Encoding: 73 73 84
Width: 204
GlyphClass: 2
Flags: HMW
HStem: 0 21G<54 115 54 54> 664 20G<54 115 115 115>
VStem: 54 61<0 684>
AnchorPoint: "Anchor-3" 87 684 basechar 0
AnchorPoint: "Anchor-2" 85 -1 basechar 0
AnchorPoint: "Anchor-1" 115 0 basechar 0
LayerCount: 3
Fore
SplineSet
115 0 m 1
 54 0 l 1
 54 684 l 1
 115 684 l 1
 115 0 l 1
EndSplineSet
Position2: "'cpsp' Capital Spacing lookup 0 subtable" dx=5 dy=0 dh=10 dv=0
EndChar

StartChar: IJ
Encoding: 306 306 85
Width: 672
GlyphClass: 2
Flags: HMW
HStem: -4 57<393.5 433.5 393.5 437.5> 0 21G<54 115 54 54> 604 68 639 57<341 346.5> 664 20G<54 115 115 115> 667 20
VStem: 54 61<0 684> 233 57.5 535 57<194 617 617 617>
LayerCount: 3
Fore
SplineSet
115 0 m 1
 54 0 l 1
 54 684 l 1
 115 684 l 1
 115 0 l 1
235 667 m 1
 248 672 l 2
 252 675 259 678 272 682 c 0
 277 684 301 691 306 692 c 0
 319 695 338 696 344 696 c 0
 352 696 366 694 378 690 c 2
 429 672 l 2
 455 664 470 661 484 661 c 0
 498 661 506 664 518 672 c 0
 525 676 537 686 536 687 c 2
 592 687 l 1
 592 191 l 2
 592 165.961364738 591.352341678 160.352479139 590.794137784 160.352479139 c 0
 590.371418753 160.352479139 590 163.569059892 590 164 c 1
 589 158 589 145 584 127 c 0
 581 117 576 102 568 85 c 0
 559 67 551 57 540 46 c 0
 506 9 462 -4 413 -4 c 0
 360 -4 313 11 280 47 c 0
 262 65 252 85 245 106 c 0
 238 127 234 150 233 179 c 1
 266 177 l 2
 273 177 278 177 281 176 c 2
 287 175 l 1
 288 175 l 1
 290 174 l 1
 291 159 l 2
 293 153 291 154 295 137 c 0
 296 133 299 122 305 110 c 0
 310 99 315 93 321 85 c 0
 343 64 374 53 413 53 c 0
 454 53 478 65 499 84 c 0
 508 94 512 101 518 114 c 0
 523 126 527 137 529 145 c 0
 531 154 533 164 534 175 c 2
 535 194 l 1
 535 617 l 1
 528 613 517 609 514 608 c 0
 507 606 494 604 481 604 c 0
 465 604 446 607 434 610 c 0
 424 613 395 624 392 625 c 2
 365 635 l 2
 357 637 352 639 341 639 c 0
 325 639 309 635 297 631 c 0
 288 628 275 623 263 617 c 1
 260 618 l 1
 235 667 l 1
EndSplineSet
Position2: "'cpsp' Capital Spacing lookup 0 subtable" dx=5 dy=0 dh=10 dv=0
EndChar

StartChar: Iacute
Encoding: 205 205 86
Width: 204
GlyphClass: 2
Flags: HMW
HStem: 0 21G<54 115 54 54> 664 20G<54 115 115 115>
VStem: 54 61<0 684>
LayerCount: 3
Fore
SplineSet
115 0 m 1
 54 0 l 1
 54 684 l 1
 115 684 l 1
 115 0 l 1
253 861 m 1
 81 751 l 1
 59 785 l 1
 217 910 l 1
 253 861 l 1
EndSplineSet
Position2: "'cpsp' Capital Spacing lookup 0 subtable" dx=5 dy=0 dh=10 dv=0
EndChar

StartChar: Ibreve
Encoding: 300 300 87
Width: 204
GlyphClass: 2
Flags: HMW
HStem: 0 21G<54 115 54 54> 664 20G<54 115 115 115> 776 54<72 101 72 110>
VStem: -56 61<913 913> 54 61<0 684> 167 61<913 913>
LayerCount: 3
Fore
SplineSet
115 0 m 1
 54 0 l 1
 54 684 l 1
 115 684 l 1
 115 0 l 1
167 913 m 1
 228 913 l 1
 227 873 215 840 192 815 c 0
 169 789 134 776 86 776 c 0
 39 776 4 789 -19 815 c 0
 -42 840 -55 873 -56 913 c 1
 5 913 l 1
 6 888 13 868 26 853 c 0
 38 838 58 830 86 830 c 0
 116 830 137 838 149 853 c 0
 160 868 166 888 167 913 c 1
EndSplineSet
Position2: "'cpsp' Capital Spacing lookup 0 subtable" dx=5 dy=0 dh=10 dv=0
EndChar

StartChar: Icaron
Encoding: 463 463 88
Width: 204
GlyphClass: 2
Flags: HMW
HStem: 0 21G<54 115 54 54> 664 20G<54 115 115 115> 779 142<-61 111 -61 62>
VStem: 54 61<0 684>
LayerCount: 3
Fore
SplineSet
115 0 m 1
 54 0 l 1
 54 684 l 1
 115 684 l 1
 115 0 l 1
111 779 m 1
 62 779 l 1
 -61 921 l 1
 6 921 l 1
 87 832 l 1
 167 921 l 1
 235 921 l 1
 111 779 l 1
EndSplineSet
Position2: "'cpsp' Capital Spacing lookup 0 subtable" dx=5 dy=0 dh=10 dv=0
EndChar

StartChar: Icircumflex
Encoding: 206 206 89
Width: 204
GlyphClass: 2
Flags: HMW
HStem: 0 21G<54 115 54 54> 664 20G<54 115 115 115> 789 142<-61 111 -61 111 62 235 62 167>
VStem: 54 61<0 684>
LayerCount: 3
Fore
SplineSet
115 0 m 1
 54 0 l 1
 54 684 l 1
 115 684 l 1
 115 0 l 1
235 789 m 1
 167 789 l 1
 87 878 l 1
 6 789 l 1
 -61 789 l 1
 62 931 l 1
 111 931 l 1
 235 789 l 1
EndSplineSet
Position2: "'cpsp' Capital Spacing lookup 0 subtable" dx=5 dy=0 dh=10 dv=0
EndChar

StartChar: Idieresis
Encoding: 207 207 90
Width: 204
GlyphClass: 2
Flags: HMW
HStem: 0 21G<54 115 54 54> 664 20G<54 115 115 115> 801 85<-36.5 -13 185.5 209>
VStem: -67 85<831.5 855> 54 61<0 684 0 684> 155 85<831.5 855>
LayerCount: 3
Fore
SplineSet
54 684 m 1
 115 684 l 1
 115 0 l 1
 54 0 l 1
 54 684 l 1
197 886 m 0
 221 886 240 867 240 843 c 0
 240 820 221 801 197 801 c 0
 174 801 155 820 155 843 c 0
 155 867 174 886 197 886 c 0
-25 886 m 0
 -1 886 18 867 18 843 c 0
 18 820 -1 801 -25 801 c 0
 -48 801 -67 820 -67 843 c 0
 -67 867 -48 886 -25 886 c 0
EndSplineSet
Position2: "'cpsp' Capital Spacing lookup 0 subtable" dx=5 dy=0 dh=10 dv=0
EndChar

StartChar: Idotaccent
Encoding: 304 304 91
Width: 204
GlyphClass: 2
Flags: HMW
HStem: 0 21G<54 115 54 54> 664 20G<54 115 115 115> 807 85<72.5 96>
VStem: 42 85<837.5 861> 54 61<0 684>
LayerCount: 3
Fore
SplineSet
115 0 m 1
 54 0 l 1
 54 684 l 1
 115 684 l 1
 115 0 l 1
84 892 m 0
 108 892 127 873 127 849 c 0
 127 826 108 807 84 807 c 0
 61 807 42 826 42 849 c 0
 42 873 61 892 84 892 c 0
EndSplineSet
Position2: "'cpsp' Capital Spacing lookup 0 subtable" dx=5 dy=0 dh=10 dv=0
EndChar

StartChar: Idotbelow
Encoding: 7882 7882 92
Width: 204
GlyphClass: 2
Flags: HMW
HStem: -185 71 0 21G<54 115 54 54> 664 20G<54 115 115 115>
VStem: 54 61<0 684>
LayerCount: 3
Fore
SplineSet
83 -114 m 0
 95 -114 105 -118 113 -126 c 0
 121 -134 125 -144 125 -156 c 0
 125 -167 121 -177 113 -185 c 0
 105 -193 95 -197 83 -197 c 0
 66 -197 62 -193 54 -185 c 0
 46 -177 42 -167 42 -156 c 0
 42 -144 46 -134 54 -126 c 0
 62 -118 72 -114 83 -114 c 0
115 0 m 1
 54 0 l 1
 54 684 l 1
 115 684 l 1
 115 0 l 1
EndSplineSet
Position2: "'cpsp' Capital Spacing lookup 0 subtable" dx=5 dy=0 dh=10 dv=0
EndChar

StartChar: Igrave
Encoding: 204 204 93
Width: 204
GlyphClass: 2
Flags: HMW
HStem: 0 21G<54 115 54 54> 664 20G<54 115 115 115>
VStem: 54 61<0 684>
LayerCount: 3
Fore
SplineSet
115 0 m 1
 54 0 l 1
 54 684 l 1
 115 684 l 1
 115 0 l 1
120 785 m 1
 98 751 l 1
 -74 861 l 1
 -38 910 l 1
 120 785 l 1
EndSplineSet
Position2: "'cpsp' Capital Spacing lookup 0 subtable" dx=5 dy=0 dh=10 dv=0
EndChar

StartChar: Imacron
Encoding: 298 298 94
Width: 204
GlyphClass: 2
Flags: HMW
HStem: 0 21G<54 115 54 54> 664 20G<54 115 115 115> 811 57<-76 250 -76 250>
VStem: 54 61<0 684>
LayerCount: 3
Fore
SplineSet
115 0 m 1
 54 0 l 1
 54 684 l 1
 115 684 l 1
 115 0 l 1
250 811 m 1
 -76 811 l 1
 -76 868 l 1
 250 868 l 1
 250 811 l 1
EndSplineSet
Position2: "'cpsp' Capital Spacing lookup 0 subtable" dx=5 dy=0 dh=10 dv=0
EndChar

StartChar: Iogonek
Encoding: 302 302 95
Width: 204
GlyphClass: 2
Flags: HMW
HStem: -205 53<54.5 79> 664 20G<54 115 115 115>
VStem: -21 65 54 61<1 684 0 684>
LayerCount: 3
Fore
SplineSet
130 -131 m 1
 155 -176 l 1
 143 -185 128 -192 112 -197 c 0
 96 -202 79 -205 65 -205 c 0
 44 -205 22 -199 3 -180 c 0
 -13 -164 -21 -143 -21 -117 c 0
 -21 -104 -19 -90 -13 -78 c 0
 -11 -74 -2 -57 6 -47 c 0
 13 -38 30 -21 32 -19 c 2
 54 1 l 1
 54 684 l 1
 115 684 l 1
 115 0 l 1
 89 -27 l 2
 82 -35 69 -48 63 -56 c 0
 56 -65 47 -79 44 -84 c 0
 39 -92 36 -101 36 -112 c 0
 36 -119 37 -128 44 -137 c 0
 48 -142 53 -147 63 -150 c 0
 67 -151 72 -152 77 -152 c 0
 81 -152 84 -151 88 -151 c 0
 97 -149 105 -146 113 -141 c 2
 130 -131 l 1
EndSplineSet
Position2: "'cpsp' Capital Spacing lookup 0 subtable" dx=5 dy=0 dh=10 dv=0
EndChar

StartChar: Itilde
Encoding: 296 296 96
Width: 204
GlyphClass: 2
Flags: HMW
HStem: 0 21G<54 115 54 54> 664 20G<54 115 115 115> 795 53<153 158> 830 53<7 15 7 8.5>
VStem: 54 61<0 684>
LayerCount: 3
Fore
SplineSet
115 0 m 1
 54 0 l 1
 54 684 l 1
 115 684 l 1
 115 0 l 1
-57 797 m 1
 -90 838 l 1
 -73 852 -57 862 -42 869 c 0
 -27 876 -12 881 3 883 c 0
 8 883 12 883 17 883 c 0
 27 883 37 882 48 880 c 0
 63 876 79 871 96 864 c 0
 110 858 123 854 134 851 c 0
 142 849 149 848 157 848 c 0
 160 848 163 848 166 849 c 0
 176 850 186 853 197 858 c 0
 207 863 218 871 230 881 c 1
 264 840 l 1
 232 813 201 799 171 796 c 2
 164 796 l 1
 158 795 l 2
 143 795 129 797 115 801 c 0
 101 805 88 810 76 815 c 0
 62 820 50 824 39 827 c 0
 30 829 23 830 15 830 c 0
 12 830 10 830 7 830 c 0
 -3 829 -13 825 -24 820 c 0
 -34 815 -45 807 -57 797 c 1
EndSplineSet
Position2: "'cpsp' Capital Spacing lookup 0 subtable" dx=5 dy=0 dh=10 dv=0
EndChar

StartChar: J
Encoding: 74 74 97
Width: 468
GlyphClass: 2
Flags: HMW
HStem: -4 57<189.5 229.5 189.5 233.5> 604 68 639 57<137 142.5> 667 20
VStem: 29 57.5 331 57<194 617 617 617>
AnchorPoint: "Anchor-3" 225 682 basechar 0
AnchorPoint: "Anchor-2" 0 0 basechar 0
AnchorPoint: "Anchor-1" 0 0 basechar 0
LayerCount: 3
Fore
SplineSet
31 667 m 1
 44 672 l 2
 48 675 55 678 68 682 c 0
 73 684 97 691 102 692 c 0
 115 695 134 696 140 696 c 0
 148 696 162 694 174 690 c 2
 225 672 l 2
 251 664 266 661 280 661 c 0
 294 661 302 664 314 672 c 0
 321 676 333 686 332 687 c 2
 388 687 l 1
 388 191 l 2
 388 165.961364738 387.352341678 160.352479139 386.794137784 160.352479139 c 0
 386.371418753 160.352479139 386 163.569059892 386 164 c 1
 385 158 385 145 380 127 c 0
 377 117 372 102 364 85 c 0
 355 67 347 57 336 46 c 0
 302 9 258 -4 209 -4 c 0
 156 -4 109 11 76 47 c 0
 58 65 48 85 41 106 c 0
 34 127 30 150 29 179 c 1
 62 177 l 2
 69 177 74 177 77 176 c 2
 83 175 l 1
 84 175 l 1
 86 174 l 1
 87 159 l 2
 89 153 87 154 91 137 c 0
 92 133 95 122 101 110 c 0
 106 99 111 93 117 85 c 0
 139 64 170 53 209 53 c 0
 250 53 274 65 295 84 c 0
 304 94 308 101 314 114 c 0
 319 126 323 137 325 145 c 0
 327 154 329 164 330 175 c 2
 331 194 l 1
 331 617 l 1
 324 613 313 609 310 608 c 0
 303 606 290 604 277 604 c 0
 261 604 242 607 230 610 c 0
 220 613 191 624 188 625 c 2
 161 635 l 2
 153 637 148 639 137 639 c 0
 121 639 105 635 93 631 c 0
 84 628 71 623 59 617 c 1
 56 618 l 1
 31 667 l 1
EndSplineSet
Position2: "'cpsp' Capital Spacing lookup 0 subtable" dx=5 dy=0 dh=10 dv=0
EndChar

StartChar: Jcircumflex
Encoding: 308 308 98
Width: 468
GlyphClass: 2
Flags: HMW
HStem: -4 57<189.5 229.5 189.5 233.5> 604 68 639 57<137 142.5> 667 20 787 142<77 249 77 249 200 373 200 305>
VStem: 29 57.5 331 57<194 617 617 617>
LayerCount: 3
Fore
SplineSet
31 667 m 1
 44 672 l 2
 48 675 55 678 68 682 c 0
 73 684 97 691 102 692 c 0
 115 695 134 696 140 696 c 0
 148 696 162 694 174 690 c 2
 225 672 l 2
 251 664 266 661 280 661 c 0
 294 661 302 664 314 672 c 0
 321 676 333 686 332 687 c 2
 388 687 l 1
 388 191 l 2
 388 165.961364738 387.352341678 160.352479139 386.794137784 160.352479139 c 0
 386.371418753 160.352479139 386 163.569059892 386 164 c 1
 385 158 385 145 380 127 c 0
 377 117 372 102 364 85 c 0
 355 67 347 57 336 46 c 0
 302 9 258 -4 209 -4 c 0
 156 -4 109 11 76 47 c 0
 58 65 48 85 41 106 c 0
 34 127 30 150 29 179 c 1
 62 177 l 2
 69 177 74 177 77 176 c 2
 83 175 l 1
 84 175 l 1
 86 174 l 1
 87 159 l 2
 89 153 87 154 91 137 c 0
 92 133 95 122 101 110 c 0
 106 99 111 93 117 85 c 0
 139 64 170 53 209 53 c 0
 250 53 274 65 295 84 c 0
 304 94 308 101 314 114 c 0
 319 126 323 137 325 145 c 0
 327 154 329 164 330 175 c 2
 331 194 l 1
 331 617 l 1
 324 613 313 609 310 608 c 0
 303 606 290 604 277 604 c 0
 261 604 242 607 230 610 c 0
 220 613 191 624 188 625 c 2
 161 635 l 2
 153 637 148 639 137 639 c 0
 121 639 105 635 93 631 c 0
 84 628 71 623 59 617 c 1
 56 618 l 1
 31 667 l 1
373 787 m 1
 305 787 l 1
 225 876 l 1
 144 787 l 1
 77 787 l 1
 200 929 l 1
 249 929 l 1
 373 787 l 1
EndSplineSet
Position2: "'cpsp' Capital Spacing lookup 0 subtable" dx=5 dy=0 dh=10 dv=0
EndChar

StartChar: K
Encoding: 75 75 99
Width: 643
GlyphClass: 2
Flags: HMW
HStem: -8 57<501.5 512.5 501.5 515> -8 92<500 599> 1 21G<54 117 54 54> 312 60<142 157.5> 664 20G<54 115 115 115 414 489 489 489>
VStem: 54 61<372 684 372 684 372 684> 542 57<79 84>
AnchorPoint: "Anchor-3" 322 684 basechar 0
AnchorPoint: "Anchor-2" 322 0 basechar 0
AnchorPoint: "Anchor-1" 0 0 basechar 0
LayerCount: 3
Fore
SplineSet
414 684 m 1
 489 684 l 1
 441 599 454 618 438 588 c 0
 426 565 396 510 386 492 c 0
 370 463 350 432 334 408 c 0
 321 389 300 363 280 347 c 1
 480 64 l 2
 486 55 495 49 508 49 c 0
 517 49 525 52 532 59 c 0
 539 66 542 74 542 84 c 1
 599 84 l 1
 599 73 597 61 592 49 c 0
 587 37 580 27 573 20 c 0
 564 11 557 6 544 0 c 0
 531 -6 521 -8 509 -8 c 0
 491 -8 475 -3 467 1 c 0
 455 7 442 18 433 31 c 2
 226 324 l 1
 197 315 172 312 143 312 c 0
 141 312 128 312 117 313 c 1
 117 1 l 1
 54 1 l 1
 54 684 l 1
 115 684 l 1
 115 372 l 1
 158 372 l 2
 189 373 208 379 223 386 c 0
 242 395 257 408 269 423 c 0
 285 443 319 497 337 529 c 0
 356 562 385 623 414 684 c 1
EndSplineSet
Substitution2: "'ss02' Style Set 2 lookup 13 subtable" K.ss02
Substitution2: "'aalt' Access All Alternates lookup 0 subtable" K.ss02
Position2: "'cpsp' Capital Spacing lookup 0 subtable" dx=5 dy=0 dh=10 dv=0
EndChar

StartChar: K.ss02
Encoding: 1114125 -1 100
Width: 633
GlyphClass: 2
Flags: HMW
HStem: -8 57<501.5 512.5 501.5 515> 1 21G<54 117 54 54> 312 60<142 157.5> 664 20G<54 115 115 115 414 489 489 489>
VStem: 54 61<372 684 372 684 372 684>
AnchorPoint: "Anchor-3" 322 684 basechar 0
AnchorPoint: "Anchor-2" 322 0 basechar 0
AnchorPoint: "Anchor-1" 0 0 basechar 0
LayerCount: 3
Fore
SplineSet
414 684 m 1
 489 684 l 1
 441 599 454 618 438 588 c 0
 426 565 396 510 386 492 c 0
 370 463 350 432 334 408 c 0
 321 389 300 363 280 347 c 1
 480 64 l 2
 486 55 495 49 508 49 c 0
 517 49 525 52 532 59 c 1
 573 20 l 1
 564 11 557 6 544 0 c 0
 531 -6 521 -8 509 -8 c 0
 491 -8 475 -3 467 1 c 0
 455 7 442 18 433 31 c 2
 226 324 l 1
 197 315 172 312 143 312 c 0
 141 312 128 312 117 313 c 1
 117 1 l 1
 54 1 l 1
 54 684 l 1
 115 684 l 1
 115 372 l 1
 158 372 l 2
 189 373 208 379 223 386 c 0
 242 395 257 408 269 423 c 0
 285 443 319 497 337 529 c 0
 356 562 385 623 414 684 c 1
EndSplineSet
Position2: "'cpsp' Capital Spacing lookup 0 subtable" dx=5 dy=0 dh=10 dv=0
EndChar

StartChar: Kcaron
Encoding: 488 488 101
Width: 643
GlyphClass: 2
Flags: HMW
HStem: -8 57<501.5 512.5 501.5 515> -8 92<500 599> 1 21G<54 117 54 54> 312 60<142 157.5> 664 20G<54 115 115 115 414 489 489 489> 779 142<174 346 174 297>
VStem: 54 61<372 684 372 684 372 684> 542 57<79 84>
LayerCount: 3
Fore
SplineSet
414 684 m 1
 489 684 l 1
 441 599 454 618 438 588 c 0
 426 565 396 510 386 492 c 0
 370 463 350 432 334 408 c 0
 321 389 300 363 280 347 c 1
 480 64 l 2
 486 55 495 49 508 49 c 0
 517 49 525 52 532 59 c 0
 539 66 542 74 542 84 c 1
 599 84 l 1
 599 73 597 61 592 49 c 0
 587 37 580 27 573 20 c 0
 564 11 557 6 544 0 c 0
 531 -6 521 -8 509 -8 c 0
 491 -8 475 -3 467 1 c 0
 455 7 442 18 433 31 c 2
 226 324 l 1
 197 315 172 312 143 312 c 0
 141 312 128 312 117 313 c 1
 117 1 l 1
 54 1 l 1
 54 684 l 1
 115 684 l 1
 115 372 l 1
 158 372 l 2
 189 373 208 379 223 386 c 0
 242 395 257 408 269 423 c 0
 285 443 319 497 337 529 c 0
 356 562 385 623 414 684 c 1
346 779 m 1
 297 779 l 1
 174 921 l 1
 241 921 l 1
 322 832 l 1
 402 921 l 1
 470 921 l 1
 346 779 l 1
EndSplineSet
Position2: "'cpsp' Capital Spacing lookup 0 subtable" dx=5 dy=0 dh=10 dv=0
EndChar

StartChar: Kcommaaccent
Encoding: 310 310 102
Width: 643
GlyphClass: 2
Flags: HMW
HStem: -285 207<287 301 247 351> -8 57<501.5 512.5 501.5 515> -8 92<500 599> 1 21G<54 117 54 54> 312 60<142 157.5> 664 20G<54 115 115 115 414 489 489 489>
VStem: 54 61<372 684 372 684 372 684> 542 57<79 84>
LayerCount: 3
Fore
SplineSet
301 -285 m 1
 247 -285 l 1
 287 -78 l 1
 351 -78 l 1
 301 -285 l 1
414 684 m 1
 489 684 l 1
 441 599 454 618 438 588 c 0
 426 565 396 510 386 492 c 0
 370 463 350 432 334 408 c 0
 321 389 300 363 280 347 c 1
 480 64 l 2
 486 55 495 49 508 49 c 0
 517 49 525 52 532 59 c 0
 539 66 542 74 542 84 c 1
 599 84 l 1
 599 73 597 61 592 49 c 0
 587 37 580 27 573 20 c 0
 564 11 557 6 544 0 c 0
 531 -6 521 -8 509 -8 c 0
 491 -8 475 -3 467 1 c 0
 455 7 442 18 433 31 c 2
 226 324 l 1
 197 315 172 312 143 312 c 0
 141 312 128 312 117 313 c 1
 117 1 l 1
 54 1 l 1
 54 684 l 1
 115 684 l 1
 115 372 l 1
 158 372 l 2
 189 373 208 379 223 386 c 0
 242 395 257 408 269 423 c 0
 285 443 319 497 337 529 c 0
 356 562 385 623 414 684 c 1
EndSplineSet
Position2: "'cpsp' Capital Spacing lookup 0 subtable" dx=5 dy=0 dh=10 dv=0
EndChar

StartChar: L
Encoding: 76 76 103
Width: 512
GlyphClass: 2
Flags: HMW
HStem: 0 57<115 442 115 442> 664 20G<54 115 115 115>
VStem: 54 61<57 57 57 684>
AnchorPoint: "Anchor-3" 256 684 basechar 0
AnchorPoint: "Anchor-2" 256 0 basechar 0
AnchorPoint: "Anchor-1" 0 0 basechar 0
LayerCount: 3
Fore
SplineSet
115 57 m 1
 442 57 l 1
 442 0 l 1
 54 0 l 1
 54 684 l 1
 115 684 l 1
 115 57 l 1
EndSplineSet
Position2: "'cpsp' Capital Spacing lookup 0 subtable" dx=5 dy=0 dh=10 dv=0
EndChar

StartChar: LJ
Encoding: 455 455 104
Width: 980
GlyphClass: 2
Flags: HMW
HStem: -4 57<701.5 741.5 701.5 745.5> 0 57<115 442 115 442> 604 68 639 57<649 654.5> 664 20G<54 115 115 115> 667 20
VStem: 54 61<57 57 57 684> 541 57.5 843 57<194 617 617 617>
LayerCount: 3
Fore
SplineSet
115 57 m 1
 442 57 l 1
 442 0 l 1
 54 0 l 1
 54 684 l 1
 115 684 l 1
 115 57 l 1
543 667 m 1
 556 672 l 2
 560 675 567 678 580 682 c 0
 585 684 609 691 614 692 c 0
 627 695 646 696 652 696 c 0
 660 696 674 694 686 690 c 2
 737 672 l 2
 763 664 778 661 792 661 c 0
 806 661 814 664 826 672 c 0
 833 676 845 686 844 687 c 2
 900 687 l 1
 900 191 l 2
 900 165.961364738 899.352341678 160.352479139 898.794137784 160.352479139 c 0
 898.371418753 160.352479139 898 163.569059892 898 164 c 1
 897 158 897 145 892 127 c 0
 889 117 884 102 876 85 c 0
 867 67 859 57 848 46 c 0
 814 9 770 -4 721 -4 c 0
 668 -4 621 11 588 47 c 0
 570 65 560 85 553 106 c 0
 546 127 542 150 541 179 c 1
 574 177 l 2
 581 177 586 177 589 176 c 2
 595 175 l 1
 596 175 l 1
 598 174 l 1
 599 159 l 2
 601 153 599 154 603 137 c 0
 604 133 607 122 613 110 c 0
 618 99 623 93 629 85 c 0
 651 64 682 53 721 53 c 0
 762 53 786 65 807 84 c 0
 816 94 820 101 826 114 c 0
 831 126 835 137 837 145 c 0
 839 154 841 164 842 175 c 2
 843 194 l 1
 843 617 l 1
 836 613 825 609 822 608 c 0
 815 606 802 604 789 604 c 0
 773 604 754 607 742 610 c 0
 732 613 703 624 700 625 c 2
 673 635 l 2
 665 637 660 639 649 639 c 0
 633 639 617 635 605 631 c 0
 596 628 583 623 571 617 c 1
 568 618 l 1
 543 667 l 1
EndSplineSet
Position2: "'cpsp' Capital Spacing lookup 0 subtable" dx=5 dy=0 dh=10 dv=0
EndChar

StartChar: Lacute
Encoding: 313 313 105
Width: 512
GlyphClass: 2
Flags: HMW
HStem: 0 57<115 442 115 442> 664 20G<54 115 115 115>
VStem: 54 61<57 57 57 684>
LayerCount: 3
Fore
SplineSet
115 57 m 1
 442 57 l 1
 442 0 l 1
 54 0 l 1
 54 684 l 1
 115 684 l 1
 115 57 l 1
422 861 m 1
 250 751 l 1
 228 785 l 1
 386 910 l 1
 422 861 l 1
EndSplineSet
Position2: "'cpsp' Capital Spacing lookup 0 subtable" dx=5 dy=0 dh=10 dv=0
EndChar

StartChar: Lcaron
Encoding: 317 317 106
Width: 512
GlyphClass: 2
Flags: HMW
HStem: 0 57<115 442 115 442> 664 20G<54 115 115 115>
VStem: 54 61<57 57 57 684>
LayerCount: 3
Fore
SplineSet
115 57 m 1
 442 57 l 1
 442 0 l 1
 54 0 l 1
 54 684 l 1
 115 684 l 1
 115 57 l 1
EndSplineSet
Position2: "'cpsp' Capital Spacing lookup 0 subtable" dx=5 dy=0 dh=10 dv=0
EndChar

StartChar: Lcommaaccent
Encoding: 315 315 107
Width: 512
GlyphClass: 2
Flags: HMW
HStem: -285 207<221 235 181 285> 0 57<115 442 115 442> 664 20G<54 115 115 115>
VStem: 54 61<57 57 57 684>
LayerCount: 3
Fore
SplineSet
235 -285 m 1
 181 -285 l 1
 221 -78 l 1
 285 -78 l 1
 235 -285 l 1
115 57 m 1
 442 57 l 1
 442 0 l 1
 54 0 l 1
 54 684 l 1
 115 684 l 1
 115 57 l 1
EndSplineSet
Position2: "'cpsp' Capital Spacing lookup 0 subtable" dx=5 dy=0 dh=10 dv=0
EndChar

StartChar: Ldot
Encoding: 319 319 108
Width: 512
GlyphClass: 2
Flags: HMW
HStem: 0 57<115 442 115 442> 267 119<268.5 301> 664 20G<54 115 115 115>
VStem: 54 61<57 57 57 684> 225 119<310.5 343>
LayerCount: 3
Fore
SplineSet
285 386 m 0
 317 386 344 359 344 327 c 0
 344 294 317 267 285 267 c 0
 252 267 225 294 225 327 c 0
 225 359 252 386 285 386 c 0
115 57 m 1
 442 57 l 1
 442 0 l 1
 54 0 l 1
 54 684 l 1
 115 684 l 1
 115 57 l 1
EndSplineSet
Ligature2: "Ligature Substitution lookup 14 subtable" L periodcentered
Position2: "'cpsp' Capital Spacing lookup 0 subtable" dx=5 dy=0 dh=10 dv=0
EndChar

StartChar: Lj
Encoding: 456 456 109
Width: 726
GlyphClass: 2
Flags: HMW
HStem: -260 55<550.5 561.5 550.5 563> 0 57<115 442 115 442> 481 20G<591 646 646 646> 623 85<603.5 627> 664 20G<54 115 115 115>
VStem: 54 61<57 57 57 684> 573 85<653.5 677> 591 55<-170 501>
LayerCount: 3
Fore
SplineSet
646 501 m 1
 646 -170 l 2
 646 -183 644 -195 639 -206 c 0
 634 -217 628 -226 620 -234 c 0
 612 -242 603 -248 592 -253 c 0
 581 -258 569 -260 557 -260 c 0
 542 -260 528 -257 515 -250 c 0
 502 -243 491 -233 482 -220 c 1
 528 -190 l 1
 535 -200 544 -205 557 -205 c 0
 566 -205 574 -202 581 -195 c 0
 588 -188 591 -179 591 -170 c 2
 591 501 l 1
 646 501 l 1
115 57 m 1
 442 57 l 1
 442 0 l 1
 54 0 l 1
 54 684 l 1
 115 684 l 1
 115 57 l 1
615 708 m 0
 639 708 658 689 658 665 c 0
 658 642 639 623 615 623 c 0
 592 623 573 642 573 665 c 0
 573 689 592 708 615 708 c 0
EndSplineSet
Position2: "'cpsp' Capital Spacing lookup 0 subtable" dx=5 dy=0 dh=10 dv=0
EndChar

StartChar: Lslash
Encoding: 321 321 110
Width: 525
GlyphClass: 2
Flags: HMW
HStem: 0 57<148 475 148 475> 664 20G<87 148 148 148>
VStem: 87 61<57 324 324 324 432 684>
LayerCount: 3
Fore
SplineSet
475 57 m 1
 475 0 l 1
 87 0 l 1
 87 324 l 1
 10 269 l 1
 10 332 l 1
 87 388 l 1
 87 684 l 1
 148 684 l 1
 148 432 l 1
 230 491 l 1
 230 427 l 1
 148 368 l 1
 148 57 l 1
 475 57 l 1
EndSplineSet
Position2: "'cpsp' Capital Spacing lookup 0 subtable" dx=5 dy=0 dh=10 dv=0
EndChar

StartChar: M
Encoding: 77 77 111
Width: 1011
GlyphClass: 2
Flags: HMW
HStem: -7 56<92.5 104 92.5 108.5> 0 21G<502 561 502 502 894 951 894 894> 0 74<532 532 532 561 502 532> 601 83<289 289 775 775> 664 20G<253 312 312 312 754 811 811 811>
VStem: 15 936<0 48>
LayerCount: 3
Fore
SplineSet
951 0 m 1
 894 0 l 1
 781 563 l 1
 775 601 l 1
 764 562 l 1
 561 0 l 1
 502 0 l 1
 300 561 l 1
 289 601 l 1
 283 561 l 1
 183 64 l 2
 179 44 169 27 153 14 c 0
 136 0 118 -7 99 -7 c 0
 81 -7 64 -2 49 8 c 0
 34 17 22 31 15 48 c 1
 67 69 l 1
 70 64 74 59 79 55 c 0
 84 51 89 49 96 49 c 0
 112 49 122 56 127 71 c 2
 253 684 l 1
 312 684 l 1
 521 113 l 1
 532 74 l 1
 543 113 l 1
 754 684 l 1
 811 684 l 1
 951 0 l 1
EndSplineSet
Substitution2: "'ss02' Style Set 2 lookup 13 subtable" M.ss02
Substitution2: "'aalt' Access All Alternates lookup 0 subtable" M.ss02
Position2: "'cpsp' Capital Spacing lookup 0 subtable" dx=5 dy=0 dh=10 dv=0
EndChar

StartChar: M.ss02
Encoding: 1114126 -1 112
Width: 814
GlyphClass: 2
Flags: HMW
HStem: 0 21G<95 156 95 95 658 719 658 658> 673 20G<95 114 114 114 700 719 719 719>
VStem: 95 61<0 454 0 693> 658 61<0 454 454 470.5>
LayerCount: 3
Fore
SplineSet
719 0 m 1
 658 0 l 1
 658 454 l 2
 658 487 662 534 666 568 c 1
 638 529 605 483 580 454 c 2
 444 293 l 1
 395 243 l 1
 376 265 338 309 319 333 c 2
 221 454 l 2
 199 481 171 521 148 557 c 1
 152 524 156 484 156 454 c 2
 156 0 l 1
 95 0 l 1
 95 693 l 1
 114 693 l 1
 380 354 l 2
 385 347 392 339 401 330 c 1
 700 693 l 1
 719 693 l 1
 719 0 l 1
EndSplineSet
Position2: "'cpsp' Capital Spacing lookup 0 subtable" dx=5 dy=0 dh=10 dv=0
EndChar

StartChar: N
Encoding: 78 78 113
Width: 780
GlyphClass: 2
Flags: HMW
HStem: -4 66 0 21G<680 698 680 680> 663 20G<639 698 698 698> 664 20G<139 177 177 177>
VStem: 14 56<81.5 86 81.5 86> 139 60<85 584> 639 59<129 683 0 683>
AnchorPoint: "Anchor-3" 420 684 basechar 0
AnchorPoint: "Anchor-2" 421 0 basechar 0
AnchorPoint: "Anchor-1" 0 0 basechar 0
LayerCount: 3
Fore
SplineSet
288 559 m 1
 628 151 l 1
 639 129 l 1
 639 683 l 1
 698 683 l 1
 698 0 l 1
 680 0 l 1
 209 563 l 1
 199 584 l 1
 199 85 l 2
 199 73 196 61 191 50 c 0
 186 39 179 30 170 22 c 0
 161 14 150 8 139 3 c 0
 128 -2 116 -4 104 -4 c 0
 79 -4 58 5 41 22 c 0
 23 40 14 61 14 86 c 1
 70 86 l 1
 70 77 73 69 80 62 c 0
 87 55 95 52 104 52 c 0
 113 52 121 55 128 62 c 0
 135 68 138 76 139 85 c 2
 139 684 l 1
 177 684 l 1
 288 559 l 1
EndSplineSet
Substitution2: "'ss02' Style Set 2 lookup 13 subtable" N.ss02
Substitution2: "'aalt' Access All Alternates lookup 0 subtable" N.ss02
Position2: "'cpsp' Capital Spacing lookup 0 subtable" dx=5 dy=0 dh=10 dv=0
EndChar

StartChar: N.ss02
Encoding: 1114127 -1 114
Width: 774
GlyphClass: 2
Flags: HMW
HStem: -1 21G<640 666 640 640> 0 21G<95 156 95 95> 665 20G<605 666 666 666> 674 20G<95 114 114 114>
VStem: 95 61<0 455 0 694> 605 61<189 685 -1 685>
AnchorPoint: "Anchor-3" 387 0 basechar 0
AnchorPoint: "Anchor-2" 387 0 basechar 0
AnchorPoint: "Anchor-1" 0 0 basechar 0
LayerCount: 3
Fore
SplineSet
575 144 m 1
 590 127 l 2
 595 120 602 114 609 107 c 1
 608 120 607 134 606 148 c 0
 605 162 605 176 605 189 c 2
 605 685 l 1
 666 685 l 1
 666 -1 l 1
 640 -1 l 1
 536 98 l 1
 228 455 l 2
 216 469 203 485 189 504 c 0
 175 523 162 542 149 561 c 1
 153 507 l 2
 155 488 156 470 156 455 c 2
 156 0 l 1
 95 0 l 1
 95 694 l 1
 114 694 l 1
 575 144 l 1
EndSplineSet
Position2: "'cpsp' Capital Spacing lookup 0 subtable" dx=5 dy=0 dh=10 dv=0
EndChar

StartChar: NJ
Encoding: 458 458 115
Width: 1248
GlyphClass: 2
Flags: HMW
HStem: -4 57<969.5 1009.5 969.5 1013.5> -4 66 0 21G<680 698 680 680> 604 68 639 57<917 922.5> 663 20G<639 698 698 698> 664 20G<139 177 177 177> 667 20
VStem: 14 56<81.5 86 81.5 86> 139 60<85 584> 639 59<129 683 0 683> 809 57.5 1111 57<194 617 617 617>
LayerCount: 3
Fore
SplineSet
288 559 m 1
 628 151 l 1
 639 129 l 1
 639 683 l 1
 698 683 l 1
 698 0 l 1
 680 0 l 1
 209 563 l 1
 199 584 l 1
 199 85 l 2
 199 73 196 61 191 50 c 0
 186 39 179 30 170 22 c 0
 161 14 150 8 139 3 c 0
 128 -2 116 -4 104 -4 c 0
 79 -4 58 5 41 22 c 0
 23 40 14 61 14 86 c 1
 70 86 l 1
 70 77 73 69 80 62 c 0
 87 55 95 52 104 52 c 0
 113 52 121 55 128 62 c 0
 135 68 138 76 139 85 c 2
 139 684 l 1
 177 684 l 1
 288 559 l 1
811 667 m 1
 824 672 l 2
 828 675 835 678 848 682 c 0
 853 684 877 691 882 692 c 0
 895 695 914 696 920 696 c 0
 928 696 942 694 954 690 c 2
 1005 672 l 2
 1031 664 1046 661 1060 661 c 0
 1074 661 1082 664 1094 672 c 0
 1101 676 1113 686 1112 687 c 2
 1168 687 l 1
 1168 191 l 2
 1168 165.961364738 1167.35234168 160.352479139 1166.79413778 160.352479139 c 0
 1166.37141875 160.352479139 1166 163.569059892 1166 164 c 1
 1165 158 1165 145 1160 127 c 0
 1157 117 1152 102 1144 85 c 0
 1135 67 1127 57 1116 46 c 0
 1082 9 1038 -4 989 -4 c 0
 936 -4 889 11 856 47 c 0
 838 65 828 85 821 106 c 0
 814 127 810 150 809 179 c 1
 842 177 l 2
 849 177 854 177 857 176 c 2
 863 175 l 1
 864 175 l 1
 866 174 l 1
 867 159 l 2
 869 153 867 154 871 137 c 0
 872 133 875 122 881 110 c 0
 886 99 891 93 897 85 c 0
 919 64 950 53 989 53 c 0
 1030 53 1054 65 1075 84 c 0
 1084 94 1088 101 1094 114 c 0
 1099 126 1103 137 1105 145 c 0
 1107 154 1109 164 1110 175 c 2
 1111 194 l 1
 1111 617 l 1
 1104 613 1093 609 1090 608 c 0
 1083 606 1070 604 1057 604 c 0
 1041 604 1022 607 1010 610 c 0
 1000 613 971 624 968 625 c 2
 941 635 l 2
 933 637 928 639 917 639 c 0
 901 639 885 635 873 631 c 0
 864 628 851 623 839 617 c 1
 836 618 l 1
 811 667 l 1
EndSplineSet
Position2: "'cpsp' Capital Spacing lookup 0 subtable" dx=5 dy=0 dh=10 dv=0
EndChar

StartChar: Nacute
Encoding: 323 323 116
Width: 780
GlyphClass: 2
Flags: HMW
HStem: -4 66 0 21G<680 698 680 680> 663 20G<639 698 698 698> 664 20G<139 177 177 177>
VStem: 14 56<81.5 86 81.5 86> 139 60<85 584> 639 59<129 683 0 683>
LayerCount: 3
Fore
SplineSet
288 559 m 1
 628 151 l 1
 639 129 l 1
 639 683 l 1
 698 683 l 1
 698 0 l 1
 680 0 l 1
 209 563 l 1
 199 584 l 1
 199 85 l 2
 199 73 196 61 191 50 c 0
 186 39 179 30 170 22 c 0
 161 14 150 8 139 3 c 0
 128 -2 116 -4 104 -4 c 0
 79 -4 58 5 41 22 c 0
 23 40 14 61 14 86 c 1
 70 86 l 1
 70 77 73 69 80 62 c 0
 87 55 95 52 104 52 c 0
 113 52 121 55 128 62 c 0
 135 68 138 76 139 85 c 2
 139 684 l 1
 177 684 l 1
 288 559 l 1
586 861 m 1
 414 751 l 1
 392 785 l 1
 550 910 l 1
 586 861 l 1
EndSplineSet
Position2: "'cpsp' Capital Spacing lookup 0 subtable" dx=5 dy=0 dh=10 dv=0
EndChar

StartChar: Ncaron
Encoding: 327 327 117
Width: 780
GlyphClass: 2
Flags: HMW
HStem: -4 66 0 21G<680 698 680 680> 663 20G<639 698 698 698> 664 20G<139 177 177 177> 779 142<272 444 272 395>
VStem: 14 56<81.5 86 81.5 86> 139 60<85 584> 639 59<129 683 0 683>
LayerCount: 3
Fore
SplineSet
288 559 m 1
 628 151 l 1
 639 129 l 1
 639 683 l 1
 698 683 l 1
 698 0 l 1
 680 0 l 1
 209 563 l 1
 199 584 l 1
 199 85 l 2
 199 73 196 61 191 50 c 0
 186 39 179 30 170 22 c 0
 161 14 150 8 139 3 c 0
 128 -2 116 -4 104 -4 c 0
 79 -4 58 5 41 22 c 0
 23 40 14 61 14 86 c 1
 70 86 l 1
 70 77 73 69 80 62 c 0
 87 55 95 52 104 52 c 0
 113 52 121 55 128 62 c 0
 135 68 138 76 139 85 c 2
 139 684 l 1
 177 684 l 1
 288 559 l 1
444 779 m 1
 395 779 l 1
 272 921 l 1
 339 921 l 1
 420 832 l 1
 500 921 l 1
 568 921 l 1
 444 779 l 1
EndSplineSet
Position2: "'cpsp' Capital Spacing lookup 0 subtable" dx=5 dy=0 dh=10 dv=0
EndChar

StartChar: Ncommaaccent
Encoding: 325 325 118
Width: 780
GlyphClass: 2
Flags: HMW
HStem: -285 207<386 400 346 450> -4 66 0 21G<680 698 680 680> 663 20G<639 698 698 698> 664 20G<139 177 177 177>
VStem: 14 56<81.5 86 81.5 86> 139 60<85 584> 639 59<129 683 0 683>
LayerCount: 3
Fore
SplineSet
400 -285 m 1
 346 -285 l 1
 386 -78 l 1
 450 -78 l 1
 400 -285 l 1
288 559 m 1
 628 151 l 1
 639 129 l 1
 639 683 l 1
 698 683 l 1
 698 0 l 1
 680 0 l 1
 209 563 l 1
 199 584 l 1
 199 85 l 2
 199 73 196 61 191 50 c 0
 186 39 179 30 170 22 c 0
 161 14 150 8 139 3 c 0
 128 -2 116 -4 104 -4 c 0
 79 -4 58 5 41 22 c 0
 23 40 14 61 14 86 c 1
 70 86 l 1
 70 77 73 69 80 62 c 0
 87 55 95 52 104 52 c 0
 113 52 121 55 128 62 c 0
 135 68 138 76 139 85 c 2
 139 684 l 1
 177 684 l 1
 288 559 l 1
EndSplineSet
Position2: "'cpsp' Capital Spacing lookup 0 subtable" dx=5 dy=0 dh=10 dv=0
EndChar

StartChar: uni01F8
Encoding: 504 504 119
Width: 780
GlyphClass: 2
Flags: HMW
HStem: -4 66 0 21G<680 698 680 680> 663 20G<639 698 698 698> 664 20G<139 177 177 177>
VStem: 14 56<81.5 86 81.5 86> 139 60<85 584> 639 59<129 683 0 683>
LayerCount: 3
Fore
SplineSet
288 559 m 1
 628 151 l 1
 639 129 l 1
 639 683 l 1
 698 683 l 1
 698 0 l 1
 680 0 l 1
 209 563 l 1
 199 584 l 1
 199 85 l 2
 199 73 196 61 191 50 c 0
 186 39 179 30 170 22 c 0
 161 14 150 8 139 3 c 0
 128 -2 116 -4 104 -4 c 0
 79 -4 58 5 41 22 c 0
 23 40 14 61 14 86 c 1
 70 86 l 1
 70 77 73 69 80 62 c 0
 87 55 95 52 104 52 c 0
 113 52 121 55 128 62 c 0
 135 68 138 76 139 85 c 2
 139 684 l 1
 177 684 l 1
 288 559 l 1
453 785 m 1
 431 751 l 1
 259 861 l 1
 295 910 l 1
 453 785 l 1
EndSplineSet
Position2: "'cpsp' Capital Spacing lookup 0 subtable" dx=5 dy=0 dh=10 dv=0
EndChar

StartChar: Nj
Encoding: 459 459 121
Width: 1024
GlyphClass: 2
Flags: HMW
HStem: -260 55<848.5 859.5 848.5 861> -4 66 0 21G<680 698 680 680> 481 20G<889 944 944 944> 623 85<901.5 925> 663 20G<639 698 698 698> 664 20G<139 177 177 177>
VStem: 14 56<81.5 86 81.5 86> 139 60<85 584> 639 59<129 683 0 683> 871 85<653.5 677> 889 55<-170 501>
LayerCount: 3
Fore
SplineSet
944 501 m 1
 944 -170 l 2
 944 -183 942 -195 937 -206 c 0
 932 -217 926 -226 918 -234 c 0
 910 -242 901 -248 890 -253 c 0
 879 -258 867 -260 855 -260 c 0
 840 -260 826 -257 813 -250 c 0
 800 -243 789 -233 780 -220 c 1
 826 -190 l 1
 833 -200 842 -205 855 -205 c 0
 864 -205 872 -202 879 -195 c 0
 886 -188 889 -179 889 -170 c 2
 889 501 l 1
 944 501 l 1
288 559 m 1
 628 151 l 1
 639 129 l 1
 639 683 l 1
 698 683 l 1
 698 0 l 1
 680 0 l 1
 209 563 l 1
 199 584 l 1
 199 85 l 2
 199 73 196 61 191 50 c 0
 186 39 179 30 170 22 c 0
 161 14 150 8 139 3 c 0
 128 -2 116 -4 104 -4 c 0
 79 -4 58 5 41 22 c 0
 23 40 14 61 14 86 c 1
 70 86 l 1
 70 77 73 69 80 62 c 0
 87 55 95 52 104 52 c 0
 113 52 121 55 128 62 c 0
 135 68 138 76 139 85 c 2
 139 684 l 1
 177 684 l 1
 288 559 l 1
913 708 m 0
 937 708 956 689 956 665 c 0
 956 642 937 623 913 623 c 0
 890 623 871 642 871 665 c 0
 871 689 890 708 913 708 c 0
EndSplineSet
Position2: "'cpsp' Capital Spacing lookup 0 subtable" dx=5 dy=0 dh=10 dv=0
EndChar

StartChar: Ntilde
Encoding: 209 209 122
Width: 780
GlyphClass: 2
Flags: HMW
HStem: -4 66 0 21G<680 698 680 680> 663 20G<639 698 698 698> 664 20G<139 177 177 177> 795 53<486 491> 830 53<340 348 340 341.5>
VStem: 14 56<81.5 86 81.5 86> 139 60<85 584> 639 59<129 683 0 683>
LayerCount: 3
Fore
SplineSet
288 559 m 1
 628 151 l 1
 639 129 l 1
 639 683 l 1
 698 683 l 1
 698 0 l 1
 680 0 l 1
 209 563 l 1
 199 584 l 1
 199 85 l 2
 199 73 196 61 191 50 c 0
 186 39 178 30 169 22 c 0
 160 14 150 8 139 3 c 0
 128 -2 116 -4 104 -4 c 0
 79 -4 58 5 40 22 c 0
 23 40 14 61 14 86 c 1
 70 86 l 1
 70 77 73 69 80 62 c 0
 87 55 95 52 104 52 c 0
 113 52 121 55 128 62 c 0
 135 68 138 76 139 85 c 2
 139 684 l 1
 177 684 l 1
 288 559 l 1
276 797 m 1
 243 838 l 1
 260 852 276 862 291 869 c 0
 306 876 321 881 336 883 c 0
 341 883 345 883 350 883 c 0
 360 883 370 882 381 880 c 0
 396 876 412 871 429 864 c 0
 443 858 456 854 467 851 c 0
 475 849 482 848 490 848 c 0
 493 848 496 848 499 849 c 0
 509 850 519 853 530 858 c 0
 540 863 551 871 563 881 c 1
 597 840 l 1
 565 813 534 799 504 796 c 2
 497 796 l 1
 491 795 l 2
 476 795 462 797 448 801 c 0
 434 805 421 810 409 815 c 0
 395 820 383 824 372 827 c 0
 363 829 356 830 348 830 c 0
 345 830 343 830 340 830 c 0
 330 829 320 825 310 820 c 0
 299 815 288 807 276 797 c 1
EndSplineSet
Position2: "'cpsp' Capital Spacing lookup 0 subtable" dx=5 dy=0 dh=10 dv=0
EndChar

StartChar: O
Encoding: 79 79 123
Width: 809
GlyphClass: 2
Flags: HMW
HStem: -27 55<368 409.5 368 416.5> 651 55<366.5 409.5>
VStem: 40 56<330 349 309 370> 683 56<330 349 306 379>
AnchorPoint: "Anchor-3" 388 684 basechar 0
AnchorPoint: "Anchor-2" 390 -28 basechar 0
AnchorPoint: "Anchor-1" 642 83 basechar 0
LayerCount: 3
Fore
SplineSet
683 330 m 2
 683 349 l 2
 683 409 676 428 660 466 c 0
 645 502 625 533 597 562 c 0
 570 590 534 614 504 627 c 0
 471 642 431 651 388 651 c 0
 345 651 310 642 276 627 c 0
 242 612 210 591 182 562 c 0
 154 533 133 500 119 466 c 0
 104 430 96 391 96 349 c 2
 96 330 l 2
 96 288 104 249 119 213 c 0
 136 172 158 142 182 117 c 0
 208 90 241 67 276 52 c 0
 312 36 348 28 388 28 c 0
 431 28 471 37 504 52 c 0
 533 65 569 88 597 117 c 0
 626 147 645 178 660 213 c 0
 675 249 683 288 683 330 c 2
40 330 m 2
 40 349 l 2
 40 391 48 437 66 482 c 0
 82 522 107 563 137 595 c 0
 166 626 205 656 248 676 c 0
 287 694 335 706 389 706 c 0
 441 706 487 695 527 677 c 0
 569 658 605 632 638 598 c 0
 666 569 693 532 712 486 c 0
 731 440 739 393 739 349 c 2
 739 330 l 2
 739 282 732 239 715 198 c 0
 699 159 672 116 642 83 c 0
 613 51 575 22 533 3 c 0
 489 -17 441 -27 392 -27 c 0
 342 -27 297 -17 256 1 c 0
 215 19 179 44 144 79 c 0
 116 107 88 144 68 192 c 0
 48 239 40 284 40 330 c 2
EndSplineSet
Substitution2: "Single Substitution lookup 15 subtable" ordmasculine
Substitution2: "'aalt' Access All Alternates lookup 0 subtable" ordmasculine
Position2: "'cpsp' Capital Spacing lookup 0 subtable" dx=5 dy=0 dh=10 dv=0
EndChar

StartChar: Oacute
Encoding: 211 211 124
Width: 809
GlyphClass: 2
Flags: HMW
HStem: -27 55<368 409.5 368 416.5> 651 55<366.5 409.5>
VStem: 40 56<330 349 309 370> 683 56<330 349 306 379>
LayerCount: 3
Fore
SplineSet
683 330 m 2
 683 349 l 2
 683 409 676 428 660 466 c 0
 645 502 625 533 597 562 c 0
 570 590 534 614 504 627 c 0
 471 642 431 651 388 651 c 0
 345 651 310 642 276 627 c 0
 242 612 210 591 182 562 c 0
 154 533 133 500 119 466 c 0
 104 430 96 391 96 349 c 2
 96 330 l 2
 96 288 104 249 119 213 c 0
 136 172 158 142 182 117 c 0
 208 90 241 67 276 52 c 0
 312 36 348 28 388 28 c 0
 431 28 471 37 504 52 c 0
 533 65 569 88 597 117 c 0
 626 147 645 178 660 213 c 0
 675 249 683 288 683 330 c 2
40 330 m 2
 40 349 l 2
 40 391 48 437 66 482 c 0
 82 522 107 563 137 595 c 0
 166 626 205 656 248 676 c 0
 287 694 335 706 389 706 c 0
 441 706 487 695 527 677 c 0
 569 658 605 632 638 598 c 0
 666 569 693 532 712 486 c 0
 731 440 739 393 739 349 c 2
 739 330 l 2
 739 282 732 239 715 198 c 0
 699 159 672 116 642 83 c 0
 613 51 575 22 533 3 c 0
 489 -17 441 -27 392 -27 c 0
 342 -27 297 -17 256 1 c 0
 215 19 179 44 144 79 c 0
 116 107 88 144 68 192 c 0
 48 239 40 284 40 330 c 2
554 861 m 1
 382 751 l 1
 360 785 l 1
 518 910 l 1
 554 861 l 1
EndSplineSet
Position2: "'cpsp' Capital Spacing lookup 0 subtable" dx=5 dy=0 dh=10 dv=0
EndChar

StartChar: Obreve
Encoding: 334 334 125
Width: 809
GlyphClass: 2
Flags: HMW
HStem: -27 55<368 409.5 368 416.5> 651 55<366.5 409.5> 776 54<373 402 373 411>
VStem: 40 56<330 349 309 370> 245 61<913 913> 468 61<913 913> 683 56<330 349 306 379>
LayerCount: 3
Fore
SplineSet
683 330 m 2
 683 349 l 2
 683 409 676 428 660 466 c 0
 645 502 625 533 597 562 c 0
 570 590 534 614 504 627 c 0
 471 642 431 651 388 651 c 0
 345 651 310 642 276 627 c 0
 242 612 210 591 182 562 c 0
 154 533 133 500 119 466 c 0
 104 430 96 391 96 349 c 2
 96 330 l 2
 96 288 104 249 119 213 c 0
 136 172 158 142 182 117 c 0
 208 90 241 67 276 52 c 0
 312 36 348 28 388 28 c 0
 431 28 471 37 504 52 c 0
 533 65 569 88 597 117 c 0
 626 147 645 178 660 213 c 0
 675 249 683 288 683 330 c 2
40 330 m 2
 40 349 l 2
 40 391 48 437 66 482 c 0
 82 522 107 563 137 595 c 0
 166 626 205 656 248 676 c 0
 287 694 335 706 389 706 c 0
 441 706 487 695 527 677 c 0
 569 658 605 632 638 598 c 0
 666 569 693 532 712 486 c 0
 731 440 739 393 739 349 c 2
 739 330 l 2
 739 282 732 239 715 198 c 0
 699 159 672 116 642 83 c 0
 613 51 575 22 533 3 c 0
 489 -17 441 -27 392 -27 c 0
 342 -27 297 -17 256 1 c 0
 215 19 179 44 144 79 c 0
 116 107 88 144 68 192 c 0
 48 239 40 284 40 330 c 2
468 913 m 1
 529 913 l 1
 528 873 516 840 493 815 c 0
 470 789 435 776 387 776 c 0
 340 776 305 789 282 815 c 0
 259 840 246 873 245 913 c 1
 306 913 l 1
 307 888 314 868 327 853 c 0
 339 838 359 830 387 830 c 0
 417 830 438 838 450 853 c 0
 461 868 467 888 468 913 c 1
EndSplineSet
Position2: "'cpsp' Capital Spacing lookup 0 subtable" dx=5 dy=0 dh=10 dv=0
EndChar

StartChar: Ocaron
Encoding: 465 465 126
Width: 809
GlyphClass: 2
Flags: HMW
HStem: -27 55<368 409.5 368 416.5> 651 55<366.5 409.5> 779 142<240 412 240 363>
VStem: 40 56<330 349 309 370> 683 56<330 349 306 379>
LayerCount: 3
Fore
SplineSet
683 330 m 2
 683 349 l 2
 683 409 676 428 660 466 c 0
 645 502 625 533 597 562 c 0
 570 590 534 614 504 627 c 0
 471 642 431 651 388 651 c 0
 345 651 310 642 276 627 c 0
 242 612 210 591 182 562 c 0
 154 533 133 500 119 466 c 0
 104 430 96 391 96 349 c 2
 96 330 l 2
 96 288 104 249 119 213 c 0
 136 172 158 142 182 117 c 0
 208 90 241 67 276 52 c 0
 312 36 348 28 388 28 c 0
 431 28 471 37 504 52 c 0
 533 65 569 88 597 117 c 0
 626 147 645 178 660 213 c 0
 675 249 683 288 683 330 c 2
40 330 m 2
 40 349 l 2
 40 391 48 437 66 482 c 0
 82 522 107 563 137 595 c 0
 166 626 205 656 248 676 c 0
 287 694 335 706 389 706 c 0
 441 706 487 695 527 677 c 0
 569 658 605 632 638 598 c 0
 666 569 693 532 712 486 c 0
 731 440 739 393 739 349 c 2
 739 330 l 2
 739 282 732 239 715 198 c 0
 699 159 672 116 642 83 c 0
 613 51 575 22 533 3 c 0
 489 -17 441 -27 392 -27 c 0
 342 -27 297 -17 256 1 c 0
 215 19 179 44 144 79 c 0
 116 107 88 144 68 192 c 0
 48 239 40 284 40 330 c 2
412 779 m 1
 363 779 l 1
 240 921 l 1
 307 921 l 1
 388 832 l 1
 468 921 l 1
 536 921 l 1
 412 779 l 1
EndSplineSet
Position2: "'cpsp' Capital Spacing lookup 0 subtable" dx=5 dy=0 dh=10 dv=0
EndChar

StartChar: Ocircumflex
Encoding: 212 212 127
Width: 809
GlyphClass: 2
Flags: HMW
HStem: -27 55<368 409.5 368 416.5> 651 55<366.5 409.5> 789 142<240 412 240 412 363 536 363 468>
VStem: 40 56<330 349 309 370> 683 56<330 349 306 379>
LayerCount: 3
Fore
SplineSet
683 330 m 2
 683 349 l 2
 683 409 676 428 660 466 c 0
 645 502 625 533 597 562 c 0
 570 590 534 614 504 627 c 0
 471 642 431 651 388 651 c 0
 345 651 310 642 276 627 c 0
 242 612 210 591 182 562 c 0
 154 533 133 500 119 466 c 0
 104 430 96 391 96 349 c 2
 96 330 l 2
 96 288 104 249 119 213 c 0
 136 172 158 142 182 117 c 0
 208 90 241 67 276 52 c 0
 312 36 348 28 388 28 c 0
 431 28 471 37 504 52 c 0
 533 65 569 88 597 117 c 0
 626 147 645 178 660 213 c 0
 675 249 683 288 683 330 c 2
40 330 m 2
 40 349 l 2
 40 391 48 437 66 482 c 0
 82 522 107 563 137 595 c 0
 166 626 205 656 248 676 c 0
 287 694 335 706 389 706 c 0
 441 706 487 695 527 677 c 0
 569 658 605 632 638 598 c 0
 666 569 693 532 712 486 c 0
 731 440 739 393 739 349 c 2
 739 330 l 2
 739 282 732 239 715 198 c 0
 699 159 672 116 642 83 c 0
 613 51 575 22 533 3 c 0
 489 -17 441 -27 392 -27 c 0
 342 -27 297 -17 256 1 c 0
 215 19 179 44 144 79 c 0
 116 107 88 144 68 192 c 0
 48 239 40 284 40 330 c 2
536 789 m 1
 468 789 l 1
 388 878 l 1
 307 789 l 1
 240 789 l 1
 363 931 l 1
 412 931 l 1
 536 789 l 1
EndSplineSet
Position2: "'cpsp' Capital Spacing lookup 0 subtable" dx=5 dy=0 dh=10 dv=0
EndChar

StartChar: Ocircumflexacute
Encoding: 7888 7888 128
Width: 809
GlyphClass: 2
Flags: HMW
HStem: -27 55<368 409.5 368 416.5> 651 55<366.5 409.5> 789 142<240 412 240 412 363 536 363 468>
VStem: 40 56<330 349 309 370> 683 56<330 349 306 379>
LayerCount: 3
Fore
SplineSet
683 330 m 2
 683 349 l 2
 683 409 676 428 660 466 c 0
 645 502 625 533 597 562 c 0
 570 590 534 614 504 627 c 0
 471 642 431 651 388 651 c 0
 345 651 310 642 276 627 c 0
 242 612 210 591 182 562 c 0
 154 533 133 500 119 466 c 0
 104 430 96 391 96 349 c 2
 96 330 l 2
 96 288 104 249 119 213 c 0
 136 172 158 142 182 117 c 0
 208 90 241 67 276 52 c 0
 312 36 348 28 388 28 c 0
 431 28 471 37 504 52 c 0
 533 65 569 88 597 117 c 0
 626 147 645 178 660 213 c 0
 675 249 683 288 683 330 c 2
40 330 m 2
 40 349 l 2
 40 391 48 437 66 482 c 0
 82 522 107 563 137 595 c 0
 166 626 205 656 248 676 c 0
 287 694 335 706 389 706 c 0
 441 706 487 695 527 677 c 0
 569 658 605 632 638 598 c 0
 666 569 693 532 712 486 c 0
 731 440 739 393 739 349 c 2
 739 330 l 2
 739 282 732 239 715 198 c 0
 699 159 672 116 642 83 c 0
 613 51 575 22 533 3 c 0
 489 -17 441 -27 392 -27 c 0
 342 -27 297 -17 256 1 c 0
 215 19 179 44 144 79 c 0
 116 107 88 144 68 192 c 0
 48 239 40 284 40 330 c 2
536 789 m 1
 468 789 l 1
 388 878 l 1
 307 789 l 1
 240 789 l 1
 363 931 l 1
 412 931 l 1
 536 789 l 1
554 1061 m 1
 382 951 l 1
 360 985 l 1
 518 1110 l 1
 554 1061 l 1
EndSplineSet
Position2: "'cpsp' Capital Spacing lookup 0 subtable" dx=5 dy=0 dh=10 dv=0
EndChar

StartChar: Ocircumflexdotbelow
Encoding: 7896 7896 129
Width: 809
GlyphClass: 2
Flags: HMW
HStem: -212 71 -27 55<368 409.5 368 416.5> 651 55<366.5 409.5> 789 142<240 412 240 412 363 536 363 468>
VStem: 40 56<330 349 309 370> 359 59<4.29497e+09 4.29497e+09 4.29497e+09 4.29497e+09> 683 56<330 349 306 379>
LayerCount: 3
Fore
SplineSet
388 -141 m 0
 400 -141 410 -145 418 -153 c 0
 426 -161 430 -171 430 -183 c 0
 430 -194 426 -204 418 -212 c 0
 410 -220 400 -224 388 -224 c 0
 371 -224 367 -220 359 -212 c 0
 351 -204 347 -194 347 -183 c 0
 347 -171 351 -161 359 -153 c 0
 367 -145 377 -141 388 -141 c 0
683 330 m 2
 683 349 l 2
 683 409 676 428 660 466 c 0
 645 502 625 533 597 562 c 0
 570 590 534 614 504 627 c 0
 471 642 431 651 388 651 c 0
 345 651 310 642 276 627 c 0
 242 612 210 591 182 562 c 0
 154 533 133 500 119 466 c 0
 104 430 96 391 96 349 c 2
 96 330 l 2
 96 288 104 249 119 213 c 0
 136 172 158 142 182 117 c 0
 208 90 241 67 276 52 c 0
 312 36 348 28 388 28 c 0
 431 28 471 37 504 52 c 0
 533 65 569 88 597 117 c 0
 626 147 645 178 660 213 c 0
 675 249 683 288 683 330 c 2
40 330 m 2
 40 349 l 2
 40 391 48 437 66 482 c 0
 82 522 107 563 137 595 c 0
 166 626 205 656 248 676 c 0
 287 694 335 706 389 706 c 0
 441 706 487 695 527 677 c 0
 569 658 605 632 638 598 c 0
 666 569 693 532 712 486 c 0
 731 440 739 393 739 349 c 2
 739 330 l 2
 739 282 732 239 715 198 c 0
 699 159 672 116 642 83 c 0
 613 51 575 22 533 3 c 0
 489 -17 441 -27 392 -27 c 0
 342 -27 297 -17 256 1 c 0
 215 19 179 44 144 79 c 0
 116 107 88 144 68 192 c 0
 48 239 40 284 40 330 c 2
536 789 m 1
 468 789 l 1
 388 878 l 1
 307 789 l 1
 240 789 l 1
 363 931 l 1
 412 931 l 1
 536 789 l 1
EndSplineSet
Position2: "'cpsp' Capital Spacing lookup 0 subtable" dx=5 dy=0 dh=10 dv=0
EndChar

StartChar: Ocircumflexgrave
Encoding: 7890 7890 130
Width: 809
GlyphClass: 2
Flags: HMW
HStem: -27 55<368 409.5 368 416.5> 651 55<366.5 409.5> 789 142<240 412 240 412 363 536 363 468>
VStem: 40 56<330 349 309 370> 683 56<330 349 306 379>
LayerCount: 3
Fore
SplineSet
683 330 m 2
 683 349 l 2
 683 409 676 428 660 466 c 0
 645 502 625 533 597 562 c 0
 570 590 534 614 504 627 c 0
 471 642 431 651 388 651 c 0
 345 651 310 642 276 627 c 0
 242 612 210 591 182 562 c 0
 154 533 133 500 119 466 c 0
 104 430 96 391 96 349 c 2
 96 330 l 2
 96 288 104 249 119 213 c 0
 136 172 158 142 182 117 c 0
 208 90 241 67 276 52 c 0
 312 36 348 28 388 28 c 0
 431 28 471 37 504 52 c 0
 533 65 569 88 597 117 c 0
 626 147 645 178 660 213 c 0
 675 249 683 288 683 330 c 2
40 330 m 2
 40 349 l 2
 40 391 48 437 66 482 c 0
 82 522 107 563 137 595 c 0
 166 626 205 656 248 676 c 0
 287 694 335 706 389 706 c 0
 441 706 487 695 527 677 c 0
 569 658 605 632 638 598 c 0
 666 569 693 532 712 486 c 0
 731 440 739 393 739 349 c 2
 739 330 l 2
 739 282 732 239 715 198 c 0
 699 159 672 116 642 83 c 0
 613 51 575 22 533 3 c 0
 489 -17 441 -27 392 -27 c 0
 342 -27 297 -17 256 1 c 0
 215 19 179 44 144 79 c 0
 116 107 88 144 68 192 c 0
 48 239 40 284 40 330 c 2
536 789 m 1
 468 789 l 1
 388 878 l 1
 307 789 l 1
 240 789 l 1
 363 931 l 1
 412 931 l 1
 536 789 l 1
421 975 m 1
 399 941 l 1
 227 1051 l 1
 263 1100 l 1
 421 975 l 1
EndSplineSet
Position2: "'cpsp' Capital Spacing lookup 0 subtable" dx=5 dy=0 dh=10 dv=0
EndChar

StartChar: Ocircumflextilde
Encoding: 7894 7894 131
Width: 809
GlyphClass: 2
Flags: HMW
HStem: -27 55<368 409.5 368 416.5> 651 55<366.5 409.5> 789 142<240 412 240 412 363 536 363 468> 975 53<454 459> 1010 53<308 316 308 309.5>
VStem: 40 56<330 349 309 370> 683 56<330 349 306 379>
LayerCount: 3
Fore
SplineSet
683 330 m 2
 683 349 l 2
 683 409 676 428 660 466 c 0
 645 502 625 533 597 562 c 0
 570 590 534 614 504 627 c 0
 471 642 431 651 388 651 c 0
 345 651 310 642 276 627 c 0
 242 612 210 591 182 562 c 0
 154 533 133 500 119 466 c 0
 104 430 96 391 96 349 c 2
 96 330 l 2
 96 288 104 249 119 213 c 0
 136 172 158 142 182 117 c 0
 208 90 241 67 276 52 c 0
 312 36 348 28 388 28 c 0
 431 28 471 37 504 52 c 0
 533 65 569 88 597 117 c 0
 626 147 645 178 660 213 c 0
 675 249 683 288 683 330 c 2
40 330 m 2
 40 349 l 2
 40 391 48 437 66 482 c 0
 82 522 107 563 137 595 c 0
 166 626 205 656 248 676 c 0
 287 694 335 706 389 706 c 0
 441 706 487 695 527 677 c 0
 569 658 605 632 638 598 c 0
 666 569 693 532 712 486 c 0
 731 440 739 393 739 349 c 2
 739 330 l 2
 739 282 732 239 715 198 c 0
 699 159 672 116 642 83 c 0
 613 51 575 22 533 3 c 0
 489 -17 441 -27 392 -27 c 0
 342 -27 297 -17 256 1 c 0
 215 19 179 44 144 79 c 0
 116 107 88 144 68 192 c 0
 48 239 40 284 40 330 c 2
536 789 m 1
 468 789 l 1
 388 878 l 1
 307 789 l 1
 240 789 l 1
 363 931 l 1
 412 931 l 1
 536 789 l 1
244 977 m 1
 211 1018 l 1
 228 1032 244 1042 259 1049 c 0
 274 1056 289 1061 304 1063 c 0
 309 1063 313 1063 318 1063 c 0
 328 1063 338 1062 349 1060 c 0
 364 1056 380 1051 397 1044 c 0
 411 1038 424 1034 435 1031 c 0
 443 1029 450 1028 458 1028 c 0
 461 1028 464 1028 467 1029 c 0
 477 1030 487 1033 498 1038 c 0
 508 1043 519 1051 531 1061 c 1
 565 1020 l 1
 533 993 502 979 472 976 c 2
 465 976 l 1
 459 975 l 2
 444 975 430 977 416 981 c 0
 402 985 389 990 377 995 c 0
 363 1000 351 1004 340 1007 c 0
 331 1009 324 1010 316 1010 c 0
 313 1010 311 1010 308 1010 c 0
 298 1009 288 1005 278 1000 c 0
 267 995 256 987 244 977 c 1
EndSplineSet
Position2: "'cpsp' Capital Spacing lookup 0 subtable" dx=5 dy=0 dh=10 dv=0
EndChar

StartChar: Odieresis
Encoding: 214 214 132
Width: 809
GlyphClass: 2
Flags: HMW
HStem: -27 55<368 409.5 368 416.5> 651 55<366.5 409.5> 801 85<264.5 288 486.5 510>
VStem: 40 56<330 349 309 370> 234 85<831.5 855> 456 85<831.5 855> 683 56<330 349 306 379>
LayerCount: 3
Fore
SplineSet
683 330 m 2
 683 349 l 2
 683 409 676 428 660 466 c 0
 645 502 625 533 597 562 c 0
 570 590 534 614 504 627 c 0
 471 642 431 651 388 651 c 0
 345 651 310 642 276 627 c 0
 242 612 210 591 182 562 c 0
 154 533 133 500 119 466 c 0
 104 430 96 391 96 349 c 2
 96 330 l 2
 96 288 104 249 119 213 c 0
 136 172 158 142 182 117 c 0
 208 90 241 67 276 52 c 0
 312 36 348 28 388 28 c 0
 431 28 471 37 504 52 c 0
 533 65 569 88 597 117 c 0
 626 147 645 178 660 213 c 0
 675 249 683 288 683 330 c 2
40 330 m 2
 40 349 l 2
 40 391 48 437 66 482 c 0
 82 522 107 563 137 595 c 0
 166 626 205 656 248 676 c 0
 287 694 335 706 389 706 c 0
 441 706 487 695 527 677 c 0
 569 658 605 632 638 598 c 0
 666 569 693 532 712 486 c 0
 731 440 739 393 739 349 c 2
 739 330 l 2
 739 282 732 239 715 198 c 0
 699 159 672 116 642 83 c 0
 613 51 575 22 533 3 c 0
 489 -17 441 -27 392 -27 c 0
 342 -27 297 -17 256 1 c 0
 215 19 179 44 144 79 c 0
 116 107 88 144 68 192 c 0
 48 239 40 284 40 330 c 2
498 801 m 0
 475 801 456 820 456 843 c 0
 456 867 475 886 498 886 c 0
 522 886 541 867 541 843 c 0
 541 820 522 801 498 801 c 0
276 801 m 0
 253 801 234 820 234 843 c 0
 234 867 253 886 276 886 c 0
 300 886 319 867 319 843 c 0
 319 820 300 801 276 801 c 0
EndSplineSet
Position2: "'cpsp' Capital Spacing lookup 0 subtable" dx=5 dy=0 dh=10 dv=0
EndChar

StartChar: uni022A
Encoding: 554 554 133
Width: 809
GlyphClass: 2
Flags: HMW
HStem: -27 55<368 409.5 368 416.5> 651 55<366.5 409.5> 801 85<264.5 288 486.5 510> 931 57<225 551 225 551>
VStem: 40 56<330 349 309 370> 234 85<831.5 855> 456 85<831.5 855> 683 56<330 349 306 379>
LayerCount: 3
Fore
SplineSet
683 330 m 2
 683 349 l 2
 683 409 676 428 660 466 c 0
 645 502 625 533 597 562 c 0
 570 590 534 614 504 627 c 0
 471 642 431 651 388 651 c 0
 345 651 310 642 276 627 c 0
 242 612 210 591 182 562 c 0
 154 533 133 500 119 466 c 0
 104 430 96 391 96 349 c 2
 96 330 l 2
 96 288 104 249 119 213 c 0
 136 172 158 142 182 117 c 0
 208 90 241 67 276 52 c 0
 312 36 348 28 388 28 c 0
 431 28 471 37 504 52 c 0
 533 65 569 88 597 117 c 0
 626 147 645 178 660 213 c 0
 675 249 683 288 683 330 c 2
40 330 m 2
 40 349 l 2
 40 391 48 437 66 482 c 0
 82 522 107 563 137 595 c 0
 166 626 205 656 248 676 c 0
 287 694 335 706 389 706 c 0
 441 706 487 695 527 677 c 0
 569 658 605 632 638 598 c 0
 666 569 693 532 712 486 c 0
 731 440 739 393 739 349 c 2
 739 330 l 2
 739 282 732 239 715 198 c 0
 699 159 672 116 642 83 c 0
 613 51 575 22 533 3 c 0
 489 -17 441 -27 392 -27 c 0
 342 -27 297 -17 256 1 c 0
 215 19 179 44 144 79 c 0
 116 107 88 144 68 192 c 0
 48 239 40 284 40 330 c 2
456 843 m 0
 456 867 475 886 498 886 c 0
 522 886 541 867 541 843 c 0
 541 820 522 801 498 801 c 0
 475 801 456 820 456 843 c 0
234 843 m 0
 234 867 253 886 276 886 c 0
 300 886 319 867 319 843 c 0
 319 820 300 801 276 801 c 0
 253 801 234 820 234 843 c 0
551 931 m 1
 225 931 l 1
 225 988 l 1
 551 988 l 1
 551 931 l 1
EndSplineSet
Position2: "'cpsp' Capital Spacing lookup 0 subtable" dx=5 dy=0 dh=10 dv=0
EndChar

StartChar: Odotbelow
Encoding: 7884 7884 134
Width: 809
GlyphClass: 2
Flags: HMW
HStem: -212 71 -27 55<368 409.5 368 416.5> 651 55<366.5 409.5>
VStem: 40 56<330 349 309 370> 359 59<4.29497e+09 4.29497e+09 4.29497e+09 4.29497e+09> 683 56<330 349 306 379>
LayerCount: 3
Fore
SplineSet
388 -141 m 0
 400 -141 410 -145 418 -153 c 0
 426 -161 430 -171 430 -183 c 0
 430 -194 426 -204 418 -212 c 0
 410 -220 400 -224 388 -224 c 0
 371 -224 367 -220 359 -212 c 0
 351 -204 347 -194 347 -183 c 0
 347 -171 351 -161 359 -153 c 0
 367 -145 377 -141 388 -141 c 0
683 330 m 2
 683 349 l 2
 683 409 676 428 660 466 c 0
 645 502 625 533 597 562 c 0
 570 590 534 614 504 627 c 0
 471 642 431 651 388 651 c 0
 345 651 310 642 276 627 c 0
 242 612 210 591 182 562 c 0
 154 533 133 500 119 466 c 0
 104 430 96 391 96 349 c 2
 96 330 l 2
 96 288 104 249 119 213 c 0
 136 172 158 142 182 117 c 0
 208 90 241 67 276 52 c 0
 312 36 348 28 388 28 c 0
 431 28 471 37 504 52 c 0
 533 65 569 88 597 117 c 0
 626 147 645 178 660 213 c 0
 675 249 683 288 683 330 c 2
40 330 m 2
 40 349 l 2
 40 391 48 437 66 482 c 0
 82 522 107 563 137 595 c 0
 166 626 205 656 248 676 c 0
 287 694 335 706 389 706 c 0
 441 706 487 695 527 677 c 0
 569 658 605 632 638 598 c 0
 666 569 693 532 712 486 c 0
 731 440 739 393 739 349 c 2
 739 330 l 2
 739 282 732 239 715 198 c 0
 699 159 672 116 642 83 c 0
 613 51 575 22 533 3 c 0
 489 -17 441 -27 392 -27 c 0
 342 -27 297 -17 256 1 c 0
 215 19 179 44 144 79 c 0
 116 107 88 144 68 192 c 0
 48 239 40 284 40 330 c 2
EndSplineSet
Position2: "'cpsp' Capital Spacing lookup 0 subtable" dx=5 dy=0 dh=10 dv=0
EndChar

StartChar: Ograve
Encoding: 210 210 135
Width: 809
GlyphClass: 2
Flags: HMW
HStem: -27 55<368 409.5 368 416.5> 651 55<366.5 409.5>
VStem: 40 56<330 349 309 370> 683 56<330 349 306 379>
LayerCount: 3
Fore
SplineSet
683 330 m 2
 683 349 l 2
 683 409 676 428 660 466 c 0
 645 502 625 533 597 562 c 0
 570 590 534 614 504 627 c 0
 471 642 431 651 388 651 c 0
 345 651 310 642 276 627 c 0
 242 612 210 591 182 562 c 0
 154 533 133 500 119 466 c 0
 104 430 96 391 96 349 c 2
 96 330 l 2
 96 288 104 249 119 213 c 0
 136 172 158 142 182 117 c 0
 208 90 241 67 276 52 c 0
 312 36 348 28 388 28 c 0
 431 28 471 37 504 52 c 0
 533 65 569 88 597 117 c 0
 626 147 645 178 660 213 c 0
 675 249 683 288 683 330 c 2
40 330 m 2
 40 349 l 2
 40 391 48 437 66 482 c 0
 82 522 107 563 137 595 c 0
 166 626 205 656 248 676 c 0
 287 694 335 706 389 706 c 0
 441 706 487 695 527 677 c 0
 569 658 605 632 638 598 c 0
 666 569 693 532 712 486 c 0
 731 440 739 393 739 349 c 2
 739 330 l 2
 739 282 732 239 715 198 c 0
 699 159 672 116 642 83 c 0
 613 51 575 22 533 3 c 0
 489 -17 441 -27 392 -27 c 0
 342 -27 297 -17 256 1 c 0
 215 19 179 44 144 79 c 0
 116 107 88 144 68 192 c 0
 48 239 40 284 40 330 c 2
421 785 m 1
 399 751 l 1
 227 861 l 1
 263 910 l 1
 421 785 l 1
EndSplineSet
Position2: "'cpsp' Capital Spacing lookup 0 subtable" dx=5 dy=0 dh=10 dv=0
EndChar

StartChar: Ohorn
Encoding: 416 416 136
Width: 809
GlyphClass: 2
Flags: HMW
HStem: -27 55<368 409.5 368 416.5> 496 47<692.5 708> 651 55<366.5 409.5> 663 20G<743 743>
VStem: 40 56<330 349 309 370> 683 56<330 349 306 379> 753 51<575.5 606.5>
LayerCount: 3
Fore
SplineSet
683 330 m 2
 683 349 l 2
 683 409 676 428 660 466 c 0
 645 502 625 533 597 562 c 0
 570 590 534 614 504 627 c 0
 471 642 431 651 388 651 c 0
 345 651 310 642 276 627 c 0
 242 612 210 591 182 562 c 0
 154 533 133 500 119 466 c 0
 104 430 96 391 96 349 c 2
 96 330 l 2
 96 288 104 249 119 213 c 0
 136 172 158 142 182 117 c 0
 208 90 241 67 276 52 c 0
 312 36 348 28 388 28 c 0
 431 28 471 37 504 52 c 0
 533 65 569 88 597 117 c 0
 626 147 645 178 660 213 c 0
 675 249 683 288 683 330 c 2
720 639 m 1
 743 683 l 1
 758 676 804 652 804 593 c 0
 804 529 751 502 708 496 c 1
 712 486 l 2
 731 440 739 393 739 349 c 2
 739 330 l 2
 739 282 732 239 715 198 c 0
 699 159 672 116 642 83 c 0
 613 51 575 22 533 3 c 0
 489 -17 441 -27 392 -27 c 0
 342 -27 297 -17 256 1 c 0
 215 19 179 44 144 79 c 0
 116 107 88 144 68 192 c 0
 48 239 40 284 40 330 c 2
 40 349 l 2
 40 391 48 437 66 482 c 0
 82 522 107 563 137 595 c 0
 166 626 205 656 248 676 c 0
 287 694 335 706 389 706 c 0
 441 706 487 695 527 677 c 0
 569 658 605 632 638 598 c 0
 653 582 668 565 681 545 c 0
 686 544 690 543 695 543 c 0
 720 543 753 558 753 593 c 0
 753 620 734 630 720 639 c 1
EndSplineSet
Position2: "'cpsp' Capital Spacing lookup 0 subtable" dx=5 dy=0 dh=10 dv=0
EndChar

StartChar: Ohungarumlaut
Encoding: 336 336 137
Width: 809
GlyphClass: 2
Flags: HMW
HStem: -27 55<368 409.5 368 416.5> 651 55<366.5 409.5> 787 20G<252 252 442 442>
VStem: 40 56<330 349 309 370> 683 56<330 349 306 379>
LayerCount: 3
Fore
SplineSet
683 330 m 2
 683 349 l 2
 683 409 676 428 660 466 c 0
 645 502 625 533 597 562 c 0
 570 590 534 614 504 627 c 0
 471 642 431 651 388 651 c 0
 345 651 310 642 276 627 c 0
 242 612 210 591 182 562 c 0
 154 533 133 500 119 466 c 0
 104 430 96 391 96 349 c 2
 96 330 l 2
 96 288 104 249 119 213 c 0
 136 172 158 142 182 117 c 0
 208 90 241 67 276 52 c 0
 312 36 348 28 388 28 c 0
 431 28 471 37 504 52 c 0
 533 65 569 88 597 117 c 0
 626 147 645 178 660 213 c 0
 675 249 683 288 683 330 c 2
40 330 m 2
 40 349 l 2
 40 391 48 437 66 482 c 0
 82 522 107 563 137 595 c 0
 166 626 205 656 248 676 c 0
 287 694 335 706 389 706 c 0
 441 706 487 695 527 677 c 0
 569 658 605 632 638 598 c 0
 666 569 693 532 712 486 c 0
 731 440 739 393 739 349 c 2
 739 330 l 2
 739 282 732 239 715 198 c 0
 699 159 672 116 642 83 c 0
 613 51 575 22 533 3 c 0
 489 -17 441 -27 392 -27 c 0
 342 -27 297 -17 256 1 c 0
 215 19 179 44 144 79 c 0
 116 107 88 144 68 192 c 0
 48 239 40 284 40 330 c 2
634 896 m 1
 481 771 l 1
 442 807 l 1
 593 933 l 1
 634 896 l 1
442 896 m 1
 291 771 l 1
 252 807 l 1
 404 933 l 1
 442 896 l 1
EndSplineSet
Position2: "'cpsp' Capital Spacing lookup 0 subtable" dx=5 dy=0 dh=10 dv=0
EndChar

StartChar: Omacron
Encoding: 332 332 138
Width: 809
GlyphClass: 2
Flags: HMW
HStem: -27 55<368 409.5 368 416.5> 651 55<366.5 409.5> 811 57<225 551 225 551>
VStem: 40 56<330 349 309 370> 683 56<330 349 306 379>
LayerCount: 3
Fore
SplineSet
683 330 m 2
 683 349 l 2
 683 409 676 428 660 466 c 0
 645 502 625 533 597 562 c 0
 570 590 534 614 504 627 c 0
 471 642 431 651 388 651 c 0
 345 651 310 642 276 627 c 0
 242 612 210 591 182 562 c 0
 154 533 133 500 119 466 c 0
 104 430 96 391 96 349 c 2
 96 330 l 2
 96 288 104 249 119 213 c 0
 136 172 158 142 182 117 c 0
 208 90 241 67 276 52 c 0
 312 36 348 28 388 28 c 0
 431 28 471 37 504 52 c 0
 533 65 569 88 597 117 c 0
 626 147 645 178 660 213 c 0
 675 249 683 288 683 330 c 2
40 330 m 2
 40 349 l 2
 40 391 48 437 66 482 c 0
 82 522 107 563 137 595 c 0
 166 626 205 656 248 676 c 0
 287 694 335 706 389 706 c 0
 441 706 487 695 527 677 c 0
 569 658 605 632 638 598 c 0
 666 569 693 532 712 486 c 0
 731 440 739 393 739 349 c 2
 739 330 l 2
 739 282 732 239 715 198 c 0
 699 159 672 116 642 83 c 0
 613 51 575 22 533 3 c 0
 489 -17 441 -27 392 -27 c 0
 342 -27 297 -17 256 1 c 0
 215 19 179 44 144 79 c 0
 116 107 88 144 68 192 c 0
 48 239 40 284 40 330 c 2
551 811 m 1
 225 811 l 1
 225 868 l 1
 551 868 l 1
 551 811 l 1
EndSplineSet
Position2: "'cpsp' Capital Spacing lookup 0 subtable" dx=5 dy=0 dh=10 dv=0
EndChar

StartChar: Oogonek
Encoding: 490 490 139
Width: 809
GlyphClass: 2
Flags: HMW
HStem: -122 53<581.5 606> -27 55<368 409.5 368 412> 651 55<366.5 409.5>
VStem: 40 56<330 349 309 370> 506 65 683 56<330 349 306 379>
LayerCount: 3
Fore
SplineSet
683 330 m 2
 683 349 l 2
 683 409 676 428 660 466 c 0
 645 502 625 533 597 562 c 0
 570 590 534 614 504 627 c 0
 471 642 431 651 388 651 c 0
 345 651 310 642 276 627 c 0
 242 612 210 591 182 562 c 0
 154 533 133 500 119 466 c 0
 104 430 96 391 96 349 c 2
 96 330 l 2
 96 288 104 249 119 213 c 0
 136 172 158 142 182 117 c 0
 208 90 241 67 276 52 c 0
 312 36 348 28 388 28 c 0
 431 28 471 37 504 52 c 0
 533 65 569 88 597 117 c 0
 626 147 645 178 660 213 c 0
 675 249 683 288 683 330 c 2
40 330 m 2
 40 349 l 2
 40 391 48 437 66 482 c 0
 82 522 107 563 137 595 c 0
 166 626 205 656 248 676 c 0
 287 694 335 706 389 706 c 0
 441 706 487 695 527 677 c 0
 569 658 605 632 638 598 c 0
 666 569 693 532 712 486 c 0
 731 440 739 393 739 349 c 2
 739 330 l 2
 739 282 732 239 715 198 c 0
 699 159 672 116 642 83 c 2
 628 69 l 1
 616 56 l 2
 609 48 596 35 590 27 c 0
 583 18 574 4 571 -1 c 0
 566 -9 563 -18 563 -29 c 0
 563 -36 564 -45 571 -54 c 0
 575 -59 580 -64 590 -67 c 0
 594 -68 599 -69 604 -69 c 0
 608 -69 611 -68 615 -68 c 0
 624 -66 632 -63 640 -58 c 2
 657 -48 l 1
 682 -93 l 1
 670 -102 655 -109 639 -114 c 0
 623 -119 606 -122 592 -122 c 0
 571 -122 549 -116 530 -97 c 0
 514 -81 506 -60 506 -34 c 0
 506 -25 507 -16 510 -7 c 1
 472 -20 432 -27 392 -27 c 0
 342 -27 297 -17 256 1 c 0
 215 19 179 44 144 79 c 0
 116 107 88 144 68 192 c 0
 48 239 40 284 40 330 c 2
EndSplineSet
Position2: "'cpsp' Capital Spacing lookup 0 subtable" dx=5 dy=0 dh=10 dv=0
EndChar

StartChar: Oogonekmacron
Encoding: 492 492 140
Width: 809
GlyphClass: 2
Flags: HMW
HStem: -122 53<581.5 606> -27 55<368 409.5 368 412> 651 55<366.5 409.5> 811 57<225 551 225 551>
VStem: 40 56<330 349 309 370> 506 65 683 56<330 349 306 379>
LayerCount: 3
Fore
SplineSet
683 330 m 2
 683 349 l 2
 683 409 676 428 660 466 c 0
 645 502 625 533 597 562 c 0
 570 590 534 614 504 627 c 0
 471 642 431 651 388 651 c 0
 345 651 310 642 276 627 c 0
 242 612 210 591 182 562 c 0
 154 533 133 500 119 466 c 0
 104 430 96 391 96 349 c 2
 96 330 l 2
 96 288 104 249 119 213 c 0
 136 172 158 142 182 117 c 0
 208 90 241 67 276 52 c 0
 312 36 348 28 388 28 c 0
 431 28 471 37 504 52 c 0
 533 65 569 88 597 117 c 0
 626 147 645 178 660 213 c 0
 675 249 683 288 683 330 c 2
40 330 m 2
 40 349 l 2
 40 391 48 437 66 482 c 0
 82 522 107 563 137 595 c 0
 166 626 205 656 248 676 c 0
 287 694 335 706 389 706 c 0
 441 706 487 695 527 677 c 0
 569 658 605 632 638 598 c 0
 666 569 693 532 712 486 c 0
 731 440 739 393 739 349 c 2
 739 330 l 2
 739 282 732 239 715 198 c 0
 699 159 672 116 642 83 c 2
 628 69 l 1
 616 56 l 2
 609 48 596 35 590 27 c 0
 583 18 574 4 571 -1 c 0
 566 -9 563 -18 563 -29 c 0
 563 -36 564 -45 571 -54 c 0
 575 -59 580 -64 590 -67 c 0
 594 -68 599 -69 604 -69 c 0
 608 -69 611 -68 615 -68 c 0
 624 -66 632 -63 640 -58 c 2
 657 -48 l 1
 682 -93 l 1
 670 -102 655 -109 639 -114 c 0
 623 -119 606 -122 592 -122 c 0
 571 -122 549 -116 530 -97 c 0
 514 -81 506 -60 506 -34 c 0
 506 -25 507 -16 510 -7 c 1
 472 -20 432 -27 392 -27 c 0
 342 -27 297 -17 256 1 c 0
 215 19 179 44 144 79 c 0
 116 107 88 144 68 192 c 0
 48 239 40 284 40 330 c 2
551 811 m 1
 225 811 l 1
 225 868 l 1
 551 868 l 1
 551 811 l 1
EndSplineSet
Position2: "'cpsp' Capital Spacing lookup 0 subtable" dx=5 dy=0 dh=10 dv=0
EndChar

StartChar: Oslash
Encoding: 216 216 141
Width: 809
GlyphClass: 2
Flags: HMW
HStem: -27 55<368 409.5 368 416.5> 651 55<366.5 409.5> 674 20G<566 566>
VStem: 40 56<330 349 309 370> 683 56<330 349 306 379>
AnchorPoint: "Anchor-3" 381 684 basechar 0
AnchorPoint: "Anchor-2" 0 0 basechar 0
AnchorPoint: "Anchor-1" 0 0 basechar 0
LayerCount: 3
Fore
SplineSet
683 330 m 2
 683 349 l 2
 683 409 676 428 660 466 c 0
 645 502 625 533 597 562 c 0
 589 570 580 579 570 586 c 1
 246 67 l 1
 256 61 266 56 276 52 c 0
 312 36 348 28 388 28 c 0
 431 28 471 37 504 52 c 0
 533 65 569 88 597 117 c 0
 626 147 645 178 660 213 c 0
 675 249 683 288 683 330 c 2
96 349 m 2
 96 330 l 2
 96 288 104 249 119 213 c 0
 136 172 158 142 182 117 c 2
 196 103 l 1
 519 620 l 1
 504 627 l 2
 471 642 431 651 388 651 c 0
 345 651 310 642 276 627 c 0
 242 612 210 591 182 562 c 0
 154 533 133 500 119 466 c 0
 104 430 96 391 96 349 c 2
626 676 m 1
 600 633 l 1
 613 622 626 611 638 598 c 0
 666 569 693 532 712 486 c 0
 731 440 739 393 739 349 c 2
 739 330 l 2
 739 282 732 239 715 198 c 0
 699 159 672 116 642 83 c 0
 613 51 575 22 533 3 c 0
 489 -17 441 -27 392 -27 c 0
 342 -27 297 -17 256 1 c 0
 243 7 230 13 218 21 c 1
 177 -44 l 1
 116 -25 l 1
 167 57 l 1
 160 64 152 71 144 79 c 0
 116 107 88 144 68 192 c 0
 48 239 40 284 40 330 c 2
 40 349 l 2
 40 391 48 437 66 482 c 0
 82 522 107 563 137 595 c 0
 166 626 205 656 248 676 c 0
 287 694 335 706 389 706 c 0
 441 706 487 695 527 677 c 2
 549 666 l 1
 566 694 l 1
 626 676 l 1
EndSplineSet
Position2: "'cpsp' Capital Spacing lookup 0 subtable" dx=5 dy=0 dh=10 dv=0
EndChar

StartChar: Oslashacute
Encoding: 510 510 142
Width: 809
GlyphClass: 2
Flags: HMW
HStem: -27 55<368 409.5 368 416.5> 651 55<366.5 409.5> 674 20G<566 566>
VStem: 40 56<330 349 309 370> 683 56<330 349 306 379>
LayerCount: 3
Fore
SplineSet
683 330 m 2
 683 349 l 2
 683 409 676 428 660 466 c 0
 645 502 625 533 597 562 c 0
 589 570 580 579 570 586 c 1
 246 67 l 1
 256 61 266 56 276 52 c 0
 312 36 348 28 388 28 c 0
 431 28 471 37 504 52 c 0
 533 65 569 88 597 117 c 0
 626 147 645 178 660 213 c 0
 675 249 683 288 683 330 c 2
96 349 m 2
 96 330 l 2
 96 288 104 249 119 213 c 0
 136 172 158 142 182 117 c 2
 196 103 l 1
 519 620 l 1
 504 627 l 2
 471 642 431 651 388 651 c 0
 345 651 310 642 276 627 c 0
 242 612 210 591 182 562 c 0
 154 533 133 500 119 466 c 0
 104 430 96 391 96 349 c 2
626 676 m 1
 600 633 l 1
 613 622 626 611 638 598 c 0
 666 569 693 532 712 486 c 0
 731 440 739 393 739 349 c 2
 739 330 l 2
 739 282 732 239 715 198 c 0
 699 159 672 116 642 83 c 0
 613 51 575 22 533 3 c 0
 489 -17 441 -27 392 -27 c 0
 342 -27 297 -17 256 1 c 0
 243 7 230 13 218 21 c 1
 177 -44 l 1
 116 -25 l 1
 167 57 l 1
 160 64 152 71 144 79 c 0
 116 107 88 144 68 192 c 0
 48 239 40 284 40 330 c 2
 40 349 l 2
 40 391 48 437 66 482 c 0
 82 522 107 563 137 595 c 0
 166 626 205 656 248 676 c 0
 287 694 335 706 389 706 c 0
 441 706 487 695 527 677 c 2
 549 666 l 1
 566 694 l 1
 626 676 l 1
375 751 m 1
 353 785 l 1
 511 910 l 1
 547 861 l 1
 375 751 l 1
EndSplineSet
Position2: "'cpsp' Capital Spacing lookup 0 subtable" dx=5 dy=0 dh=10 dv=0
EndChar

StartChar: Otilde
Encoding: 213 213 143
Width: 809
GlyphClass: 2
Flags: HMW
HStem: -27 55<368 409.5 368 416.5> 651 55<366.5 409.5> 795 53<454 459> 830 53<308 316 308 309.5>
VStem: 40 56<330 349 309 370> 683 56<330 349 306 379>
LayerCount: 3
Fore
SplineSet
683 330 m 2
 683 349 l 2
 683 409 676 428 660 466 c 0
 645 502 625 533 597 562 c 0
 570 590 534 614 504 627 c 0
 471 642 431 651 388 651 c 0
 345 651 310 642 276 627 c 0
 242 612 210 591 182 562 c 0
 154 533 133 500 119 466 c 0
 104 430 96 391 96 349 c 2
 96 330 l 2
 96 288 104 249 119 213 c 0
 136 172 158 142 182 117 c 0
 208 90 241 67 276 52 c 0
 312 36 348 28 388 28 c 0
 431 28 471 37 504 52 c 0
 533 65 569 88 597 117 c 0
 626 147 645 178 660 213 c 0
 675 249 683 288 683 330 c 2
40 330 m 2
 40 349 l 2
 40 391 48 437 66 482 c 0
 82 522 107 563 137 595 c 0
 166 626 205 656 248 676 c 0
 287 694 335 706 389 706 c 0
 441 706 487 695 527 677 c 0
 569 658 605 632 638 598 c 0
 666 569 693 532 712 486 c 0
 731 440 739 393 739 349 c 2
 739 330 l 2
 739 282 732 239 715 198 c 0
 699 159 672 116 642 83 c 0
 613 51 575 22 533 3 c 0
 489 -17 441 -27 392 -27 c 0
 342 -27 297 -17 256 1 c 0
 215 19 179 44 144 79 c 0
 116 107 88 144 68 192 c 0
 48 239 40 284 40 330 c 2
244 797 m 1
 211 838 l 1
 228 852 244 862 259 869 c 0
 274 876 289 881 304 883 c 0
 309 883 313 883 318 883 c 0
 328 883 338 882 349 880 c 0
 364 876 380 871 397 864 c 0
 411 858 424 854 435 851 c 0
 443 849 450 848 458 848 c 0
 461 848 464 848 467 849 c 0
 477 850 487 853 498 858 c 0
 508 863 519 871 531 881 c 1
 565 840 l 1
 533 813 502 799 472 796 c 2
 465 796 l 1
 459 795 l 2
 444 795 430 797 416 801 c 0
 402 805 389 810 377 815 c 0
 363 820 351 824 340 827 c 0
 331 829 324 830 316 830 c 0
 313 830 311 830 308 830 c 0
 298 829 288 825 278 820 c 0
 267 815 256 807 244 797 c 1
EndSplineSet
Position2: "'cpsp' Capital Spacing lookup 0 subtable" dx=5 dy=0 dh=10 dv=0
EndChar

StartChar: OE
Encoding: 338 338 144
Width: 1192
GlyphClass: 2
Flags: HMW
HStem: -7 53<355.5 394.5 355.5 400> 3 57<715 1122 715 1122> 336 57<715 982 715 982> 630 57<715 1102 715 715> 642 53<355.5 394.5>
VStem: 40 54<335 353 315 374.5> 654 61<60 147 147 147 310 336 60 378 60 378 540 630>
AnchorPoint: "Anchor-3" 671 0 basechar 0
AnchorPoint: "Anchor-2" 0 0 basechar 0
AnchorPoint: "Anchor-1" 0 0 basechar 0
LayerCount: 3
Fore
SplineSet
654 310 m 2
 654 378 l 2
 652 409 645 438 633 466 c 0
 611 518 598 531 573 557 c 0
 548 583 518 604 484 619 c 0
 450 634 414 642 375 642 c 0
 336 642 300 634 266 619 c 0
 232 604 202 583 177 557 c 0
 151 531 131 501 116 466 c 0
 101 431 94 393 94 353 c 2
 94 335 l 2
 94 295 101 258 116 223 c 0
 131 188 151 157 177 131 c 0
 202 105 232 84 266 69 c 0
 300 54 336 46 375 46 c 0
 414 46 450 54 484 69 c 0
 518 84 548 105 573 131 c 0
 598 157 618 188 633 223 c 0
 645 250 652 279 654 310 c 2
40 335 m 2
 40 353 l 2
 40 396 48 439 64 480 c 0
 81 521 104 557 133 589 c 0
 162 621 198 647 239 666 c 0
 280 685 325 695 375 695 c 0
 422 695 465 686 506 668 c 0
 547 649 582 624 612 593 c 0
 628 577 642 559 654 540 c 1
 654 687 l 1
 1102 687 l 1
 1102 630 l 1
 715 630 l 1
 715 393 l 1
 982 393 l 1
 982 336 l 1
 715 336 l 1
 715 60 l 1
 1122 60 l 1
 1122 3 l 1
 654 3 l 1
 654 147 l 1
 643 130 631 114 617 99 c 0
 588 67 553 41 512 22 c 0
 471 3 425 -7 375 -7 c 0
 330 -7 287 2 246 20 c 0
 205 38 170 63 139 94 c 0
 108 125 84 161 66 203 c 0
 49 244 40 288 40 335 c 2
EndSplineSet
Position2: "'cpsp' Capital Spacing lookup 0 subtable" dx=5 dy=0 dh=10 dv=0
EndChar

StartChar: P
Encoding: 80 80 145
Width: 609
GlyphClass: 2
Flags: HMW
HStem: -1 21G<140 201 140 140> 258 55<335 336> 628 56<117 119 119 140 201 333 201 201>
VStem: 14 56<579 586.5 579 588> 140 61<-1 628 -1 628> 480 59<464 489.5 457.5 499.5>
LayerCount: 3
Fore
SplineSet
117 684 m 2
 347 684 l 2
 380 684 408 677 428 668 c 0
 446 660 469 645 488 624 c 0
 506 604 518 581 526 558 c 0
 535 532 539 504 539 475 c 0
 539 440 533 414 524 390 c 0
 512 358 498 338 482 321 c 0
 466 304 443 285 417 274 c 0
 391 263 361 258 311 258 c 0
 288 258 284 259 270 259 c 0
 255 260 256 261 246 262 c 2
 242 262 l 1
 242 317 l 1
 335 313 l 2
 356 313 374 316 395 326 c 0
 408 332 423 340 440 360 c 0
 451 373 462 388 470 412 c 0
 476 430 480 452 480 476 c 0
 480 523 466 561 440 587 c 0
 417 610 379 627 333 628 c 2
 201 628 l 1
 201 -1 l 1
 140 -1 l 1
 140 628 l 1
 119 628 l 2
 106 628 94 623 85 614 c 0
 76 605 70 594 70 579 c 1
 14 579 l 1
 14 597 18 609 22 619 c 0
 27 631 33 641 44 652 c 0
 55 663 62 669 78 676 c 0
 88 680 100 684 117 684 c 2
EndSplineSet
Substitution2: "'ss02' Style Set 2 lookup 13 subtable" P.ss02
Substitution2: "'ss01' Style Set 1 lookup 12 subtable" P.ss01
Substitution2: "'salt' Stylistic Alternatives lookup 11 subtable" P.ss01
AlternateSubs2: "'aalt' Access All Alternates lookup 1 subtable" P.ss01 P.ss02
Position2: "'cpsp' Capital Spacing lookup 0 subtable" dx=5 dy=0 dh=10 dv=0
EndChar

StartChar: P.ss01
Encoding: 1114128 -1 146
Width: 609
GlyphClass: 2
Flags: HMW
HStem: -1 21G<140 201 140 140> 258 55<280 328 292 328 328 331> 628 56<117 119 119 333>
VStem: 14 56<570 585.5 570 586> 140 61<-1 571> 480 59<464 490.5 460.5 499.5>
LayerCount: 3
Fore
SplineSet
201 -1 m 1
 140 -1 l 1
 140 571 l 1
 201 571 l 1
 201 -1 l 1
117 684 m 2
 347 684 l 2
 377 684 404 679 428 668 c 0
 451 657 471 643 488 624 c 0
 505 605 517 583 526 558 c 0
 535 533 539 505 539 476 c 0
 539 445 534 416 524 390 c 0
 514 363 500 340 482 321 c 0
 464 301 442 286 417 275 c 0
 391 264 362 258 331 258 c 2
 292 258 l 2
 268 258 251 259 242 260 c 1
 242 315 l 1
 292 313 l 1
 328 313 l 2
 351 313 371 317 390 325 c 0
 409 333 425 344 438 359 c 0
 451 373 462 390 469 410 c 0
 476 430 480 452 480 476 c 0
 480 523 467 560 440 587 c 0
 413 613 378 627 333 628 c 2
 119 628 l 2
 106 628 94 623 85 614 c 0
 75 604 70 592 70 579 c 0
 70 561 78 547 93 537 c 1
 64 489 l 1
 49 498 37 511 28 527 c 0
 19 543 14 560 14 579 c 0
 14 593 17 606 22 619 c 0
 27 632 35 643 44 653 c 0
 53 662 64 670 77 676 c 0
 90 681 103 684 117 684 c 2
EndSplineSet
Position2: "'cpsp' Capital Spacing lookup 0 subtable" dx=5 dy=0 dh=10 dv=0
EndChar

StartChar: P.ss02
Encoding: 1114129 -1 147
Width: 524
GlyphClass: 2
Flags: HMW
HStem: -1 21G<55 116 55 55> 258 55<197 243 207 243 243 246> 628 56<54 55 54 262 116 116 116 248>
VStem: 55 61<-1 259 -1 315 315 628> 395 59<464 490.5 460.5 499.5>
LayerCount: 3
Fore
SplineSet
207 313 m 1
 243 313 l 2
 266 313 286 317 305 325 c 0
 324 333 340 344 353 359 c 0
 366 373 377 390 384 410 c 0
 391 430 395 452 395 476 c 0
 395 523 382 560 355 587 c 0
 328 613 293 628 248 628 c 2
 116 628 l 1
 116 315 l 1
 207 313 l 1
54 684 m 1
 262 684 l 2
 292 684 319 679 343 668 c 0
 366 657 386 643 403 624 c 0
 420 605 432 583 441 558 c 0
 450 533 454 505 454 476 c 0
 454 445 449 416 439 390 c 0
 429 363 415 340 397 321 c 0
 379 301 357 286 332 275 c 0
 306 264 277 258 246 258 c 2
 207 258 l 2
 187 258 137 259 116 259 c 1
 116 -1 l 1
 55 -1 l 1
 55 628 l 1
 54 628 l 1
 54 684 l 1
EndSplineSet
Position2: "'cpsp' Capital Spacing lookup 0 subtable" dx=5 dy=0 dh=10 dv=0
EndChar

StartChar: Thorn
Encoding: 222 222 148
Width: 535
GlyphClass: 2
Flags: HMW
HStem: 0 21G<53 114 53 53> 139 55<199 251 211 251 251 254> 509 54<114 251 114 270> 509 175<53 251 53 114>
VStem: 53 61<0 509 563 684> 403 59<345 371.5 341.5 381>
LayerCount: 3
Fore
SplineSet
114 563 m 1
 270 563 l 2
 299 562 325 556 348 545 c 0
 372 534 392 520 409 502 c 0
 426 484 439 463 448 438 c 0
 457 413 462 386 462 357 c 0
 462 326 457 297 447 271 c 0
 437 244 423 221 405 202 c 0
 387 182 365 167 339 156 c 0
 314 145 285 139 254 139 c 2
 211 139 l 2
 187 139 172 140 165 141 c 1
 165 196 l 1
 211 194 l 1
 251 194 l 2
 274 194 294 198 313 206 c 0
 332 214 348 225 361 240 c 0
 374 254 385 271 392 291 c 0
 399 311 403 333 403 357 c 0
 403 405 389 442 362 469 c 0
 334 496 297 509 251 509 c 2
 114 509 l 1
 114 0 l 1
 53 0 l 1
 53 684 l 1
 114 684 l 1
 114 563 l 1
EndSplineSet
Position2: "'cpsp' Capital Spacing lookup 0 subtable" dx=5 dy=0 dh=10 dv=0
EndChar

StartChar: Q
Encoding: 81 81 149
Width: 781
GlyphClass: 2
Flags: HMW
HStem: -199 21G<218 218> -193 52<480 498 476 514.5> -10 55<364 378 364 364> 0 21G<293 293> 639 55<358 400>
VStem: 40 81 635 80
LayerCount: 3
Fore
SplineSet
379 639 m 0
 337 639 297 631 265 618 c 0
 228 603 199 581 178 558 c 0
 159 537 135 501 121 463 c 0
 108 428 101 386 101 340 c 0
 101 298 107 261 121 222 c 0
 136 180 155 152 178 128 c 0
 200 105 225 84 265 67 c 0
 296 54 331 45 378 45 c 0
 419 45 457 52 492 67 c 0
 525 81 553 100 579 128 c 0
 604 155 622 186 635 222 c 0
 648 258 655 295 655 341 c 0
 655 387 648 427 635 463 c 0
 622 499 604 528 578 556 c 0
 554 582 525 603 491 617 c 0
 458 631 421 639 379 639 c 0
175 -166 m 1
 293 0 l 1
 241 12 216 26 188 44 c 0
 158 64 130 89 108 120 c 0
 87 149 68 186 57 222 c 0
 46 258 40 302 40 343 c 0
 40 387 47 436 64 482 c 0
 81 528 104 562 133 593 c 0
 162 624 198 650 239 667 c 0
 281 685 326 694 378 694 c 0
 430 694 474 685 516 667 c 0
 558 649 595 622 622 593 c 0
 654 559 676 521 691 481 c 0
 707 438 715 393 715 342 c 0
 715 287 706 244 691 203 c 0
 671 149 649 120 622 91 c 0
 595 63 563 37 516 17 c 0
 476 0 433 -10 378 -10 c 2
 364 -10 l 2
 359 -9 355 -9 350 -9 c 1
 291 -94 l 1
 371 -121 l 2
 391 -128 411 -133 428 -136 c 0
 445 -139 468 -141 484 -141 c 0
 512 -141 537 -135 579 -106 c 1
 604 -150 l 1
 547 -192 529 -193 500 -193 c 0
 460 -193 442 -191 420 -187 c 0
 398 -183 383 -179 359 -171 c 2
 260 -138 l 1
 218 -199 l 1
 175 -166 l 1
EndSplineSet
Position2: "'cpsp' Capital Spacing lookup 0 subtable" dx=5 dy=0 dh=10 dv=0
EndChar

StartChar: R
Encoding: 82 82 150
Width: 720
GlyphClass: 2
Flags: HMW
HStem: -10 57<578.5 588.5 578.5 596.5> -10 90 0 21G<138 199 138 138> 289.5 42.5 628 56<117 119 119 138 199 349 199 199>
VStem: 14 56<579 586.5 579 588> 138 61<0 628 0 628> 481 60<465 486.5> 619 57<74.5 79 72 81>
AnchorPoint: "Anchor-3" 319 684 basechar 0
AnchorPoint: "Anchor-2" 322 0 basechar 0
AnchorPoint: "Anchor-1" 0 0 basechar 0
LayerCount: 3
Fore
SplineSet
117 684 m 2
 353 684 l 2
 387 684 412 677 433 667 c 0
 456 656 475 641 492 621 c 0
 508 602 519 582 528 555 c 0
 537 528 541 506 541 479 c 0
 541 451 537 430 531 411 c 0
 524 389 513 368 501 353 c 0
 486 334 469 320 451 310 c 0
 433 300 410 292 381 290 c 2
 356 289 l 1
 369 285 l 2
 372 284 377 282 380 280 c 0
 385 277 402 263 407 257 c 2
 428 231 l 1
 558 61 l 2
 564 52 572 47 585 47 c 0
 592 47 599 49 605 53 c 0
 619 62 619 68 619 81 c 1
 676 79 l 1
 676 65 673 51 666 38 c 0
 661 28 651 15 637 6 c 0
 623 -4 607 -10 586 -10 c 0
 556 -10 531 3 511 29 c 2
 385 193 l 2
 371 212 351 235 329 251 c 0
 307 267 288 273 251 276 c 1
 251 332 l 1
 338 332 l 2
 381 332 418 347 442 371 c 0
 468 397 481 433 481 476 c 0
 481 497 478 516 472 535 c 0
 466 553 458 569 445 584 c 0
 431 600 416 610 404 616 c 0
 390 623 369 628 349 628 c 2
 199 628 l 1
 199 0 l 1
 138 0 l 1
 138 628 l 1
 119 628 l 2
 106 628 94 623 85 614 c 0
 76 605 70 594 70 579 c 1
 14 579 l 1
 14 597 18 609 22 619 c 0
 27 631 33 641 44 652 c 0
 55 663 62 669 78 676 c 0
 88 680 100 684 117 684 c 2
EndSplineSet
Substitution2: "'ss02' Style Set 2 lookup 13 subtable" R.ss02
Substitution2: "'ss01' Style Set 1 lookup 12 subtable" R.ss01
Substitution2: "'salt' Stylistic Alternatives lookup 11 subtable" R.ss01
AlternateSubs2: "'aalt' Access All Alternates lookup 1 subtable" R.ss01 R.ss02
Position2: "'cpsp' Capital Spacing lookup 0 subtable" dx=5 dy=0 dh=10 dv=0
EndChar

StartChar: R.ss01
Encoding: 1114130 -1 151
Width: 720
GlyphClass: 2
Flags: HMW
HStem: -10 57<579 588.5 579 595.5> -10 90 0 21G<138 199 138 138> 289.5 42.5 628 56<117 119 119 349>
VStem: 14 56<569.5 585.5 569.5 586> 138 61<0 582> 481 60<465 486.5> 619 57<74.5 79 71.5 81>
AnchorPoint: "Anchor-3" 360 0 basechar 0
AnchorPoint: "Anchor-2" 360 0 basechar 0
AnchorPoint: "Anchor-1" 0 0 basechar 0
LayerCount: 3
Fore
SplineSet
199 0 m 1
 138 0 l 1
 138 582 l 1
 199 582 l 1
 199 0 l 1
117 684 m 2
 353 684 l 2
 383 684 410 678 433 667 c 0
 456 656 476 640 492 621 c 0
 508 602 520 580 529 555 c 0
 537 530 541 503 541 476 c 0
 541 454 538 432 531 411 c 0
 524 390 514 370 501 353 c 0
 488 336 471 321 451 310 c 0
 431 299 408 292 381 290 c 2
 356 289 l 1
 369 285 l 2
 374 283 378 281 380 280 c 0
 391 272 400 264 407 257 c 2
 428 231 l 1
 558 61 l 2
 564 52 573 47 585 47 c 0
 592 47 599 49 605 53 c 0
 619 62 619 68 619 81 c 1
 676 79 l 1
 676 64 673 50 666 37 c 0
 659 24 649 14 637 6 c 0
 622 -5 605 -10 586 -10 c 0
 556 -10 531 3 511 29 c 2
 385 193 l 2
 368 216 349 236 330 251 c 0
 311 266 284 274 251 276 c 1
 251 332 l 1
 338 332 l 2
 380 332 414 345 441 371 c 0
 468 396 481 431 481 476 c 0
 481 497 478 516 472 535 c 0
 466 554 457 570 446 584 c 0
 434 597 420 608 404 616 c 0
 387 624 369 628 349 628 c 2
 119 628 l 2
 106 628 94 623 85 614 c 0
 75 604 70 592 70 579 c 0
 70 560 78 546 93 537 c 1
 64 489 l 1
 49 498 37 511 28 527 c 0
 19 543 14 560 14 579 c 0
 14 593 17 606 22 619 c 0
 27 632 35 643 44 653 c 0
 53 662 64 670 77 676 c 0
 90 681 103 684 117 684 c 2
EndSplineSet
Position2: "'cpsp' Capital Spacing lookup 0 subtable" dx=5 dy=0 dh=10 dv=0
EndChar

StartChar: R.ss02
Encoding: 1114131 -1 152
Width: 613
GlyphClass: 2
Flags: HMW
HStem: -10 57<494.5 504.5 494.5 510.5> 0 21G<54 115 54 54> 289 43<272 277 167 297 272 272> 628 56<115 265 115 115>
VStem: 54 61<0 628 0 684 0 684> 397 60<463 482 463 487.5>
AnchorPoint: "Anchor-3" 276 0 basechar 0
AnchorPoint: "Anchor-2" 276 0 basechar 0
AnchorPoint: "Anchor-1" 0 0 basechar 0
LayerCount: 3
Fore
SplineSet
521 53 m 1
 553 6 l 1
 537 -6 519 -10 502 -10 c 0
 472 -10 447 3 427 29 c 2
 301 193 l 2
 285 215 261 239 246 251 c 0
 229 264 197 275 167 276 c 1
 167 332 l 1
 254 332 l 2
 300 332 331 346 357 371 c 0
 386 399 397 434 397 475 c 0
 397 500 393 520 388 535 c 0
 383 550 372 572 362 584 c 0
 352 596 332 609 320 616 c 0
 307 623 284 628 265 628 c 2
 115 628 l 1
 115 0 l 1
 54 0 l 1
 54 684 l 1
 269 684 l 2
 303 684 328 677 349 667 c 0
 374 655 394 638 408 621 c 0
 420 606 438 577 445 555 c 0
 454 528 457 491 457 473 c 0
 457 453 453 430 447 411 c 0
 440 389 429 368 417 353 c 0
 402 334 385 320 367 310 c 0
 349 300 326 292 297 289 c 2
 272 289 l 1
 285 285 l 2
 288 284 293 282 296 280 c 0
 309 271 318 262 323 257 c 2
 344 231 l 1
 474 61 l 2
 480 52 488 47 501 47 c 0
 508 47 515 49 521 53 c 1
EndSplineSet
Position2: "'cpsp' Capital Spacing lookup 0 subtable" dx=5 dy=0 dh=10 dv=0
EndChar

StartChar: Racute
Encoding: 340 340 153
Width: 720
GlyphClass: 2
Flags: HMW
HStem: -10 57<578.5 588.5 578.5 596.5> -10 90 0 21G<138 199 138 138> 289.5 42.5 628 56<117 119 119 138 199 349 199 199>
VStem: 14 56<579 586.5 579 588> 138 61<0 628 0 628> 481 60<465 486.5> 619 57<74.5 79 72 81>
LayerCount: 3
Fore
SplineSet
117 684 m 2
 353 684 l 2
 387 684 412 677 433 667 c 0
 456 656 475 641 492 621 c 0
 508 602 519 582 528 555 c 0
 537 528 541 506 541 479 c 0
 541 451 537 430 531 411 c 0
 524 389 513 368 501 353 c 0
 486 334 469 320 451 310 c 0
 433 300 410 292 381 290 c 2
 356 289 l 1
 369 285 l 2
 372 284 377 282 380 280 c 0
 385 277 402 263 407 257 c 2
 428 231 l 1
 558 61 l 2
 564 52 572 47 585 47 c 0
 592 47 599 49 605 53 c 0
 619 62 619 68 619 81 c 1
 676 79 l 1
 676 65 673 51 666 38 c 0
 661 28 651 15 637 6 c 0
 623 -4 607 -10 586 -10 c 0
 556 -10 531 3 511 29 c 2
 385 193 l 2
 371 212 351 235 329 251 c 0
 307 267 288 273 251 276 c 1
 251 332 l 1
 338 332 l 2
 381 332 418 347 442 371 c 0
 468 397 481 433 481 476 c 0
 481 497 478 516 472 535 c 0
 466 553 458 569 445 584 c 0
 431 600 416 610 404 616 c 0
 390 623 369 628 349 628 c 2
 199 628 l 1
 199 0 l 1
 138 0 l 1
 138 628 l 1
 119 628 l 2
 106 628 94 623 85 614 c 0
 76 605 70 594 70 579 c 1
 14 579 l 1
 14 597 18 609 22 619 c 0
 27 631 33 641 44 652 c 0
 55 663 62 669 78 676 c 0
 88 680 100 684 117 684 c 2
485 861 m 1
 313 751 l 1
 291 785 l 1
 449 910 l 1
 485 861 l 1
EndSplineSet
Position2: "'cpsp' Capital Spacing lookup 0 subtable" dx=5 dy=0 dh=10 dv=0
EndChar

StartChar: Rcaron
Encoding: 344 344 154
Width: 720
GlyphClass: 2
Flags: HMW
HStem: -10 57<578.5 588.5 578.5 596.5> -10 90 0 21G<138 199 138 138> 289.5 42.5 628 56<117 119 119 138 199 349 199 199> 779 142<171 343 171 294>
VStem: 14 56<579 586.5 579 588> 138 61<0 628 0 628> 481 60<465 486.5> 619 57<74.5 79 72 81>
LayerCount: 3
Fore
SplineSet
117 684 m 2
 353 684 l 2
 387 684 412 677 433 667 c 0
 456 656 475 641 492 621 c 0
 508 602 519 582 528 555 c 0
 537 528 541 506 541 479 c 0
 541 451 537 430 531 411 c 0
 524 389 513 368 501 353 c 0
 486 334 469 320 451 310 c 0
 433 300 410 292 381 290 c 2
 356 289 l 1
 369 285 l 2
 372 284 377 282 380 280 c 0
 385 277 402 263 407 257 c 2
 428 231 l 1
 558 61 l 2
 564 52 572 47 585 47 c 0
 592 47 599 49 605 53 c 0
 619 62 619 68 619 81 c 1
 676 79 l 1
 676 65 673 51 666 38 c 0
 661 28 651 15 637 6 c 0
 623 -4 607 -10 586 -10 c 0
 556 -10 531 3 511 29 c 2
 385 193 l 2
 371 212 351 235 329 251 c 0
 307 267 288 273 251 276 c 1
 251 332 l 1
 338 332 l 2
 381 332 418 347 442 371 c 0
 468 397 481 433 481 476 c 0
 481 497 478 516 472 535 c 0
 466 553 458 569 445 584 c 0
 431 600 416 610 404 616 c 0
 390 623 369 628 349 628 c 2
 199 628 l 1
 199 0 l 1
 138 0 l 1
 138 628 l 1
 119 628 l 2
 106 628 94 623 85 614 c 0
 76 605 70 594 70 579 c 1
 14 579 l 1
 14 597 18 609 22 619 c 0
 27 631 33 641 44 652 c 0
 55 663 62 669 78 676 c 0
 88 680 100 684 117 684 c 2
343 779 m 1
 294 779 l 1
 171 921 l 1
 238 921 l 1
 319 832 l 1
 399 921 l 1
 467 921 l 1
 343 779 l 1
EndSplineSet
Position2: "'cpsp' Capital Spacing lookup 0 subtable" dx=5 dy=0 dh=10 dv=0
EndChar

StartChar: Rcommaaccent
Encoding: 342 342 155
Width: 720
GlyphClass: 2
Flags: HMW
HStem: -285 207<287 301 247 351> -10 57<578.5 588.5 578.5 596.5> -10 90 0 21G<138 199 138 138> 289.5 42.5 628 56<117 119 119 138 199 349 199 199>
VStem: 14 56<579 586.5 579 588> 138 61<0 628 0 628> 481 60<465 486.5> 619 57<74.5 79 72 81>
LayerCount: 3
Fore
SplineSet
301 -285 m 1
 247 -285 l 1
 287 -78 l 1
 351 -78 l 1
 301 -285 l 1
117 684 m 2
 353 684 l 2
 387 684 412 677 433 667 c 0
 456 656 475 641 492 621 c 0
 508 602 519 582 528 555 c 0
 537 528 541 506 541 479 c 0
 541 451 537 430 531 411 c 0
 524 389 513 368 501 353 c 0
 486 334 469 320 451 310 c 0
 433 300 410 292 381 290 c 2
 356 289 l 1
 369 285 l 2
 372 284 377 282 380 280 c 0
 385 277 402 263 407 257 c 2
 428 231 l 1
 558 61 l 2
 564 52 572 47 585 47 c 0
 592 47 599 49 605 53 c 0
 619 62 619 68 619 81 c 1
 676 79 l 1
 676 65 673 51 666 38 c 0
 661 28 651 15 637 6 c 0
 623 -4 607 -10 586 -10 c 0
 556 -10 531 3 511 29 c 2
 385 193 l 2
 371 212 351 235 329 251 c 0
 307 267 288 273 251 276 c 1
 251 332 l 1
 338 332 l 2
 381 332 418 347 442 371 c 0
 468 397 481 433 481 476 c 0
 481 497 478 516 472 535 c 0
 466 553 458 569 445 584 c 0
 431 600 416 610 404 616 c 0
 390 623 369 628 349 628 c 2
 199 628 l 1
 199 0 l 1
 138 0 l 1
 138 628 l 1
 119 628 l 2
 106 628 94 623 85 614 c 0
 76 605 70 594 70 579 c 1
 14 579 l 1
 14 597 18 609 22 619 c 0
 27 631 33 641 44 652 c 0
 55 663 62 669 78 676 c 0
 88 680 100 684 117 684 c 2
EndSplineSet
Position2: "'cpsp' Capital Spacing lookup 0 subtable" dx=5 dy=0 dh=10 dv=0
EndChar

StartChar: S
Encoding: 83 83 156
Width: 559
GlyphClass: 2
Flags: HMW
HStem: -25 55<256.5 277 245 283.5> 481 20G<332 333.5> 500 53<336 346.5> 651 55<264.5 275>
VStem: 91 55<531.5 549 531.5 555> 374 55<587.5 593> 433 55<173.5 198.5>
AnchorPoint: "Anchor-3" 273 706 basechar 0
AnchorPoint: "Anchor-2" 280 0 basechar 0
AnchorPoint: "Anchor-1" 0 0 basechar 0
LayerCount: 3
Fore
SplineSet
277 348 m 1
 269 351 l 2
 261 354 237 365 217 376 c 0
 189 391 176 401 158 417 c 0
 140 433 126 447 111 470 c 0
 97 492 91 509 91 541 c 0
 91 569 96 587 104 605 c 0
 114 627 125 641 141 656 c 0
 154 668 175 683 198 692 c 0
 223 702 248 706 273 706 c 0
 294 706 316 703 335 697 c 0
 350 692 371 683 384 673 c 0
 392 667 408 652 417 636 c 0
 425 622 429 604 429 588 c 0
 429 573 426 560 421 549 c 0
 415 536 408 528 400 521 c 0
 393 515 380 507 369 504 c 0
 364 502 352 500 341 500 c 0
 338 500 335 501 332 501 c 2
 336 553 l 1
 340 551 347 551 350 552 c 0
 353 553 360 558 362 561 c 0
 368 568 369 572 371 575 c 0
 373 580 374 585 374 590 c 0
 374 596 373 602 365 614 c 0
 359 623 355 627 343 634 c 0
 334 639 321 645 310 647 c 0
 297 650 278 651 272 651 c 0
 257 651 236 648 220 642 c 0
 204 636 187 624 180 618 c 0
 171 610 161 596 155 584 c 0
 149 572 146 557 146 541 c 0
 146 522 150 509 162 493 c 0
 171 481 185 467 199 456 c 0
 215 443 225 436 248 424 c 0
 265 415 282 407 299 400 c 2
 305 397 l 2
 310 394 341 380 362 369 c 0
 383 358 409 341 422 330 c 0
 440 315 458 292 469 271 c 0
 480 249 488 226 488 184 c 0
 488 147 482 128 472 105 c 0
 460 79 444 58 424 38 c 0
 403 17 382 3 354 -8 c 0
 329 -18 300 -25 267 -25 c 0
 246 -25 218 -22 190 -13 c 0
 165 -5 144 6 122 21 c 0
 96 39 80 55 64 74 c 0
 52 89 32 120 23 144 c 1
 74 164 l 1
 91 125 117 92 151 68 c 0
 185 43 224 30 266 30 c 0
 288 30 312 34 333 43 c 0
 353 51 371 62 386 77 c 0
 401 92 413 108 421 126 c 0
 427 140 433 161 433 186 c 0
 433 211 427 232 420 246 c 0
 410 266 396 278 384 288 c 0
 369 300 353 310 334 320 c 2
 277 348 l 1
EndSplineSet
Position2: "'cpsp' Capital Spacing lookup 0 subtable" dx=5 dy=0 dh=10 dv=0
EndChar

StartChar: S.002
Encoding: 1114132 -1 157
Width: 559
GlyphClass: 2
Flags: HMW
HStem: -25 55<256.5 277 245 283.5> 651 55<264.5 275>
VStem: 91 55<531.5 549 531.5 555> 374 55<590 593> 433 55<173.5 198.5>
AnchorPoint: "Anchor-3" 273 706 basechar 0
AnchorPoint: "Anchor-2" 280 0 basechar 0
AnchorPoint: "Anchor-1" 0 0 basechar 0
LayerCount: 3
Fore
SplineSet
277 348 m 1
 269 351 l 2
 261 354 237 365 217 376 c 0
 189 391 176 401 158 417 c 0
 140 433 126 447 111 470 c 0
 97 492 91 509 91 541 c 0
 91 569 96 587 104 605 c 0
 114 627 125 641 141 656 c 0
 154 668 175 683 198 692 c 0
 223 702 248 706 273 706 c 0
 294 706 316 703 335 697 c 0
 350 692 371 683 384 673 c 0
 392 667 408 652 417 636 c 0
 425 622 429 604 429 588 c 1
 374 590 l 1
 374 596 373 602 365 614 c 0
 359 623 355 627 343 634 c 0
 334 639 321 645 310 647 c 0
 297 650 278 651 272 651 c 0
 257 651 236 648 220 642 c 0
 204 636 187 624 180 618 c 0
 171 610 161 596 155 584 c 0
 149 572 146 557 146 541 c 0
 146 522 150 509 162 493 c 0
 171 481 185 467 199 456 c 0
 215 443 225 436 248 424 c 0
 265 415 282 407 299 400 c 2
 305 397 l 2
 310 394 341 380 362 369 c 0
 383 358 409 341 422 330 c 0
 440 315 458 292 469 271 c 0
 480 249 488 226 488 184 c 0
 488 147 482 128 472 105 c 0
 460 79 444 58 424 38 c 0
 403 17 382 3 354 -8 c 0
 329 -18 300 -25 267 -25 c 0
 246 -25 218 -22 190 -13 c 0
 165 -5 144 6 122 21 c 0
 96 39 80 55 64 74 c 0
 52 89 32 120 23 144 c 1
 74 164 l 1
 91 125 117 92 151 68 c 0
 185 43 224 30 266 30 c 0
 288 30 312 34 333 43 c 0
 353 51 371 62 386 77 c 0
 401 92 413 108 421 126 c 0
 427 140 433 161 433 186 c 0
 433 211 427 232 420 246 c 0
 410 266 396 278 384 288 c 0
 369 300 353 310 334 320 c 2
 277 348 l 1
EndSplineSet
Position2: "'cpsp' Capital Spacing lookup 0 subtable" dx=5 dy=0 dh=10 dv=0
EndChar

StartChar: Sacute
Encoding: 346 346 158
Width: 559
GlyphClass: 2
Flags: HMW
HStem: -25 55<256.5 277 245 283.5> 481 20G<332 333.5> 500 53<336 346.5> 651 55<264.5 275> 787 20G<245 245>
VStem: 91 55<531.5 549 531.5 555> 374 55<587.5 593> 433 55<173.5 198.5>
LayerCount: 3
Fore
SplineSet
277 348 m 1
 269 351 l 2
 261 354 237 365 217 376 c 0
 189 391 176 401 158 417 c 0
 140 433 126 447 111 470 c 0
 97 492 91 509 91 541 c 0
 91 569 96 587 104 605 c 0
 114 627 125 641 141 656 c 0
 154 668 175 683 198 692 c 0
 223 702 248 706 273 706 c 0
 294 706 316 703 335 697 c 0
 350 692 371 683 384 673 c 0
 392 667 408 652 417 636 c 0
 425 622 429 604 429 588 c 0
 429 573 426 560 421 549 c 0
 415 536 408 528 400 521 c 0
 393 515 380 507 369 504 c 0
 364 502 352 500 341 500 c 0
 338 500 335 501 332 501 c 2
 336 553 l 1
 340 551 347 551 350 552 c 0
 353 553 360 558 362 561 c 0
 368 568 369 572 371 575 c 0
 373 580 374 585 374 590 c 0
 374 596 373 602 365 614 c 0
 359 623 355 627 343 634 c 0
 334 639 321 645 310 647 c 0
 297 650 278 651 272 651 c 0
 257 651 236 648 220 642 c 0
 204 636 187 624 180 618 c 0
 171 610 161 596 155 584 c 0
 149 572 146 557 146 541 c 0
 146 522 150 509 162 493 c 0
 171 481 185 467 199 456 c 0
 215 443 225 436 248 424 c 0
 265 415 282 407 299 400 c 2
 305 397 l 2
 310 394 341 380 362 369 c 0
 383 358 409 341 422 330 c 0
 440 315 458 292 469 271 c 0
 480 249 488 226 488 184 c 0
 488 147 482 128 472 105 c 0
 460 79 444 58 424 38 c 0
 403 17 382 3 354 -8 c 0
 329 -18 300 -25 267 -25 c 0
 246 -25 218 -22 190 -13 c 0
 165 -5 144 6 122 21 c 0
 96 39 80 55 64 74 c 0
 52 89 32 120 23 144 c 1
 74 164 l 1
 91 125 117 92 151 68 c 0
 185 43 224 30 266 30 c 0
 288 30 312 34 333 43 c 0
 353 51 371 62 386 77 c 0
 401 92 413 108 421 126 c 0
 427 140 433 161 433 186 c 0
 433 211 427 232 420 246 c 0
 410 266 396 278 384 288 c 0
 369 300 353 310 334 320 c 2
 277 348 l 1
439 883 m 1
 267 773 l 1
 245 807 l 1
 403 932 l 1
 439 883 l 1
EndSplineSet
Position2: "'cpsp' Capital Spacing lookup 0 subtable" dx=5 dy=0 dh=10 dv=0
EndChar

StartChar: Scaron
Encoding: 352 352 159
Width: 559
GlyphClass: 2
Flags: HMW
HStem: -25 55<256.5 277 245 283.5> 481 20G<332 333.5> 500 53<336 346.5> 651 55<264.5 275> 801 142<125 297 125 248>
VStem: 91 55<531.5 549 531.5 555> 374 55<587.5 593> 433 55<173.5 198.5>
LayerCount: 3
Fore
SplineSet
277 348 m 1
 269 351 l 2
 261 354 237 365 217 376 c 0
 189 391 176 401 158 417 c 0
 140 433 126 447 111 470 c 0
 97 492 91 509 91 541 c 0
 91 569 96 587 104 605 c 0
 114 627 125 641 141 656 c 0
 154 668 175 683 198 692 c 0
 223 702 248 706 273 706 c 0
 294 706 316 703 335 697 c 0
 350 692 371 683 384 673 c 0
 392 667 408 652 417 636 c 0
 425 622 429 604 429 588 c 0
 429 573 426 560 421 549 c 0
 415 536 408 528 400 521 c 0
 393 515 380 507 369 504 c 0
 364 502 352 500 341 500 c 0
 338 500 335 501 332 501 c 2
 336 553 l 1
 340 551 347 551 350 552 c 0
 353 553 360 558 362 561 c 0
 368 568 369 572 371 575 c 0
 373 580 374 585 374 590 c 0
 374 596 373 602 365 614 c 0
 359 623 355 627 343 634 c 0
 334 639 321 645 310 647 c 0
 297 650 278 651 272 651 c 0
 257 651 236 648 220 642 c 0
 204 636 187 624 180 618 c 0
 171 610 161 596 155 584 c 0
 149 572 146 557 146 541 c 0
 146 522 150 509 162 493 c 0
 171 481 185 467 199 456 c 0
 215 443 225 436 248 424 c 0
 265 415 282 407 299 400 c 2
 305 397 l 2
 310 394 341 380 362 369 c 0
 383 358 409 341 422 330 c 0
 440 315 458 292 469 271 c 0
 480 249 488 226 488 184 c 0
 488 147 482 128 472 105 c 0
 460 79 444 58 424 38 c 0
 403 17 382 3 354 -8 c 0
 329 -18 300 -25 267 -25 c 0
 246 -25 218 -22 190 -13 c 0
 165 -5 144 6 122 21 c 0
 96 39 80 55 64 74 c 0
 52 89 32 120 23 144 c 1
 74 164 l 1
 91 125 117 92 151 68 c 0
 185 43 224 30 266 30 c 0
 288 30 312 34 333 43 c 0
 353 51 371 62 386 77 c 0
 401 92 413 108 421 126 c 0
 427 140 433 161 433 186 c 0
 433 211 427 232 420 246 c 0
 410 266 396 278 384 288 c 0
 369 300 353 310 334 320 c 2
 277 348 l 1
297 801 m 1
 248 801 l 1
 125 943 l 1
 192 943 l 1
 273 854 l 1
 353 943 l 1
 421 943 l 1
 297 801 l 1
EndSplineSet
Position2: "'cpsp' Capital Spacing lookup 0 subtable" dx=5 dy=0 dh=10 dv=0
EndChar

StartChar: Scedilla
Encoding: 350 350 160
Width: 559
GlyphClass: 2
Flags: HMW
HStem: -242 53<270 276.5> -95 125<245 270 239 277> 481 20G<332 333.5> 500 53<336 346.5> 651 55<264.5 275>
VStem: 91 55<531.5 549 531.5 555> 242.5 60 318 53<-137 -126.5 -144.5 -122> 374 55<587.5 593> 433 55<173.5 198.5>
LayerCount: 3
Fore
SplineSet
299 400 m 2
 305 397 l 2
 310 394 341 380 362 369 c 0
 383 358 409 341 422 330 c 0
 440 315 458 292 469 271 c 0
 480 249 488 226 488 184 c 0
 488 147 482 128 472 105 c 0
 460 79 444 58 424 38 c 0
 403 17 382 3 354 -8 c 0
 339 -14 323 -19 305 -22 c 1
 300 -49 l 1
 323 -52 341 -60 354 -80 c 0
 364 -95 371 -116 371 -137 c 0
 371 -152 368 -165 364 -176 c 0
 358 -192 351 -201 342 -211 c 0
 333 -221 322 -229 310 -234 c 0
 296 -240 283 -242 270 -242 c 1
 270 -189 l 1
 284 -189 298 -184 307 -171 c 0
 316 -158 318 -141 318 -133 c 0
 318 -111 302 -95 270 -95 c 2
 239 -95 l 1
 246 -24 l 1
 229 -23 210 -19 190 -13 c 0
 165 -5 144 6 122 21 c 0
 96 39 80 55 64 74 c 0
 52 89 32 120 23 144 c 1
 74 164 l 1
 91 125 117 92 151 68 c 0
 185 43 224 30 266 30 c 0
 288 30 312 34 333 43 c 0
 353 51 371 62 386 77 c 0
 401 92 413 108 421 126 c 0
 427 140 433 161 433 186 c 0
 433 211 427 232 420 246 c 0
 410 266 396 278 384 288 c 0
 369 300 353 310 334 320 c 2
 277 348 l 1
 269 351 l 2
 261 354 237 365 217 376 c 0
 189 391 176 401 158 417 c 0
 140 433 126 447 111 470 c 0
 97 492 91 509 91 541 c 0
 91 569 96 587 104 605 c 0
 114 627 125 641 141 656 c 0
 154 668 175 683 198 692 c 0
 223 702 248 706 273 706 c 0
 294 706 316 703 335 697 c 0
 350 692 371 683 384 673 c 0
 392 667 408 652 417 636 c 0
 425 622 429 604 429 588 c 0
 429 573 426 560 421 549 c 0
 415 536 408 528 400 521 c 0
 393 515 380 507 369 504 c 0
 364 502 352 500 341 500 c 0
 338 500 335 501 332 501 c 2
 336 553 l 1
 340 551 347 551 350 552 c 0
 353 553 360 558 362 561 c 0
 368 568 369 572 371 575 c 0
 373 580 374 585 374 590 c 0
 374 596 373 602 365 614 c 0
 359 623 355 627 343 634 c 0
 334 639 321 645 310 647 c 0
 297 650 278 651 272 651 c 0
 257 651 236 648 220 642 c 0
 204 636 187 624 180 618 c 0
 171 610 161 596 155 584 c 0
 149 572 146 557 146 541 c 0
 146 522 150 509 162 493 c 0
 171 481 185 467 199 456 c 0
 215 443 225 436 248 424 c 0
 265 415 282 407 299 400 c 2
EndSplineSet
Substitution2: "'locl' Localized Forms in Latin lookup 3 subtable" Scommaaccent
Substitution2: "'locl' Localized Forms in Latin lookup 2 subtable" Scommaaccent
Substitution2: "'aalt' Access All Alternates lookup 0 subtable" Scommaaccent
Position2: "'cpsp' Capital Spacing lookup 0 subtable" dx=5 dy=0 dh=10 dv=0
EndChar

StartChar: Scircumflex
Encoding: 348 348 161
Width: 559
GlyphClass: 2
Flags: HMW
HStem: -25 55<256.5 277 245 283.5> 481 20G<332 333.5> 500 53<336 346.5> 651 55<264.5 275> 811 142<125 297 125 297 248 421 248 353>
VStem: 91 55<531.5 549 531.5 555> 374 55<587.5 593> 433 55<173.5 198.5>
LayerCount: 3
Fore
SplineSet
277 348 m 1
 269 351 l 2
 261 354 237 365 217 376 c 0
 189 391 176 401 158 417 c 0
 140 433 126 447 111 470 c 0
 97 492 91 509 91 541 c 0
 91 569 96 587 104 605 c 0
 114 627 125 641 141 656 c 0
 154 668 175 683 198 692 c 0
 223 702 248 706 273 706 c 0
 294 706 316 703 335 697 c 0
 350 692 371 683 384 673 c 0
 392 667 408 652 417 636 c 0
 425 622 429 604 429 588 c 0
 429 573 426 560 421 549 c 0
 415 536 408 528 400 521 c 0
 393 515 380 507 369 504 c 0
 364 502 352 500 341 500 c 0
 338 500 335 501 332 501 c 2
 336 553 l 1
 340 551 347 551 350 552 c 0
 353 553 360 558 362 561 c 0
 368 568 369 572 371 575 c 0
 373 580 374 585 374 590 c 0
 374 596 373 602 365 614 c 0
 359 623 355 627 343 634 c 0
 334 639 321 645 310 647 c 0
 297 650 278 651 272 651 c 0
 257 651 236 648 220 642 c 0
 204 636 187 624 180 618 c 0
 171 610 161 596 155 584 c 0
 149 572 146 557 146 541 c 0
 146 522 150 509 162 493 c 0
 171 481 185 467 199 456 c 0
 215 443 225 436 248 424 c 0
 265 415 282 407 299 400 c 2
 305 397 l 2
 310 394 341 380 362 369 c 0
 383 358 409 341 422 330 c 0
 440 315 458 292 469 271 c 0
 480 249 488 226 488 184 c 0
 488 147 482 128 472 105 c 0
 460 79 444 58 424 38 c 0
 403 17 382 3 354 -8 c 0
 329 -18 300 -25 267 -25 c 0
 246 -25 218 -22 190 -13 c 0
 165 -5 144 6 122 21 c 0
 96 39 80 55 64 74 c 0
 52 89 32 120 23 144 c 1
 74 164 l 1
 91 125 117 92 151 68 c 0
 185 43 224 30 266 30 c 0
 288 30 312 34 333 43 c 0
 353 51 371 62 386 77 c 0
 401 92 413 108 421 126 c 0
 427 140 433 161 433 186 c 0
 433 211 427 232 420 246 c 0
 410 266 396 278 384 288 c 0
 369 300 353 310 334 320 c 2
 277 348 l 1
421 811 m 1
 353 811 l 1
 273 900 l 1
 192 811 l 1
 125 811 l 1
 248 953 l 1
 297 953 l 1
 421 811 l 1
EndSplineSet
Position2: "'cpsp' Capital Spacing lookup 0 subtable" dx=5 dy=0 dh=10 dv=0
EndChar

